NotoSansSinhala-SemiBold.ufo
<glyph name="exclam.sinh" format="2">
  <advance width="306"/>
  <unicode hex="0021"/>
  <outline>
    <contour>
      <point x="213" y="237" type="line"/>
      <point x="234" y="714" type="line"/>
      <point x="73" y="714" type="line"/>
      <point x="94" y="237" type="line"/>
    </contour>
    <contour>
      <point x="67" y="74" type="curve" smooth="yes"/>
      <point x="67" y="15"/>
      <point x="105" y="-9"/>
      <point x="153" y="-9" type="curve" smooth="yes"/>
      <point x="199" y="-9"/>
      <point x="238" y="15"/>
      <point x="238" y="74" type="curve" smooth="yes"/>
      <point x="238" y="135"/>
      <point x="199" y="157"/>
      <point x="153" y="157" type="curve" smooth="yes"/>
      <point x="105" y="157"/>
      <point x="67" y="135"/>
    </contour>
  </outline>
</glyph>
<glyph name="quotedbl.sinh" format="2">
  <advance width="478"/>
  <unicode hex="0022"/>
  <outline>
    <contour>
      <point x="207" y="799" type="line"/>
      <point x="65" y="799" type="line"/>
      <point x="85" y="542" type="line"/>
      <point x="187" y="542" type="line"/>
    </contour>
    <contour>
      <point x="413" y="799" type="line"/>
      <point x="271" y="799" type="line"/>
      <point x="291" y="542" type="line"/>
      <point x="393" y="542" type="line"/>
    </contour>
  </outline>
</glyph>
<glyph name="numbersign.sinh" format="2">
  <advance width="646"/>
  <unicode hex="0023"/>
  <outline>
    <contour>
      <point x="489" y="422" type="line"/>
      <point x="624" y="422" type="line"/>
      <point x="624" y="519" type="line"/>
      <point x="508" y="519" type="line"/>
      <point x="546" y="713" type="line"/>
      <point x="443" y="713" type="line"/>
      <point x="405" y="519" type="line"/>
      <point x="302" y="519" type="line"/>
      <point x="339" y="713" type="line"/>
      <point x="236" y="713" type="line"/>
      <point x="199" y="519" type="line"/>
      <point x="57" y="519" type="line"/>
      <point x="57" y="422" type="line"/>
      <point x="182" y="422" type="line"/>
      <point x="158" y="300" type="line"/>
      <point x="22" y="300" type="line"/>
      <point x="22" y="203" type="line"/>
      <point x="139" y="203" type="line"/>
      <point x="102" y="0" type="line"/>
      <point x="204" y="0" type="line"/>
      <point x="242" y="203" type="line"/>
      <point x="344" y="203" type="line"/>
      <point x="305" y="0" type="line"/>
      <point x="408" y="0" type="line"/>
      <point x="447" y="203" type="line"/>
      <point x="591" y="203" type="line"/>
      <point x="591" y="300" type="line"/>
      <point x="465" y="300" type="line"/>
    </contour>
    <contour>
      <point x="260" y="300" type="line"/>
      <point x="284" y="422" type="line"/>
      <point x="387" y="422" type="line"/>
      <point x="363" y="300" type="line"/>
    </contour>
  </outline>
</glyph>
<glyph name="percent.sinh" format="2">
  <advance width="901"/>
  <unicode hex="0025"/>
  <outline>
    <contour>
      <point x="31" y="501" type="curve" smooth="yes"/>
      <point x="31" y="360"/>
      <point x="89" y="276"/>
      <point x="199" y="276" type="curve" smooth="yes"/>
      <point x="318" y="276"/>
      <point x="370" y="360"/>
      <point x="370" y="501" type="curve" smooth="yes"/>
      <point x="370" y="642"/>
      <point x="311" y="724"/>
      <point x="199" y="724" type="curve" smooth="yes"/>
      <point x="82" y="724"/>
      <point x="31" y="642"/>
    </contour>
    <contour>
      <point x="150" y="500" type="curve" smooth="yes"/>
      <point x="150" y="584"/>
      <point x="165" y="626"/>
      <point x="200" y="626" type="curve" smooth="yes"/>
      <point x="234" y="626"/>
      <point x="251" y="584"/>
      <point x="251" y="500" type="curve" smooth="yes"/>
      <point x="251" y="415"/>
      <point x="234" y="374"/>
      <point x="200" y="374" type="curve" smooth="yes"/>
      <point x="165" y="374"/>
      <point x="150" y="416"/>
    </contour>
    <contour>
      <point x="706" y="714" type="line"/>
      <point x="589" y="714" type="line"/>
      <point x="193" y="0" type="line"/>
      <point x="310" y="0" type="line"/>
    </contour>
    <contour>
      <point x="531" y="216" type="curve" smooth="yes"/>
      <point x="531" y="75"/>
      <point x="589" y="-9"/>
      <point x="699" y="-9" type="curve" smooth="yes"/>
      <point x="818" y="-9"/>
      <point x="870" y="75"/>
      <point x="870" y="216" type="curve" smooth="yes"/>
      <point x="870" y="357"/>
      <point x="811" y="439"/>
      <point x="699" y="439" type="curve" smooth="yes"/>
      <point x="582" y="439"/>
      <point x="531" y="357"/>
    </contour>
    <contour>
      <point x="650" y="215" type="curve" smooth="yes"/>
      <point x="650" y="299"/>
      <point x="665" y="341"/>
      <point x="700" y="341" type="curve" smooth="yes"/>
      <point x="734" y="341"/>
      <point x="751" y="299"/>
      <point x="751" y="215" type="curve" smooth="yes"/>
      <point x="751" y="128"/>
      <point x="734" y="87"/>
      <point x="700" y="87" type="curve" smooth="yes"/>
      <point x="665" y="87"/>
      <point x="650" y="129"/>
    </contour>
  </outline>
</glyph>
<glyph name="parenleft.sinh" format="2">
  <advance width="349"/>
  <unicode hex="0028"/>
  <outline>
    <contour>
      <point x="52" y="287" type="curve" smooth="yes"/>
      <point x="52" y="99"/>
      <point x="98" y="-80"/>
      <point x="199" y="-216" type="curve"/>
      <point x="320" y="-216" type="line"/>
      <point x="225" y="-73"/>
      <point x="175" y="108"/>
      <point x="175" y="289" type="curve" smooth="yes"/>
      <point x="175" y="473"/>
      <point x="225" y="654"/>
      <point x="321" y="799" type="curve"/>
      <point x="199" y="799" type="line"/>
      <point x="98" y="658"/>
      <point x="52" y="477"/>
    </contour>
  </outline>
</glyph>
<glyph name="parenright.sinh" format="2">
  <advance width="349"/>
  <unicode hex="0029"/>
  <outline>
    <contour>
      <point x="296" y="287" type="curve" smooth="yes"/>
      <point x="296" y="477"/>
      <point x="250" y="658"/>
      <point x="149" y="799" type="curve"/>
      <point x="27" y="799" type="line"/>
      <point x="124" y="654"/>
      <point x="174" y="473"/>
      <point x="174" y="288" type="curve" smooth="yes"/>
      <point x="174" y="108"/>
      <point x="124" y="-73"/>
      <point x="28" y="-216" type="curve"/>
      <point x="149" y="-216" type="line"/>
      <point x="250" y="-80"/>
      <point x="296" y="100"/>
    </contour>
  </outline>
</glyph>
<glyph name="asterisk.sinh" format="2">
  <advance width="545"/>
  <unicode hex="002A"/>
  <outline>
    <contour>
      <point x="334" y="799" type="line"/>
      <point x="210" y="799" type="line"/>
      <point x="229" y="625" type="line"/>
      <point x="57" y="674" type="line"/>
      <point x="38" y="556" type="line"/>
      <point x="198" y="543" type="line"/>
      <point x="93" y="403" type="line"/>
      <point x="205" y="346" type="line"/>
      <point x="270" y="494" type="line"/>
      <point x="344" y="345" type="line"/>
      <point x="452" y="403" type="line"/>
      <point x="346" y="543" type="line"/>
      <point x="507" y="555" type="line"/>
      <point x="491" y="674" type="line"/>
      <point x="314" y="625" type="line"/>
    </contour>
  </outline>
</glyph>
<glyph name="comma.sinh" format="2">
  <advance width="285"/>
  <unicode hex="002C"/>
  <outline>
    <contour>
      <point x="228" y="116" type="line"/>
      <point x="91" y="116" type="line"/>
      <point x="81" y="47"/>
      <point x="61" y="-50"/>
      <point x="42" y="-129" type="curve"/>
      <point x="149" y="-129" type="line"/>
      <point x="182" y="-56"/>
      <point x="217" y="34"/>
      <point x="235" y="105" type="curve"/>
    </contour>
  </outline>
</glyph>
<glyph name="hyphen.sinh" format="2">
  <advance width="341"/>
  <unicode hex="002D"/>
  <outline>
    <contour>
      <point x="40" y="255" type="line"/>
      <point x="302" y="255" type="line"/>
      <point x="302" y="377" type="line"/>
      <point x="40" y="377" type="line"/>
    </contour>
  </outline>
</glyph>
<glyph name="period.sinh" format="2">
  <advance width="285"/>
  <unicode hex="002E"/>
  <outline>
    <contour>
      <point x="57" y="73" type="curve" smooth="yes"/>
      <point x="57" y="14"/>
      <point x="95" y="-10"/>
      <point x="143" y="-10" type="curve" smooth="yes"/>
      <point x="189" y="-10"/>
      <point x="228" y="14"/>
      <point x="228" y="73" type="curve" smooth="yes"/>
      <point x="228" y="134"/>
      <point x="189" y="156"/>
      <point x="143" y="156" type="curve" smooth="yes"/>
      <point x="95" y="156"/>
      <point x="57" y="134"/>
    </contour>
  </outline>
</glyph>
<glyph name="slash.sinh" format="2">
  <advance width="462"/>
  <unicode hex="002F"/>
  <outline>
    <contour>
      <point x="430" y="800" type="line"/>
      <point x="310" y="800" type="line"/>
      <point x="32" y="-216" type="line"/>
      <point x="152" y="-216" type="line"/>
    </contour>
  </outline>
</glyph>
<glyph name="zero.sinh" format="2">
  <advance width="572"/>
  <unicode hex="0030"/>
  <outline>
    <contour>
      <point x="535" y="357" type="curve" smooth="yes"/>
      <point x="535" y="589"/>
      <point x="460" y="725"/>
      <point x="285" y="725" type="curve" smooth="yes"/>
      <point x="102" y="725"/>
      <point x="36" y="588"/>
      <point x="36" y="357" type="curve" smooth="yes"/>
      <point x="36" y="127"/>
      <point x="113" y="-10"/>
      <point x="285" y="-10" type="curve" smooth="yes"/>
      <point x="468" y="-10"/>
      <point x="535" y="127"/>
    </contour>
    <contour>
      <point x="179" y="357" type="curve" smooth="yes"/>
      <point x="179" y="525"/>
      <point x="203" y="610"/>
      <point x="285" y="610" type="curve" smooth="yes"/>
      <point x="365" y="610"/>
      <point x="392" y="530"/>
      <point x="392" y="357" type="curve" smooth="yes"/>
      <point x="392" y="188"/>
      <point x="365" y="105"/>
      <point x="285" y="105" type="curve" smooth="yes"/>
      <point x="203" y="105"/>
      <point x="179" y="198"/>
    </contour>
  </outline>
</glyph>
<glyph name="one.sinh" format="2">
  <advance width="572"/>
  <unicode hex="0031"/>
  <outline>
    <contour>
      <point x="408" y="0" type="line"/>
      <point x="408" y="714" type="line"/>
      <point x="292" y="714" type="line"/>
      <point x="62" y="531" type="line"/>
      <point x="134" y="440" type="line"/>
      <point x="216" y="506" type="line" smooth="yes"/>
      <point x="235" y="522"/>
      <point x="261" y="547"/>
      <point x="269" y="555" type="curve"/>
      <point x="267" y="512"/>
      <point x="265" y="447"/>
      <point x="265" y="413" type="curve"/>
      <point x="265" y="0" type="line"/>
    </contour>
  </outline>
</glyph>
<glyph name="two.sinh" format="2">
  <advance width="572"/>
  <unicode hex="0032"/>
  <outline>
    <contour>
      <point x="539" y="0" type="line"/>
      <point x="539" y="120" type="line"/>
      <point x="224" y="120" type="line"/>
      <point x="224" y="126" type="line"/>
      <point x="311" y="208" type="line" smooth="yes"/>
      <point x="442" y="333"/>
      <point x="519" y="409"/>
      <point x="519" y="529" type="curve" smooth="yes"/>
      <point x="519" y="641"/>
      <point x="433" y="724"/>
      <point x="293" y="724" type="curve" smooth="yes"/>
      <point x="165" y="724"/>
      <point x="102" y="674"/>
      <point x="38" y="622" type="curve"/>
      <point x="115" y="531" type="line"/>
      <point x="173" y="578"/>
      <point x="225" y="605"/>
      <point x="288" y="605" type="curve" smooth="yes"/>
      <point x="341" y="605"/>
      <point x="376" y="576"/>
      <point x="376" y="518" type="curve" smooth="yes"/>
      <point x="376" y="446"/>
      <point x="334" y="397"/>
      <point x="223" y="284" type="curve"/>
      <point x="40" y="98" type="line"/>
      <point x="40" y="0" type="line"/>
    </contour>
  </outline>
</glyph>
<glyph name="three.sinh" format="2">
  <advance width="572"/>
  <unicode hex="0033"/>
  <outline>
    <contour>
      <point x="511" y="554" type="curve" smooth="yes"/>
      <point x="511" y="662"/>
      <point x="419" y="724"/>
      <point x="276" y="724" type="curve" smooth="yes"/>
      <point x="168" y="724"/>
      <point x="97" y="693"/>
      <point x="39" y="654" type="curve"/>
      <point x="106" y="557" type="line"/>
      <point x="156" y="588"/>
      <point x="205" y="609"/>
      <point x="265" y="609" type="curve" smooth="yes"/>
      <point x="337" y="609"/>
      <point x="370" y="577"/>
      <point x="370" y="523" type="curve" smooth="yes"/>
      <point x="370" y="464"/>
      <point x="341" y="421"/>
      <point x="204" y="421" type="curve" smooth="yes"/>
      <point x="148" y="421" type="line"/>
      <point x="148" y="313" type="line"/>
      <point x="204" y="313" type="line" smooth="yes"/>
      <point x="338" y="313"/>
      <point x="381" y="278"/>
      <point x="381" y="215" type="curve" smooth="yes"/>
      <point x="381" y="144"/>
      <point x="342" y="103"/>
      <point x="232" y="103" type="curve" smooth="yes"/>
      <point x="173" y="103"/>
      <point x="101" y="119"/>
      <point x="38" y="150" type="curve"/>
      <point x="38" y="29" type="line"/>
      <point x="98" y="3"/>
      <point x="165" y="-10"/>
      <point x="244" y="-10" type="curve" smooth="yes"/>
      <point x="444" y="-10"/>
      <point x="532" y="83"/>
      <point x="532" y="208" type="curve" smooth="yes"/>
      <point x="532" y="302"/>
      <point x="471" y="359"/>
      <point x="357" y="373" type="curve"/>
      <point x="357" y="376" type="line"/>
      <point x="444" y="397"/>
      <point x="511" y="455"/>
    </contour>
  </outline>
</glyph>
<glyph name="four.sinh" format="2">
  <advance width="572"/>
  <unicode hex="0034"/>
  <outline>
    <contour>
      <point x="555" y="155" type="line"/>
      <point x="555" y="265" type="line"/>
      <point x="465" y="265" type="line"/>
      <point x="465" y="714" type="line"/>
      <point x="330" y="714" type="line"/>
      <point x="17" y="253" type="line"/>
      <point x="17" y="155" type="line"/>
      <point x="325" y="155" type="line"/>
      <point x="325" y="0" type="line"/>
      <point x="465" y="0" type="line"/>
      <point x="465" y="155" type="line"/>
    </contour>
    <contour>
      <point x="325" y="265" type="line"/>
      <point x="150" y="265" type="line"/>
      <point x="281" y="463" type="line" smooth="yes"/>
      <point x="299" y="490"/>
      <point x="315" y="521"/>
      <point x="328" y="548" type="curve"/>
      <point x="332" y="548" type="line"/>
      <point x="330" y="529"/>
      <point x="325" y="439"/>
      <point x="325" y="394" type="curve" smooth="yes"/>
    </contour>
  </outline>
</glyph>
<glyph name="five.sinh" format="2">
  <advance width="572"/>
  <unicode hex="0035"/>
  <outline>
    <contour>
      <point x="300" y="452" type="curve" smooth="yes"/>
      <point x="255" y="452"/>
      <point x="225" y="447"/>
      <point x="202" y="441" type="curve"/>
      <point x="215" y="593" type="line"/>
      <point x="477" y="593" type="line"/>
      <point x="477" y="714" type="line"/>
      <point x="90" y="714" type="line"/>
      <point x="63" y="354" type="line"/>
      <point x="123" y="321" type="line"/>
      <point x="150" y="329"/>
      <point x="194" y="337"/>
      <point x="231" y="337" type="curve" smooth="yes"/>
      <point x="328" y="337"/>
      <point x="374" y="297"/>
      <point x="374" y="224" type="curve" smooth="yes"/>
      <point x="374" y="142"/>
      <point x="325" y="105"/>
      <point x="236" y="105" type="curve" smooth="yes"/>
      <point x="175" y="105"/>
      <point x="98" y="125"/>
      <point x="49" y="152" type="curve"/>
      <point x="49" y="29" type="line"/>
      <point x="98" y="3"/>
      <point x="166" y="-10"/>
      <point x="241" y="-10" type="curve" smooth="yes"/>
      <point x="429" y="-10"/>
      <point x="526" y="83"/>
      <point x="526" y="237" type="curve" smooth="yes"/>
      <point x="526" y="376"/>
      <point x="430" y="452"/>
    </contour>
  </outline>
</glyph>
<glyph name="six.sinh" format="2">
  <advance width="572"/>
  <unicode hex="0036"/>
  <outline>
    <contour>
      <point x="35" y="322" type="curve" smooth="yes"/>
      <point x="35" y="89"/>
      <point x="150" y="-10"/>
      <point x="296" y="-10" type="curve" smooth="yes"/>
      <point x="445" y="-10"/>
      <point x="539" y="83"/>
      <point x="539" y="238" type="curve" smooth="yes"/>
      <point x="539" y="382"/>
      <point x="458" y="464"/>
      <point x="331" y="464" type="curve" smooth="yes"/>
      <point x="249" y="464"/>
      <point x="200" y="428"/>
      <point x="173" y="381" type="curve"/>
      <point x="167" y="381" type="line"/>
      <point x="177" y="518"/>
      <point x="222" y="611"/>
      <point x="401" y="611" type="curve" smooth="yes"/>
      <point x="431" y="611"/>
      <point x="462" y="607"/>
      <point x="489" y="602" type="curve"/>
      <point x="489" y="715" type="line"/>
      <point x="464" y="720"/>
      <point x="421" y="722"/>
      <point x="393" y="722" type="curve" smooth="yes"/>
      <point x="96" y="722"/>
      <point x="35" y="508"/>
    </contour>
    <contour>
      <point x="293" y="104" type="curve" smooth="yes"/>
      <point x="217" y="104"/>
      <point x="178" y="176"/>
      <point x="178" y="250" type="curve" smooth="yes"/>
      <point x="178" y="301"/>
      <point x="225" y="355"/>
      <point x="296" y="355" type="curve" smooth="yes"/>
      <point x="366" y="355"/>
      <point x="400" y="310"/>
      <point x="400" y="236" type="curve" smooth="yes"/>
      <point x="400" y="145"/>
      <point x="356" y="104"/>
    </contour>
  </outline>
</glyph>
<glyph name="seven.sinh" format="2">
  <advance width="572"/>
  <unicode hex="0037"/>
  <outline>
    <contour>
      <point x="111" y="0" type="line"/>
      <point x="262" y="0" type="line"/>
      <point x="539" y="622" type="line"/>
      <point x="539" y="713" type="line"/>
      <point x="27" y="713" type="line"/>
      <point x="27" y="593" type="line"/>
      <point x="388" y="593" type="line"/>
    </contour>
  </outline>
</glyph>
<glyph name="eight.sinh" format="2">
  <advance width="572"/>
  <unicode hex="0038"/>
  <outline>
    <contour>
      <point x="286" y="723" type="curve" smooth="yes"/>
      <point x="165" y="723"/>
      <point x="57" y="665"/>
      <point x="57" y="552" type="curve" smooth="yes"/>
      <point x="57" y="467"/>
      <point x="108" y="413"/>
      <point x="172" y="373" type="curve"/>
      <point x="96" y="336"/>
      <point x="35" y="279"/>
      <point x="35" y="181" type="curve" smooth="yes"/>
      <point x="35" y="62"/>
      <point x="126" y="-10"/>
      <point x="286" y="-10" type="curve" smooth="yes"/>
      <point x="434" y="-10"/>
      <point x="536" y="66"/>
      <point x="536" y="185" type="curve" smooth="yes"/>
      <point x="536" y="280"/>
      <point x="462" y="337"/>
      <point x="386" y="377" type="curve"/>
      <point x="459" y="413"/>
      <point x="514" y="465"/>
      <point x="514" y="551" type="curve" smooth="yes"/>
      <point x="514" y="666"/>
      <point x="409" y="723"/>
    </contour>
    <contour>
      <point x="167" y="188" type="curve" smooth="yes"/>
      <point x="167" y="246"/>
      <point x="212" y="285"/>
      <point x="278" y="315" type="curve"/>
      <point x="292" y="308" type="line" smooth="yes"/>
      <point x="346" y="280"/>
      <point x="403" y="244"/>
      <point x="403" y="187" type="curve" smooth="yes"/>
      <point x="403" y="132"/>
      <point x="364" y="95"/>
      <point x="284" y="95" type="curve" smooth="yes"/>
      <point x="207" y="95"/>
      <point x="167" y="134"/>
    </contour>
    <contour>
      <point x="285" y="619" type="curve" smooth="yes"/>
      <point x="339" y="619"/>
      <point x="379" y="591"/>
      <point x="379" y="542" type="curve" smooth="yes"/>
      <point x="379" y="486"/>
      <point x="335" y="458"/>
      <point x="286" y="436" type="curve"/>
      <point x="235" y="460"/>
      <point x="192" y="490"/>
      <point x="192" y="542" type="curve" smooth="yes"/>
      <point x="192" y="591"/>
      <point x="231" y="619"/>
    </contour>
  </outline>
</glyph>
<glyph name="nine.sinh" format="2">
  <advance width="572"/>
  <unicode hex="0039"/>
  <outline>
    <contour>
      <point x="536" y="397" type="curve" smooth="yes"/>
      <point x="536" y="623"/>
      <point x="421" y="722"/>
      <point x="275" y="722" type="curve" smooth="yes"/>
      <point x="126" y="722"/>
      <point x="32" y="629"/>
      <point x="32" y="474" type="curve" smooth="yes"/>
      <point x="32" y="330"/>
      <point x="112" y="248"/>
      <point x="237" y="248" type="curve" smooth="yes"/>
      <point x="330" y="248"/>
      <point x="370" y="284"/>
      <point x="398" y="331" type="curve"/>
      <point x="404" y="331" type="line"/>
      <point x="398" y="195"/>
      <point x="353" y="101"/>
      <point x="170" y="101" type="curve" smooth="yes"/>
      <point x="140" y="101"/>
      <point x="108" y="104"/>
      <point x="82" y="111" type="curve"/>
      <point x="82" y="-3" type="line"/>
      <point x="107" y="-8"/>
      <point x="150" y="-10"/>
      <point x="178" y="-10" type="curve" smooth="yes"/>
      <point x="475" y="-10"/>
      <point x="536" y="204"/>
    </contour>
    <contour>
      <point x="277" y="608" type="curve" smooth="yes"/>
      <point x="354" y="608"/>
      <point x="394" y="532"/>
      <point x="394" y="462" type="curve" smooth="yes"/>
      <point x="394" y="411"/>
      <point x="346" y="356"/>
      <point x="274" y="356" type="curve" smooth="yes"/>
      <point x="205" y="356"/>
      <point x="171" y="402"/>
      <point x="171" y="476" type="curve" smooth="yes"/>
      <point x="171" y="567"/>
      <point x="215" y="608"/>
    </contour>
  </outline>
</glyph>
<glyph name="colon.sinh" format="2">
  <advance width="305"/>
  <unicode hex="003A"/>
  <outline>
    <contour>
      <point x="67" y="73" type="curve"/>
      <point x="67" y="14"/>
      <point x="105" y="-10"/>
      <point x="153" y="-10" type="curve" smooth="yes"/>
      <point x="199" y="-10"/>
      <point x="238" y="14"/>
      <point x="238" y="73" type="curve" smooth="yes"/>
      <point x="238" y="134"/>
      <point x="199" y="156"/>
      <point x="153" y="156" type="curve" smooth="yes"/>
      <point x="105" y="156"/>
      <point x="67" y="134"/>
    </contour>
    <contour>
      <point x="67" y="451" type="curve"/>
      <point x="67" y="392"/>
      <point x="105" y="368"/>
      <point x="153" y="368" type="curve" smooth="yes"/>
      <point x="199" y="368"/>
      <point x="238" y="392"/>
      <point x="238" y="451" type="curve" smooth="yes"/>
      <point x="238" y="512"/>
      <point x="199" y="534"/>
      <point x="153" y="534" type="curve" smooth="yes"/>
      <point x="105" y="534"/>
      <point x="67" y="512"/>
    </contour>
  </outline>
</glyph>
<glyph name="semicolon.sinh" format="2">
  <advance width="305"/>
  <unicode hex="003B"/>
  <outline>
    <contour>
      <point x="228" y="94" type="line"/>
      <point x="91" y="94" type="line"/>
      <point x="81" y="25"/>
      <point x="61" y="-72"/>
      <point x="42" y="-151" type="curve"/>
      <point x="149" y="-151" type="line"/>
      <point x="182" y="-78"/>
      <point x="217" y="12"/>
      <point x="235" y="83" type="curve"/>
    </contour>
    <contour>
      <point x="67" y="451" type="curve"/>
      <point x="67" y="392"/>
      <point x="105" y="368"/>
      <point x="153" y="368" type="curve" smooth="yes"/>
      <point x="199" y="368"/>
      <point x="238" y="392"/>
      <point x="238" y="451" type="curve" smooth="yes"/>
      <point x="238" y="512"/>
      <point x="199" y="534"/>
      <point x="153" y="534" type="curve" smooth="yes"/>
      <point x="105" y="534"/>
      <point x="67" y="512"/>
    </contour>
  </outline>
</glyph>
<glyph name="greater.sinh" format="2">
  <advance width="572"/>
  <unicode hex="003E"/>
  <outline>
    <contour>
      <point x="43" y="216" type="line"/>
      <point x="43" y="99" type="line"/>
      <point x="528" y="313" type="line"/>
      <point x="528" y="383" type="line"/>
      <point x="43" y="625" type="line"/>
      <point x="43" y="508" type="line"/>
      <point x="377" y="353" type="line"/>
    </contour>
  </outline>
</glyph>
<glyph name="question.sinh" format="2">
  <advance width="501"/>
  <unicode hex="003F"/>
  <outline>
    <contour>
      <point x="149" y="237" type="line"/>
      <point x="279" y="237" type="line"/>
      <point x="279" y="266" type="line"/>
      <point x="279" y="307"/>
      <point x="292" y="323"/>
      <point x="351" y="366" type="curve" smooth="yes"/>
      <point x="429" y="423"/>
      <point x="468" y="465"/>
      <point x="468" y="547" type="curve" smooth="yes"/>
      <point x="468" y="650"/>
      <point x="388" y="724"/>
      <point x="249" y="724" type="curve" smooth="yes"/>
      <point x="158" y="724"/>
      <point x="83" y="699"/>
      <point x="18" y="663" type="curve"/>
      <point x="67" y="563" type="line"/>
      <point x="124" y="592"/>
      <point x="182" y="611"/>
      <point x="238" y="611" type="curve" smooth="yes"/>
      <point x="298" y="611"/>
      <point x="334" y="586"/>
      <point x="334" y="539" type="curve" smooth="yes"/>
      <point x="334" y="496"/>
      <point x="309" y="471"/>
      <point x="247" y="428" type="curve" smooth="yes"/>
      <point x="176" y="379"/>
      <point x="149" y="339"/>
      <point x="149" y="273" type="curve"/>
    </contour>
    <contour>
      <point x="134" y="73" type="curve" smooth="yes"/>
      <point x="134" y="14"/>
      <point x="172" y="-10"/>
      <point x="220" y="-10" type="curve" smooth="yes"/>
      <point x="266" y="-10"/>
      <point x="305" y="14"/>
      <point x="305" y="73" type="curve" smooth="yes"/>
      <point x="305" y="134"/>
      <point x="266" y="156"/>
      <point x="220" y="156" type="curve" smooth="yes"/>
      <point x="172" y="156"/>
      <point x="134" y="134"/>
    </contour>
  </outline>
</glyph>
<glyph name="bracketleft.sinh" format="2">
  <advance width="355"/>
  <unicode hex="005B"/>
  <outline>
    <contour>
      <point x="311" y="-216" type="line"/>
      <point x="311" y="-113" type="line"/>
      <point x="194" y="-113" type="line"/>
      <point x="194" y="696" type="line"/>
      <point x="311" y="696" type="line"/>
      <point x="311" y="799" type="line"/>
      <point x="75" y="799" type="line"/>
      <point x="75" y="-216" type="line"/>
    </contour>
  </outline>
</glyph>
<glyph name="backslash.sinh" format="2">
  <advance width="462"/>
  <unicode hex="005C"/>
  <outline>
    <contour>
      <point x="152" y="799" type="line"/>
      <point x="32" y="799" type="line"/>
      <point x="310" y="-216" type="line"/>
      <point x="430" y="-216" type="line"/>
    </contour>
  </outline>
</glyph>
<glyph name="bracketright.sinh" format="2">
  <advance width="355"/>
  <unicode hex="005D"/>
  <outline>
    <contour>
      <point x="44" y="-113" type="line"/>
      <point x="44" y="-216" type="line"/>
      <point x="281" y="-216" type="line"/>
      <point x="281" y="799" type="line"/>
      <point x="44" y="799" type="line"/>
      <point x="44" y="696" type="line"/>
      <point x="161" y="696" type="line"/>
      <point x="161" y="-113" type="line"/>
    </contour>
  </outline>
</glyph>
<glyph name="underscore.sinh" format="2">
  <advance width="411"/>
  <unicode hex="005F"/>
  <outline>
    <contour>
      <point x="413" y="-158" type="line"/>
      <point x="413" y="-90" type="line"/>
      <point x="-2" y="-90" type="line"/>
      <point x="-2" y="-158" type="line"/>
    </contour>
  </outline>
</glyph>
<glyph name="braceleft.sinh" format="2">
  <advance width="408"/>
  <unicode hex="007B"/>
  <outline>
    <contour>
      <point x="364" y="-216" type="curve"/>
      <point x="364" y="-114" type="line"/>
      <point x="308" y="-113"/>
      <point x="271" y="-101"/>
      <point x="271" y="-45" type="curve" smooth="yes"/>
      <point x="271" y="181" type="line" smooth="yes"/>
      <point x="271" y="242"/>
      <point x="234" y="278"/>
      <point x="165" y="289" type="curve"/>
      <point x="165" y="295" type="line"/>
      <point x="234" y="306"/>
      <point x="271" y="342"/>
      <point x="271" y="403" type="curve" smooth="yes"/>
      <point x="271" y="627" type="line" smooth="yes"/>
      <point x="271" y="684"/>
      <point x="308" y="695"/>
      <point x="364" y="696" type="curve"/>
      <point x="364" y="799" type="line"/>
      <point x="193" y="799"/>
      <point x="150" y="759"/>
      <point x="150" y="663" type="curve"/>
      <point x="150" y="434" type="line"/>
      <point x="150" y="371"/>
      <point x="106" y="347"/>
      <point x="25" y="347" type="curve"/>
      <point x="25" y="238" type="line"/>
      <point x="106" y="238"/>
      <point x="150" y="214"/>
      <point x="150" y="151" type="curve" smooth="yes"/>
      <point x="150" y="-81" type="line" smooth="yes"/>
      <point x="150" y="-176"/>
      <point x="193" y="-216"/>
    </contour>
  </outline>
</glyph>
<glyph name="bar.sinh" format="2">
  <advance width="551"/>
  <unicode hex="007C"/>
  <outline>
    <contour>
      <point x="222" y="799" type="line"/>
      <point x="222" y="-216" type="line"/>
      <point x="329" y="-216" type="line"/>
      <point x="329" y="799" type="line"/>
    </contour>
  </outline>
</glyph>
<glyph name="braceright.sinh" format="2">
  <advance width="408"/>
  <unicode hex="007D"/>
  <outline>
    <contour>
      <point x="44" y="799" type="curve"/>
      <point x="44" y="697" type="line"/>
      <point x="101" y="696"/>
      <point x="137" y="684"/>
      <point x="137" y="628" type="curve" smooth="yes"/>
      <point x="137" y="403" type="line" smooth="yes"/>
      <point x="137" y="342"/>
      <point x="174" y="306"/>
      <point x="243" y="294" type="curve"/>
      <point x="243" y="289" type="line"/>
      <point x="174" y="278"/>
      <point x="137" y="242"/>
      <point x="137" y="181" type="curve" smooth="yes"/>
      <point x="137" y="-44" type="line" smooth="yes"/>
      <point x="137" y="-101"/>
      <point x="101" y="-112"/>
      <point x="44" y="-113" type="curve"/>
      <point x="44" y="-216" type="line"/>
      <point x="215" y="-216"/>
      <point x="258" y="-176"/>
      <point x="258" y="-80" type="curve" smooth="yes"/>
      <point x="258" y="149" type="line"/>
      <point x="258" y="212"/>
      <point x="302" y="237"/>
      <point x="383" y="237" type="curve"/>
      <point x="383" y="346" type="line"/>
      <point x="302" y="346"/>
      <point x="258" y="370"/>
      <point x="258" y="433" type="curve" smooth="yes"/>
      <point x="258" y="664" type="line" smooth="yes"/>
      <point x="258" y="759"/>
      <point x="215" y="799"/>
    </contour>
  </outline>
</glyph>
<glyph name="danda.sinh" format="2">
  <advance width="364"/>
  <unicode hex="0964"/>
  <outline>
    <contour>
      <point x="152" y="662" type="line"/>
      <point x="152" y="-50" type="line"/>
      <point x="264" y="-50" type="line"/>
      <point x="264" y="662" type="line"/>
    </contour>
  </outline>
</glyph>
<glyph name="dbldanda.sinh" format="2">
  <advance width="555"/>
  <unicode hex="0965"/>
  <outline>
    <contour>
      <point x="152" y="662" type="line"/>
      <point x="152" y="-50" type="line"/>
      <point x="264" y="-50" type="line"/>
      <point x="264" y="662" type="line"/>
    </contour>
    <contour>
      <point x="343" y="662" type="line"/>
      <point x="343" y="-50" type="line"/>
      <point x="455" y="-50" type="line"/>
      <point x="455" y="662" type="line"/>
    </contour>
  </outline>
</glyph>
<glyph name="anusvarasinh" format="2">
  <advance width="508"/>
  <unicode hex="0D82"/>
  <outline>
    <contour>
      <point x="30" y="266" type="curve" smooth="yes"/>
      <point x="30" y="133"/>
      <point x="114" y="49"/>
      <point x="253" y="49" type="curve" smooth="yes"/>
      <point x="392" y="49"/>
      <point x="478" y="131"/>
      <point x="478" y="266" type="curve" smooth="yes"/>
      <point x="478" y="389"/>
      <point x="392" y="478"/>
      <point x="256" y="478" type="curve" smooth="yes"/>
      <point x="112" y="478"/>
      <point x="30" y="388"/>
    </contour>
    <contour>
      <point x="140" y="272" type="curve" smooth="yes"/>
      <point x="140" y="335"/>
      <point x="177" y="379"/>
      <point x="253" y="379" type="curve" smooth="yes"/>
      <point x="330" y="379"/>
      <point x="368" y="336"/>
      <point x="368" y="273" type="curve" smooth="yes"/>
      <point x="368" y="200"/>
      <point x="321" y="166"/>
      <point x="255" y="166" type="curve" smooth="yes"/>
      <point x="185" y="166"/>
      <point x="140" y="201"/>
    </contour>
  </outline>
</glyph>
<glyph name="visargasinh" format="2">
  <advance width="328"/>
  <unicode hex="0D83"/>
  <outline>
    <contour>
      <point x="300" y="418" type="curve" smooth="yes"/>
      <point x="300" y="495"/>
      <point x="246" y="545"/>
      <point x="164" y="545" type="curve" smooth="yes"/>
      <point x="80" y="545"/>
      <point x="28" y="489"/>
      <point x="28" y="415" type="curve" smooth="yes"/>
      <point x="28" y="344"/>
      <point x="74" y="288"/>
      <point x="165" y="288" type="curve" smooth="yes"/>
      <point x="246" y="288"/>
      <point x="300" y="339"/>
    </contour>
    <contour>
      <point x="216" y="417" type="curve" smooth="yes"/>
      <point x="216" y="384"/>
      <point x="193" y="367"/>
      <point x="163" y="367" type="curve" smooth="yes"/>
      <point x="127" y="367"/>
      <point x="112" y="391"/>
      <point x="112" y="415" type="curve" smooth="yes"/>
      <point x="112" y="447"/>
      <point x="132" y="466"/>
      <point x="164" y="466" type="curve" smooth="yes"/>
      <point x="198" y="466"/>
      <point x="216" y="443"/>
    </contour>
    <contour>
      <point x="300" y="130" type="curve" smooth="yes"/>
      <point x="300" y="207"/>
      <point x="246" y="257"/>
      <point x="164" y="257" type="curve" smooth="yes"/>
      <point x="80" y="257"/>
      <point x="28" y="202"/>
      <point x="28" y="127" type="curve" smooth="yes"/>
      <point x="28" y="56"/>
      <point x="74" y="0"/>
      <point x="165" y="0" type="curve" smooth="yes"/>
      <point x="246" y="0"/>
      <point x="300" y="51"/>
    </contour>
    <contour>
      <point x="216" y="129" type="curve" smooth="yes"/>
      <point x="216" y="97"/>
      <point x="193" y="79"/>
      <point x="163" y="79" type="curve" smooth="yes"/>
      <point x="127" y="79"/>
      <point x="112" y="103"/>
      <point x="112" y="126" type="curve" smooth="yes"/>
      <point x="112" y="160"/>
      <point x="132" y="178"/>
      <point x="164" y="178" type="curve" smooth="yes"/>
      <point x="198" y="178"/>
      <point x="216" y="155"/>
    </contour>
  </outline>
</glyph>
<glyph name="asinh" format="2">
  <advance width="741"/>
  <unicode hex="0D85"/>
  <outline>
    <contour>
      <point x="364" y="-11" type="curve" smooth="yes"/>
      <point x="483" y="-11"/>
      <point x="593" y="6"/>
      <point x="671" y="43" type="curve"/>
      <point x="634" y="145" type="line"/>
      <point x="613" y="134"/>
      <point x="583" y="120"/>
      <point x="539" y="111" type="curve"/>
      <point x="512" y="109" type="line"/>
      <point x="474" y="103"/>
      <point x="429" y="98"/>
      <point x="389" y="98" type="curve" smooth="yes"/>
      <point x="231" y="98"/>
      <point x="169" y="148"/>
      <point x="169" y="230" type="curve" smooth="yes"/>
      <point x="169" y="273"/>
      <point x="188" y="308"/>
      <point x="229" y="329" type="curve" smooth="yes"/>
      <point x="263" y="346"/>
      <point x="304" y="357"/>
      <point x="417" y="357" type="curve" smooth="yes"/>
      <point x="549" y="357" type="line"/>
      <point x="549" y="436" type="line" smooth="yes"/>
      <point x="549" y="528"/>
      <point x="494" y="612"/>
      <point x="378" y="612" type="curve" smooth="yes"/>
      <point x="282" y="612"/>
      <point x="225" y="572"/>
      <point x="225" y="494" type="curve" smooth="yes"/>
      <point x="225" y="486"/>
      <point x="226" y="469"/>
      <point x="227" y="461" type="curve"/>
      <point x="337" y="470" type="line"/>
      <point x="337" y="472"/>
      <point x="337" y="473"/>
      <point x="337" y="475" type="curve" smooth="yes"/>
      <point x="337" y="500"/>
      <point x="353" y="514"/>
      <point x="389" y="514" type="curve" smooth="yes"/>
      <point x="431" y="514"/>
      <point x="448" y="487"/>
      <point x="451" y="455" type="curve"/>
      <point x="401" y="455" type="line" smooth="yes"/>
      <point x="282" y="455"/>
      <point x="209" y="444"/>
      <point x="148" y="414" type="curve" smooth="yes"/>
      <point x="77" y="380"/>
      <point x="33" y="321"/>
      <point x="33" y="228" type="curve" smooth="yes"/>
      <point x="33" y="72"/>
      <point x="149" y="-11"/>
    </contour>
    <contour>
      <point x="450" y="-202" type="line"/>
      <point x="559" y="-202" type="line"/>
      <point x="559" y="398" type="line" smooth="yes"/>
      <point x="559" y="437"/>
      <point x="567" y="459"/>
      <point x="586" y="484" type="curve" smooth="yes"/>
      <point x="601" y="504"/>
      <point x="624" y="526"/>
      <point x="656" y="552" type="curve"/>
      <point x="566" y="613" type="line"/>
      <point x="504" y="553"/>
      <point x="460" y="468"/>
      <point x="450" y="393" type="curve"/>
    </contour>
    <contour>
      <point x="598" y="245" type="curve" smooth="yes"/>
      <point x="691" y="245"/>
      <point x="726" y="295"/>
      <point x="726" y="355" type="curve" smooth="yes"/>
      <point x="726" y="401"/>
      <point x="715" y="431"/>
      <point x="679" y="480" type="curve" smooth="yes"/>
      <point x="654" y="514"/>
      <point x="652" y="525"/>
      <point x="652" y="537" type="curve" smooth="yes"/>
      <point x="652" y="542"/>
      <point x="654" y="548"/>
      <point x="656" y="552" type="curve"/>
      <point x="568" y="518" type="line"/>
      <point x="568" y="489"/>
      <point x="571" y="462"/>
      <point x="599" y="425" type="curve" smooth="yes"/>
      <point x="615" y="404"/>
      <point x="622" y="391"/>
      <point x="622" y="376" type="curve" smooth="yes"/>
      <point x="622" y="355"/>
      <point x="610" y="343"/>
      <point x="583" y="343" type="curve" smooth="yes"/>
      <point x="555" y="343"/>
      <point x="534" y="352"/>
      <point x="500" y="371" type="curve"/>
      <point x="475" y="277" type="line"/>
      <point x="521" y="252"/>
      <point x="554" y="245"/>
    </contour>
  </outline>
</glyph>
<glyph name="isinh" format="2">
  <advance width="802"/>
  <unicode hex="0D89"/>
  <outline>
    <contour>
      <point x="298" y="67" type="curve" smooth="yes"/>
      <point x="456" y="67"/>
      <point x="543" y="141"/>
      <point x="543" y="279" type="curve" smooth="yes"/>
      <point x="543" y="393"/>
      <point x="467" y="449"/>
      <point x="382" y="449" type="curve" smooth="yes"/>
      <point x="274" y="449"/>
      <point x="235" y="384"/>
      <point x="235" y="327" type="curve" smooth="yes"/>
      <point x="235" y="261"/>
      <point x="280" y="208"/>
      <point x="365" y="208" type="curve" smooth="yes"/>
      <point x="425" y="208"/>
      <point x="458" y="237"/>
      <point x="483" y="262" type="curve"/>
      <point x="481" y="344" type="line"/>
      <point x="449" y="313"/>
      <point x="422" y="295"/>
      <point x="379" y="295" type="curve" smooth="yes"/>
      <point x="360" y="295"/>
      <point x="339" y="301"/>
      <point x="339" y="330" type="curve" smooth="yes"/>
      <point x="339" y="348"/>
      <point x="355" y="361"/>
      <point x="379" y="361" type="curve" smooth="yes"/>
      <point x="417" y="361"/>
      <point x="440" y="332"/>
      <point x="440" y="275" type="curve"/>
      <point x="442" y="265" type="line"/>
      <point x="433" y="186"/>
      <point x="358" y="172"/>
      <point x="303" y="172" type="curve" smooth="yes"/>
      <point x="211" y="172"/>
      <point x="142" y="214"/>
      <point x="142" y="318" type="curve" smooth="yes"/>
      <point x="142" y="445"/>
      <point x="252" y="501"/>
      <point x="399" y="501" type="curve" smooth="yes"/>
      <point x="581" y="501"/>
      <point x="657" y="400"/>
      <point x="657" y="296" type="curve" smooth="yes"/>
      <point x="657" y="163"/>
      <point x="575" y="114"/>
      <point x="434" y="100" type="curve"/>
      <point x="433" y="-5" type="line"/>
      <point x="646" y="5"/>
      <point x="770" y="104"/>
      <point x="770" y="299" type="curve" smooth="yes"/>
      <point x="770" y="485"/>
      <point x="641" y="612"/>
      <point x="402" y="612" type="curve" smooth="yes"/>
      <point x="195" y="612"/>
      <point x="31" y="517"/>
      <point x="31" y="320" type="curve" smooth="yes"/>
      <point x="31" y="158"/>
      <point x="126" y="67"/>
    </contour>
    <contour>
      <point x="396" y="-229" type="curve" smooth="yes"/>
      <point x="568" y="-229"/>
      <point x="622" y="-151"/>
      <point x="622" y="-50" type="curve" smooth="yes"/>
      <point x="622" y="-1"/>
      <point x="611" y="36"/>
      <point x="596" y="65" type="curve"/>
      <point x="500" y="62" type="line"/>
      <point x="482" y="45" type="line"/>
      <point x="498" y="21"/>
      <point x="509" y="-6"/>
      <point x="509" y="-38" type="curve" smooth="yes"/>
      <point x="509" y="-86"/>
      <point x="479" y="-123"/>
      <point x="396" y="-123" type="curve" smooth="yes"/>
      <point x="303" y="-123"/>
      <point x="292" y="-75"/>
      <point x="292" y="-33" type="curve" smooth="yes"/>
      <point x="292" y="-26"/>
      <point x="292" y="-15"/>
      <point x="294" y="-5" type="curve"/>
      <point x="186" y="0" type="line"/>
      <point x="183" y="-13"/>
      <point x="181" y="-27"/>
      <point x="181" y="-45" type="curve" smooth="yes"/>
      <point x="181" y="-135"/>
      <point x="227" y="-229"/>
    </contour>
  </outline>
</glyph>
<glyph name="iisinh" format="2">
  <advance width="724"/>
  <unicode hex="0D8A"/>
  <outline>
    <contour>
      <point x="355" y="-11" type="curve" smooth="yes"/>
      <point x="571" y="-11"/>
      <point x="691" y="93"/>
      <point x="691" y="290" type="curve" smooth="yes"/>
      <point x="691" y="468"/>
      <point x="575" y="567"/>
      <point x="403" y="567" type="curve" smooth="yes"/>
      <point x="368" y="567"/>
      <point x="328" y="564"/>
      <point x="306" y="555" type="curve"/>
      <point x="210" y="453" type="line"/>
      <point x="258" y="471"/>
      <point x="299" y="478"/>
      <point x="361" y="478" type="curve" smooth="yes"/>
      <point x="500" y="478"/>
      <point x="581" y="412"/>
      <point x="581" y="300" type="curve" smooth="yes"/>
      <point x="581" y="194"/>
      <point x="506" y="125"/>
      <point x="355" y="125" type="curve" smooth="yes"/>
      <point x="214" y="125"/>
      <point x="145" y="194"/>
      <point x="145" y="293" type="curve" smooth="yes"/>
      <point x="145" y="392"/>
      <point x="195" y="458"/>
      <point x="341" y="511" type="curve"/>
      <point x="387" y="549" type="line"/>
      <point x="465" y="586"/>
      <point x="526" y="660"/>
      <point x="590" y="751" type="curve"/>
      <point x="490" y="810" type="line"/>
      <point x="421" y="701"/>
      <point x="359" y="631"/>
      <point x="289" y="587" type="curve"/>
      <point x="110" y="515"/>
      <point x="34" y="427"/>
      <point x="34" y="278" type="curve" smooth="yes"/>
      <point x="34" y="93"/>
      <point x="160" y="-11"/>
    </contour>
    <contour>
      <point x="345" y="708" type="curve" smooth="yes"/>
      <point x="345" y="767"/>
      <point x="304" y="805"/>
      <point x="240" y="805" type="curve" smooth="yes"/>
      <point x="177" y="805"/>
      <point x="137" y="762"/>
      <point x="137" y="706" type="curve" smooth="yes"/>
      <point x="137" y="651"/>
      <point x="172" y="608"/>
      <point x="242" y="608" type="curve" smooth="yes"/>
      <point x="304" y="608"/>
      <point x="345" y="646"/>
    </contour>
    <contour>
      <point x="273" y="708" type="curve" smooth="yes"/>
      <point x="273" y="687"/>
      <point x="259" y="676"/>
      <point x="240" y="676" type="curve" smooth="yes"/>
      <point x="218" y="676"/>
      <point x="209" y="691"/>
      <point x="209" y="705" type="curve" smooth="yes"/>
      <point x="209" y="726"/>
      <point x="222" y="737"/>
      <point x="241" y="737" type="curve" smooth="yes"/>
      <point x="262" y="737"/>
      <point x="273" y="724"/>
    </contour>
    <contour>
      <point x="747" y="620" type="curve" smooth="yes"/>
      <point x="747" y="678"/>
      <point x="706" y="717"/>
      <point x="642" y="717" type="curve" smooth="yes"/>
      <point x="579" y="717"/>
      <point x="539" y="674"/>
      <point x="539" y="617" type="curve" smooth="yes"/>
      <point x="539" y="563"/>
      <point x="574" y="520"/>
      <point x="643" y="520" type="curve" smooth="yes"/>
      <point x="706" y="520"/>
      <point x="747" y="558"/>
    </contour>
    <contour>
      <point x="675" y="619" type="curve" smooth="yes"/>
      <point x="675" y="599"/>
      <point x="661" y="588"/>
      <point x="642" y="588" type="curve" smooth="yes"/>
      <point x="620" y="588"/>
      <point x="611" y="603"/>
      <point x="611" y="616" type="curve" smooth="yes"/>
      <point x="611" y="637"/>
      <point x="624" y="648"/>
      <point x="643" y="648" type="curve" smooth="yes"/>
      <point x="664" y="648"/>
      <point x="675" y="635"/>
    </contour>
  </outline>
</glyph>
<glyph name="usinh" format="2">
  <advance width="745"/>
  <unicode hex="0D8B"/>
  <outline>
    <contour>
      <point x="389" y="-231" type="curve" smooth="yes"/>
      <point x="591" y="-231"/>
      <point x="744" y="-138"/>
      <point x="744" y="43" type="curve" smooth="yes"/>
      <point x="744" y="57"/>
      <point x="744" y="67"/>
      <point x="741" y="81" type="curve"/>
      <point x="632" y="77" type="line"/>
      <point x="633" y="68"/>
      <point x="633" y="59"/>
      <point x="633" y="54" type="curve" smooth="yes"/>
      <point x="633" y="-65"/>
      <point x="531" y="-117"/>
      <point x="404" y="-117" type="curve" smooth="yes"/>
      <point x="240" y="-117"/>
      <point x="162" y="-33"/>
      <point x="162" y="104" type="curve" smooth="yes"/>
      <point x="162" y="188"/>
      <point x="186" y="238"/>
      <point x="233" y="278" type="curve" smooth="yes"/>
      <point x="296" y="333"/>
      <point x="393" y="355"/>
      <point x="569" y="355" type="curve" smooth="yes"/>
      <point x="694" y="355" type="line"/>
      <point x="694" y="389" type="line" smooth="yes"/>
      <point x="694" y="534"/>
      <point x="634" y="612"/>
      <point x="500" y="612" type="curve" smooth="yes"/>
      <point x="399" y="612"/>
      <point x="339" y="572"/>
      <point x="339" y="494" type="curve" smooth="yes"/>
      <point x="339" y="486"/>
      <point x="340" y="469"/>
      <point x="341" y="461" type="curve"/>
      <point x="452" y="470" type="line"/>
      <point x="452" y="472"/>
      <point x="452" y="473"/>
      <point x="452" y="475" type="curve"/>
      <point x="452" y="500"/>
      <point x="469" y="514"/>
      <point x="504" y="514" type="curve" smooth="yes"/>
      <point x="558" y="514"/>
      <point x="578" y="487"/>
      <point x="581" y="455" type="curve"/>
      <point x="552" y="455" type="line" smooth="yes"/>
      <point x="361" y="455"/>
      <point x="238" y="427"/>
      <point x="151" y="362" type="curve" smooth="yes"/>
      <point x="72" y="303"/>
      <point x="25" y="215"/>
      <point x="25" y="101" type="curve" smooth="yes"/>
      <point x="25" y="-76"/>
      <point x="128" y="-231"/>
    </contour>
  </outline>
</glyph>
<glyph name="lvocalicsinh" format="2">
  <advance width="1152"/>
  <unicode hex="0D8F"/>
  <outline>
    <contour>
      <point x="575" y="-11" type="curve" smooth="yes"/>
      <point x="842" y="-11"/>
      <point x="954" y="87"/>
      <point x="954" y="247" type="curve" smooth="yes"/>
      <point x="954" y="384"/>
      <point x="870" y="455"/>
      <point x="699" y="455" type="curve" smooth="yes"/>
      <point x="696" y="455" type="line"/>
      <point x="703" y="452" type="line"/>
      <point x="706" y="487"/>
      <point x="725" y="514"/>
      <point x="768" y="514" type="curve" smooth="yes"/>
      <point x="802" y="514"/>
      <point x="817" y="500"/>
      <point x="817" y="475" type="curve" smooth="yes"/>
      <point x="817" y="470"/>
      <point x="817" y="464"/>
      <point x="816" y="459" type="curve"/>
      <point x="919" y="449" type="line"/>
      <point x="923" y="466"/>
      <point x="925" y="484"/>
      <point x="925" y="494" type="curve" smooth="yes"/>
      <point x="925" y="573"/>
      <point x="872" y="612"/>
      <point x="777" y="612" type="curve" smooth="yes"/>
      <point x="647" y="612"/>
      <point x="591" y="526"/>
      <point x="591" y="397" type="curve" smooth="yes"/>
      <point x="591" y="357" type="line"/>
      <point x="658" y="357" type="line" smooth="yes"/>
      <point x="728" y="357"/>
      <point x="770" y="352"/>
      <point x="798" y="337" type="curve" smooth="yes"/>
      <point x="829" y="321"/>
      <point x="844" y="295"/>
      <point x="844" y="256" type="curve" smooth="yes"/>
      <point x="844" y="179"/>
      <point x="769" y="125"/>
      <point x="575" y="125" type="curve" smooth="yes"/>
      <point x="378" y="125"/>
      <point x="308" y="180"/>
      <point x="308" y="256" type="curve" smooth="yes"/>
      <point x="308" y="293"/>
      <point x="321" y="318"/>
      <point x="348" y="334" type="curve" smooth="yes"/>
      <point x="377" y="351"/>
      <point x="422" y="357"/>
      <point x="498" y="357" type="curve" smooth="yes"/>
      <point x="561" y="357" type="line"/>
      <point x="561" y="396" type="line" smooth="yes"/>
      <point x="561" y="526"/>
      <point x="505" y="612"/>
      <point x="376" y="612" type="curve" smooth="yes"/>
      <point x="280" y="612"/>
      <point x="228" y="573"/>
      <point x="228" y="494" type="curve" smooth="yes"/>
      <point x="228" y="484"/>
      <point x="229" y="465"/>
      <point x="232" y="449" type="curve"/>
      <point x="336" y="459" type="line"/>
      <point x="335" y="464"/>
      <point x="335" y="470"/>
      <point x="335" y="475" type="curve" smooth="yes"/>
      <point x="335" y="500"/>
      <point x="351" y="514"/>
      <point x="386" y="514" type="curve" smooth="yes"/>
      <point x="429" y="514"/>
      <point x="447" y="487"/>
      <point x="449" y="452" type="curve"/>
      <point x="462" y="455" type="line"/>
      <point x="457" y="455" type="line" smooth="yes"/>
      <point x="280" y="455"/>
      <point x="198" y="383"/>
      <point x="198" y="247" type="curve" smooth="yes"/>
      <point x="198" y="91"/>
      <point x="308" y="-11"/>
    </contour>
    <contour>
      <point x="33" y="315" type="curve" smooth="yes"/>
      <point x="33" y="221"/>
      <point x="62" y="140"/>
      <point x="98" y="83" type="curve"/>
      <point x="191" y="129" type="line"/>
      <point x="161" y="177"/>
      <point x="143" y="230"/>
      <point x="143" y="296" type="curve" smooth="yes"/>
      <point x="143" y="408"/>
      <point x="188" y="475"/>
      <point x="275" y="506" type="curve" smooth="yes"/>
      <point x="305" y="517"/>
      <point x="340" y="519"/>
      <point x="380" y="519" type="curve" smooth="yes"/>
      <point x="391" y="519"/>
      <point x="409" y="517"/>
      <point x="417" y="517" type="curve"/>
      <point x="461" y="576" type="line"/>
      <point x="424" y="597"/>
      <point x="394" y="612"/>
      <point x="337" y="612" type="curve" smooth="yes"/>
      <point x="170" y="612"/>
      <point x="33" y="513"/>
    </contour>
    <contour>
      <point x="1119" y="315" type="curve" smooth="yes"/>
      <point x="1119" y="513"/>
      <point x="978" y="612"/>
      <point x="820" y="612" type="curve" smooth="yes"/>
      <point x="758" y="612"/>
      <point x="728" y="597"/>
      <point x="690" y="576" type="curve"/>
      <point x="734" y="517" type="line"/>
      <point x="742" y="517"/>
      <point x="761" y="519"/>
      <point x="771" y="519" type="curve" smooth="yes"/>
      <point x="812" y="519"/>
      <point x="847" y="517"/>
      <point x="877" y="506" type="curve" smooth="yes"/>
      <point x="963" y="475"/>
      <point x="1009" y="408"/>
      <point x="1009" y="296" type="curve" smooth="yes"/>
      <point x="1009" y="230"/>
      <point x="991" y="177"/>
      <point x="961" y="129" type="curve"/>
      <point x="1054" y="83" type="line"/>
      <point x="1089" y="140"/>
      <point x="1119" y="221"/>
    </contour>
  </outline>
</glyph>
<glyph name="esinh" format="2">
  <advance width="862"/>
  <unicode hex="0D91"/>
  <outline>
    <contour>
      <point x="392" y="-11" type="curve" smooth="yes"/>
      <point x="716" y="-11"/>
      <point x="829" y="183"/>
      <point x="829" y="408" type="curve" smooth="yes"/>
      <point x="829" y="660"/>
      <point x="656" y="786"/>
      <point x="466" y="854" type="curve"/>
      <point x="418" y="757" type="line"/>
      <point x="436" y="751"/>
      <point x="454" y="748"/>
      <point x="471" y="741" type="curve"/>
      <point x="615" y="682"/>
      <point x="715" y="587"/>
      <point x="715" y="406" type="curve" smooth="yes"/>
      <point x="715" y="255"/>
      <point x="625" y="125"/>
      <point x="386" y="125" type="curve" smooth="yes"/>
      <point x="239" y="125"/>
      <point x="173" y="175"/>
      <point x="173" y="245" type="curve" smooth="yes"/>
      <point x="173" y="283"/>
      <point x="184" y="313"/>
      <point x="214" y="332" type="curve" smooth="yes"/>
      <point x="243" y="350"/>
      <point x="276" y="357"/>
      <point x="371" y="357" type="curve" smooth="yes"/>
      <point x="482" y="357" type="line"/>
      <point x="482" y="390" type="line" smooth="yes"/>
      <point x="482" y="529"/>
      <point x="427" y="612"/>
      <point x="297" y="612" type="curve" smooth="yes"/>
      <point x="201" y="612"/>
      <point x="143" y="574"/>
      <point x="143" y="498" type="curve" smooth="yes"/>
      <point x="143" y="491"/>
      <point x="145" y="479"/>
      <point x="146" y="472" type="curve"/>
      <point x="256" y="475" type="line"/>
      <point x="256" y="477"/>
      <point x="256" y="478"/>
      <point x="256" y="480" type="curve"/>
      <point x="256" y="502"/>
      <point x="271" y="514"/>
      <point x="305" y="514" type="curve" smooth="yes"/>
      <point x="350" y="514"/>
      <point x="366" y="487"/>
      <point x="369" y="455" type="curve"/>
      <point x="28" y="455" type="line"/>
      <point x="28" y="357" type="line"/>
      <point x="49" y="357" type="line" smooth="yes"/>
      <point x="87" y="357"/>
      <point x="135" y="358"/>
      <point x="178" y="368" type="curve"/>
      <point x="179" y="402" type="line"/>
      <point x="111" y="367"/>
      <point x="62" y="323"/>
      <point x="62" y="232" type="curve" smooth="yes"/>
      <point x="62" y="82"/>
      <point x="175" y="-11"/>
    </contour>
    <contour>
      <point x="575" y="505" type="curve" smooth="yes"/>
      <point x="652" y="505"/>
      <point x="700" y="542"/>
      <point x="745" y="600" type="curve"/>
      <point x="663" y="660" type="line"/>
      <point x="646" y="625"/>
      <point x="627" y="604"/>
      <point x="595" y="604" type="curve" smooth="yes"/>
      <point x="567" y="604"/>
      <point x="549" y="615"/>
      <point x="546" y="664" type="curve" smooth="yes"/>
      <point x="544" y="707"/>
      <point x="528" y="750"/>
      <point x="479" y="762" type="curve"/>
      <point x="418" y="757" type="line"/>
      <point x="437" y="750"/>
      <point x="442" y="729"/>
      <point x="442" y="669" type="curve" smooth="yes"/>
      <point x="442" y="557"/>
      <point x="485" y="505"/>
    </contour>
  </outline>
</glyph>
<glyph name="eesinh" format="2">
  <advance width="862"/>
  <unicode hex="0D92"/>
  <outline>
    <contour>
      <point x="717" y="644" type="line"/>
      <point x="717" y="847" type="line"/>
      <point x="685" y="902" type="line"/>
      <point x="677" y="946"/>
      <point x="654" y="968"/>
      <point x="605" y="979" type="curve"/>
      <point x="567" y="894" type="line"/>
      <point x="585" y="887"/>
      <point x="602" y="876"/>
      <point x="610" y="864" type="curve" smooth="yes"/>
      <point x="616" y="854"/>
      <point x="619" y="842"/>
      <point x="619" y="816" type="curve" smooth="yes"/>
      <point x="619" y="804" type="line" smooth="yes"/>
      <point x="619" y="789"/>
      <point x="620" y="746"/>
      <point x="623" y="722" type="curve"/>
    </contour>
    <contour>
      <point x="744" y="773" type="curve" smooth="yes"/>
      <point x="815" y="773"/>
      <point x="862" y="799"/>
      <point x="862" y="877" type="curve" smooth="yes"/>
      <point x="862" y="940"/>
      <point x="825" y="979"/>
      <point x="766" y="979" type="curve" smooth="yes"/>
      <point x="708" y="979"/>
      <point x="675" y="944"/>
      <point x="663" y="891" type="curve"/>
      <point x="717" y="834" type="line"/>
      <point x="717" y="857" type="line" smooth="yes"/>
      <point x="717" y="886"/>
      <point x="726" y="903"/>
      <point x="754" y="903" type="curve" smooth="yes"/>
      <point x="766" y="903"/>
      <point x="783" y="897"/>
      <point x="783" y="878" type="curve" smooth="yes"/>
      <point x="783" y="856"/>
      <point x="769" y="849"/>
      <point x="739" y="849" type="curve" smooth="yes"/>
      <point x="712" y="849"/>
      <point x="690" y="858"/>
      <point x="665" y="869" type="curve"/>
      <point x="646" y="796" type="line"/>
      <point x="678" y="783"/>
      <point x="709" y="773"/>
    </contour>
    <component base="esinh"/>
  </outline>
</glyph>
<glyph name="osinh" format="2">
  <advance width="904"/>
  <unicode hex="0D94"/>
  <outline>
    <contour>
      <point x="617" y="-11" type="curve" smooth="yes"/>
      <point x="757" y="-11"/>
      <point x="866" y="99"/>
      <point x="866" y="349" type="curve" smooth="yes"/>
      <point x="866" y="669"/>
      <point x="700" y="836"/>
      <point x="431" y="836" type="curve" smooth="yes"/>
      <point x="273" y="836"/>
      <point x="160" y="801"/>
      <point x="59" y="749" type="curve"/>
      <point x="105" y="648" type="line"/>
      <point x="190" y="696"/>
      <point x="282" y="728"/>
      <point x="421" y="728" type="curve" smooth="yes"/>
      <point x="643" y="728"/>
      <point x="752" y="582"/>
      <point x="752" y="352" type="curve" smooth="yes"/>
      <point x="752" y="201"/>
      <point x="697" y="121"/>
      <point x="601" y="121" type="curve" smooth="yes"/>
      <point x="534" y="121"/>
      <point x="504" y="144"/>
      <point x="484" y="185" type="curve"/>
      <point x="382" y="185" type="line"/>
      <point x="363" y="151"/>
      <point x="333" y="121"/>
      <point x="267" y="121" type="curve" smooth="yes"/>
      <point x="193" y="121"/>
      <point x="145" y="163"/>
      <point x="145" y="293" type="curve" smooth="yes"/>
      <point x="145" y="392"/>
      <point x="179" y="473"/>
      <point x="224" y="473" type="curve" smooth="yes"/>
      <point x="240" y="473"/>
      <point x="247" y="465"/>
      <point x="247" y="444" type="curve" smooth="yes"/>
      <point x="247" y="421"/>
      <point x="233" y="389"/>
      <point x="233" y="353" type="curve" smooth="yes"/>
      <point x="233" y="278"/>
      <point x="278" y="196"/>
      <point x="442" y="196" type="curve" smooth="yes"/>
      <point x="567" y="196"/>
      <point x="659" y="254"/>
      <point x="659" y="393" type="curve" smooth="yes"/>
      <point x="659" y="507"/>
      <point x="594" y="576"/>
      <point x="498" y="576" type="curve" smooth="yes"/>
      <point x="408" y="576"/>
      <point x="355" y="523"/>
      <point x="355" y="450" type="curve" smooth="yes"/>
      <point x="355" y="378"/>
      <point x="396" y="328"/>
      <point x="480" y="328" type="curve" smooth="yes"/>
      <point x="539" y="328"/>
      <point x="572" y="357"/>
      <point x="593" y="384" type="curve"/>
      <point x="562" y="436" type="line"/>
      <point x="532" y="420"/>
      <point x="516" y="416"/>
      <point x="495" y="416" type="curve" smooth="yes"/>
      <point x="472" y="416"/>
      <point x="455" y="428"/>
      <point x="455" y="451" type="curve" smooth="yes"/>
      <point x="455" y="469"/>
      <point x="471" y="483"/>
      <point x="495" y="483" type="curve" smooth="yes"/>
      <point x="534" y="483"/>
      <point x="553" y="447"/>
      <point x="553" y="384" type="curve" smooth="yes"/>
      <point x="553" y="322"/>
      <point x="517" y="287"/>
      <point x="437" y="287" type="curve" smooth="yes"/>
      <point x="371" y="287"/>
      <point x="339" y="319"/>
      <point x="339" y="372" type="curve" smooth="yes"/>
      <point x="339" y="402"/>
      <point x="353" y="442"/>
      <point x="353" y="480" type="curve" smooth="yes"/>
      <point x="353" y="519"/>
      <point x="330" y="576"/>
      <point x="245" y="576" type="curve" smooth="yes"/>
      <point x="100" y="576"/>
      <point x="37" y="439"/>
      <point x="37" y="276" type="curve" smooth="yes"/>
      <point x="37" y="98"/>
      <point x="108" y="-11"/>
      <point x="255" y="-11" type="curve" smooth="yes"/>
      <point x="342" y="-11"/>
      <point x="392" y="18"/>
      <point x="434" y="72" type="curve"/>
      <point x="475" y="21"/>
      <point x="520" y="-11"/>
    </contour>
  </outline>
</glyph>
<glyph name="oosinh" format="2">
  <advance width="904"/>
  <unicode hex="0D95"/>
  <outline>
    <contour>
      <point x="622" y="-11" type="curve" smooth="yes"/>
      <point x="763" y="-11"/>
      <point x="866" y="90"/>
      <point x="866" y="330" type="curve" smooth="yes"/>
      <point x="866" y="625"/>
      <point x="703" y="768"/>
      <point x="404" y="768" type="curve" smooth="yes"/>
      <point x="278" y="768"/>
      <point x="162" y="750"/>
      <point x="57" y="718" type="curve"/>
      <point x="84" y="615" type="line"/>
      <point x="185" y="646"/>
      <point x="281" y="660"/>
      <point x="400" y="660" type="curve" smooth="yes"/>
      <point x="646" y="660"/>
      <point x="753" y="536"/>
      <point x="753" y="336" type="curve" smooth="yes"/>
      <point x="753" y="192"/>
      <point x="700" y="121"/>
      <point x="605" y="121" type="curve" smooth="yes"/>
      <point x="534" y="121"/>
      <point x="504" y="144"/>
      <point x="484" y="185" type="curve"/>
      <point x="382" y="185" type="line"/>
      <point x="363" y="151"/>
      <point x="333" y="121"/>
      <point x="267" y="121" type="curve" smooth="yes"/>
      <point x="193" y="121"/>
      <point x="145" y="163"/>
      <point x="145" y="293" type="curve" smooth="yes"/>
      <point x="145" y="392"/>
      <point x="179" y="473"/>
      <point x="224" y="473" type="curve" smooth="yes"/>
      <point x="240" y="473"/>
      <point x="247" y="465"/>
      <point x="247" y="444" type="curve" smooth="yes"/>
      <point x="247" y="421"/>
      <point x="233" y="389"/>
      <point x="233" y="353" type="curve" smooth="yes"/>
      <point x="233" y="278"/>
      <point x="278" y="196"/>
      <point x="442" y="196" type="curve" smooth="yes"/>
      <point x="567" y="196"/>
      <point x="659" y="254"/>
      <point x="659" y="393" type="curve" smooth="yes"/>
      <point x="659" y="507"/>
      <point x="594" y="576"/>
      <point x="498" y="576" type="curve" smooth="yes"/>
      <point x="408" y="576"/>
      <point x="355" y="523"/>
      <point x="355" y="450" type="curve" smooth="yes"/>
      <point x="355" y="378"/>
      <point x="396" y="328"/>
      <point x="480" y="328" type="curve" smooth="yes"/>
      <point x="539" y="328"/>
      <point x="572" y="357"/>
      <point x="593" y="384" type="curve"/>
      <point x="562" y="436" type="line"/>
      <point x="532" y="420"/>
      <point x="516" y="416"/>
      <point x="495" y="416" type="curve" smooth="yes"/>
      <point x="472" y="416"/>
      <point x="455" y="428"/>
      <point x="455" y="451" type="curve" smooth="yes"/>
      <point x="455" y="469"/>
      <point x="471" y="483"/>
      <point x="495" y="483" type="curve" smooth="yes"/>
      <point x="534" y="483"/>
      <point x="553" y="447"/>
      <point x="553" y="384" type="curve" smooth="yes"/>
      <point x="553" y="322"/>
      <point x="517" y="287"/>
      <point x="437" y="287" type="curve" smooth="yes"/>
      <point x="371" y="287"/>
      <point x="339" y="319"/>
      <point x="339" y="372" type="curve" smooth="yes"/>
      <point x="339" y="402"/>
      <point x="353" y="442"/>
      <point x="353" y="480" type="curve" smooth="yes"/>
      <point x="353" y="519"/>
      <point x="330" y="576"/>
      <point x="245" y="576" type="curve" smooth="yes"/>
      <point x="100" y="576"/>
      <point x="37" y="439"/>
      <point x="37" y="276" type="curve" smooth="yes"/>
      <point x="37" y="98"/>
      <point x="108" y="-11"/>
      <point x="255" y="-11" type="curve" smooth="yes"/>
      <point x="342" y="-11"/>
      <point x="392" y="18"/>
      <point x="434" y="72" type="curve"/>
      <point x="475" y="21"/>
      <point x="520" y="-11"/>
    </contour>
    <contour>
      <point x="439" y="974" type="curve" smooth="yes"/>
      <point x="172" y="974"/>
      <point x="112" y="870"/>
      <point x="112" y="780" type="curve" smooth="yes"/>
      <point x="112" y="759"/>
      <point x="117" y="729"/>
      <point x="123" y="710" type="curve"/>
      <point x="231" y="722" type="line"/>
      <point x="228" y="731"/>
      <point x="222" y="750"/>
      <point x="222" y="768" type="curve" smooth="yes"/>
      <point x="222" y="815"/>
      <point x="252" y="856"/>
      <point x="438" y="856" type="curve" smooth="yes"/>
      <point x="646" y="856"/>
      <point x="687" y="812"/>
      <point x="687" y="757" type="curve" smooth="yes"/>
      <point x="687" y="742"/>
      <point x="684" y="729"/>
      <point x="681" y="719" type="curve"/>
      <point x="785" y="698" type="line"/>
      <point x="792" y="719"/>
      <point x="797" y="755"/>
      <point x="797" y="779" type="curve" smooth="yes"/>
      <point x="797" y="868"/>
      <point x="740" y="974"/>
    </contour>
  </outline>
</glyph>
<glyph name="khasinh" format="2">
  <advance width="923"/>
  <unicode hex="0D9B"/>
  <outline>
    <contour>
      <point x="264" y="-11" type="curve" smooth="yes"/>
      <point x="372" y="-11"/>
      <point x="422" y="40"/>
      <point x="422" y="122" type="curve" smooth="yes"/>
      <point x="422" y="195"/>
      <point x="382" y="256"/>
      <point x="280" y="256" type="curve" smooth="yes"/>
      <point x="216" y="256"/>
      <point x="162" y="226"/>
      <point x="123" y="185" type="curve"/>
      <point x="159" y="109" type="line"/>
      <point x="190" y="142"/>
      <point x="223" y="162"/>
      <point x="263" y="162" type="curve" smooth="yes"/>
      <point x="296" y="162"/>
      <point x="312" y="146"/>
      <point x="312" y="124" type="curve" smooth="yes"/>
      <point x="312" y="96"/>
      <point x="291" y="85"/>
      <point x="260" y="85" type="curve" smooth="yes"/>
      <point x="215" y="85"/>
      <point x="177" y="104"/>
      <point x="155" y="158" type="curve" smooth="yes"/>
      <point x="145" y="181"/>
      <point x="139" y="209"/>
      <point x="139" y="229" type="curve" smooth="yes"/>
      <point x="139" y="355"/>
      <point x="211" y="441"/>
      <point x="340" y="441" type="curve" smooth="yes"/>
      <point x="450" y="441"/>
      <point x="507" y="374"/>
      <point x="507" y="272" type="curve" smooth="yes"/>
      <point x="507" y="204"/>
      <point x="471" y="125"/>
      <point x="409" y="56" type="curve"/>
      <point x="499" y="-11" type="line"/>
      <point x="565" y="70"/>
      <point x="626" y="184"/>
      <point x="626" y="312" type="curve" smooth="yes"/>
      <point x="626" y="463"/>
      <point x="528" y="567"/>
      <point x="353" y="567" type="curve" smooth="yes"/>
      <point x="138" y="567"/>
      <point x="33" y="421"/>
      <point x="33" y="249" type="curve" smooth="yes"/>
      <point x="33" y="86"/>
      <point x="118" y="-11"/>
    </contour>
    <contour>
      <point x="674" y="-11" type="curve" smooth="yes"/>
      <point x="789" y="-11"/>
      <point x="883" y="81"/>
      <point x="883" y="349" type="curve" smooth="yes"/>
      <point x="883" y="689"/>
      <point x="702" y="836"/>
      <point x="423" y="836" type="curve" smooth="yes"/>
      <point x="279" y="836"/>
      <point x="188" y="812"/>
      <point x="57" y="749" type="curve"/>
      <point x="104" y="648" type="line"/>
      <point x="197" y="700"/>
      <point x="296" y="728"/>
      <point x="420" y="728" type="curve" smooth="yes"/>
      <point x="649" y="728"/>
      <point x="769" y="595"/>
      <point x="769" y="347" type="curve" smooth="yes"/>
      <point x="769" y="176"/>
      <point x="726" y="121"/>
      <point x="678" y="121" type="curve" smooth="yes"/>
      <point x="646" y="121"/>
      <point x="638" y="139"/>
      <point x="636" y="187" type="curve"/>
      <point x="542" y="185" type="line"/>
      <point x="538" y="151" type="line"/>
      <point x="544" y="63"/>
      <point x="568" y="-11"/>
    </contour>
  </outline>
</glyph>
<glyph name="ghasinh" format="2">
  <advance width="871"/>
  <unicode hex="0D9D"/>
  <outline>
    <contour>
      <point x="287" y="-11" type="curve" smooth="yes"/>
      <point x="320" y="-11"/>
      <point x="359" y="-6"/>
      <point x="398" y="3" type="curve"/>
      <point x="346" y="125" type="line"/>
      <point x="320" y="119"/>
      <point x="298" y="116"/>
      <point x="271" y="116" type="curve" smooth="yes"/>
      <point x="197" y="116"/>
      <point x="156" y="158"/>
      <point x="156" y="226" type="curve" smooth="yes"/>
      <point x="156" y="264"/>
      <point x="172" y="298"/>
      <point x="205" y="320" type="curve" smooth="yes"/>
      <point x="243" y="346"/>
      <point x="288" y="357"/>
      <point x="391" y="357" type="curve" smooth="yes"/>
      <point x="429" y="357" type="line"/>
      <point x="429" y="396" type="line" smooth="yes"/>
      <point x="429" y="526"/>
      <point x="373" y="612"/>
      <point x="244" y="612" type="curve" smooth="yes"/>
      <point x="148" y="612"/>
      <point x="90" y="574"/>
      <point x="90" y="498" type="curve" smooth="yes"/>
      <point x="90" y="491"/>
      <point x="91" y="479"/>
      <point x="92" y="472" type="curve"/>
      <point x="203" y="475" type="line"/>
      <point x="203" y="477"/>
      <point x="203" y="478"/>
      <point x="203" y="480" type="curve"/>
      <point x="203" y="502"/>
      <point x="220" y="514"/>
      <point x="254" y="514" type="curve" smooth="yes"/>
      <point x="296" y="514"/>
      <point x="314" y="487"/>
      <point x="317" y="455" type="curve"/>
      <point x="28" y="455" type="line"/>
      <point x="28" y="357" type="line"/>
      <point x="51" y="357" type="line" smooth="yes"/>
      <point x="97" y="357"/>
      <point x="152" y="364"/>
      <point x="185" y="369" type="curve"/>
      <point x="150" y="380" type="line"/>
      <point x="79" y="345"/>
      <point x="46" y="276"/>
      <point x="46" y="205" type="curve" smooth="yes"/>
      <point x="46" y="67"/>
      <point x="130" y="-11"/>
    </contour>
    <contour>
      <point x="597" y="-11" type="curve" smooth="yes"/>
      <point x="747" y="-11"/>
      <point x="838" y="60"/>
      <point x="838" y="215" type="curve" smooth="yes"/>
      <point x="838" y="408"/>
      <point x="684" y="455"/>
      <point x="560" y="455" type="curve"/>
      <point x="554" y="455" type="line"/>
      <point x="571" y="452" type="line"/>
      <point x="574" y="487"/>
      <point x="593" y="514"/>
      <point x="636" y="514" type="curve" smooth="yes"/>
      <point x="670" y="514"/>
      <point x="685" y="500"/>
      <point x="685" y="475" type="curve" smooth="yes"/>
      <point x="685" y="470"/>
      <point x="685" y="464"/>
      <point x="684" y="459" type="curve"/>
      <point x="792" y="449" type="line"/>
      <point x="795" y="466"/>
      <point x="797" y="484"/>
      <point x="797" y="494" type="curve" smooth="yes"/>
      <point x="797" y="575"/>
      <point x="739" y="612"/>
      <point x="645" y="612" type="curve" smooth="yes"/>
      <point x="515" y="612"/>
      <point x="459" y="526"/>
      <point x="459" y="397" type="curve" smooth="yes"/>
      <point x="459" y="357" type="line"/>
      <point x="508" y="357" type="line" smooth="yes"/>
      <point x="573" y="357"/>
      <point x="619" y="352"/>
      <point x="653" y="338" type="curve" smooth="yes"/>
      <point x="705" y="316"/>
      <point x="727" y="274"/>
      <point x="727" y="221" type="curve" smooth="yes"/>
      <point x="727" y="161"/>
      <point x="688" y="116"/>
      <point x="615" y="116" type="curve" smooth="yes"/>
      <point x="592" y="116"/>
      <point x="568" y="118"/>
      <point x="537" y="125" type="curve"/>
      <point x="484" y="3" type="line"/>
      <point x="522" y="-6"/>
      <point x="574" y="-11"/>
    </contour>
    <contour>
      <point x="444" y="170" type="curve" smooth="yes"/>
      <point x="479" y="170"/>
      <point x="504" y="162"/>
      <point x="504" y="142" type="curve" smooth="yes"/>
      <point x="504" y="128"/>
      <point x="497" y="119"/>
      <point x="472" y="114" type="curve"/>
      <point x="484" y="3" type="line"/>
      <point x="539" y="75" type="line"/>
      <point x="584" y="92"/>
      <point x="609" y="127"/>
      <point x="609" y="172" type="curve" smooth="yes"/>
      <point x="609" y="234"/>
      <point x="544" y="273"/>
      <point x="453" y="273" type="curve" smooth="yes"/>
      <point x="432" y="273" type="line" smooth="yes"/>
      <point x="339" y="273"/>
      <point x="274" y="234"/>
      <point x="274" y="172" type="curve" smooth="yes"/>
      <point x="274" y="126"/>
      <point x="299" y="92"/>
      <point x="344" y="75" type="curve"/>
      <point x="398" y="3" type="line"/>
      <point x="411" y="114" type="line"/>
      <point x="385" y="118"/>
      <point x="379" y="129"/>
      <point x="379" y="141" type="curve" smooth="yes"/>
      <point x="379" y="162"/>
      <point x="404" y="170"/>
    </contour>
  </outline>
</glyph>
<glyph name="ngasinh" format="2">
  <advance width="937"/>
  <unicode hex="0D9E"/>
  <outline>
    <contour>
      <point x="656" y="-11" type="curve" smooth="yes"/>
      <point x="792" y="-11"/>
      <point x="898" y="84"/>
      <point x="898" y="350" type="curve" smooth="yes"/>
      <point x="898" y="672"/>
      <point x="731" y="836"/>
      <point x="460" y="836" type="curve" smooth="yes"/>
      <point x="306" y="836"/>
      <point x="188" y="801"/>
      <point x="86" y="749" type="curve"/>
      <point x="134" y="648" type="line"/>
      <point x="219" y="696"/>
      <point x="311" y="728"/>
      <point x="453" y="728" type="curve" smooth="yes"/>
      <point x="674" y="728"/>
      <point x="785" y="584"/>
      <point x="785" y="352" type="curve" smooth="yes"/>
      <point x="785" y="187"/>
      <point x="731" y="121"/>
      <point x="640" y="121" type="curve" smooth="yes"/>
      <point x="562" y="121"/>
      <point x="525" y="163"/>
      <point x="525" y="233" type="curve" smooth="yes"/>
      <point x="525" y="241" type="line"/>
      <point x="420" y="241" type="line"/>
      <point x="420" y="233" type="line" smooth="yes"/>
      <point x="420" y="159"/>
      <point x="375" y="121"/>
      <point x="295" y="121" type="curve" smooth="yes"/>
      <point x="229" y="121"/>
      <point x="196" y="147"/>
      <point x="196" y="196" type="curve" smooth="yes"/>
      <point x="196" y="257"/>
      <point x="246" y="281"/>
      <point x="330" y="303" type="curve" smooth="yes"/>
      <point x="354" y="309" type="line" smooth="yes"/>
      <point x="460" y="336"/>
      <point x="522" y="365"/>
      <point x="522" y="458" type="curve" smooth="yes"/>
      <point x="522" y="566"/>
      <point x="432" y="612"/>
      <point x="276" y="612" type="curve" smooth="yes"/>
      <point x="96" y="612"/>
      <point x="21" y="548"/>
      <point x="21" y="467" type="curve" smooth="yes"/>
      <point x="21" y="377"/>
      <point x="89" y="343"/>
      <point x="155" y="343" type="curve" smooth="yes"/>
      <point x="210" y="343"/>
      <point x="300" y="365"/>
      <point x="300" y="460" type="curve" smooth="yes"/>
      <point x="300" y="483"/>
      <point x="295" y="515"/>
      <point x="256" y="551" type="curve"/>
      <point x="185" y="525" type="line"/>
      <point x="200" y="507"/>
      <point x="204" y="492"/>
      <point x="204" y="474" type="curve" smooth="yes"/>
      <point x="204" y="442"/>
      <point x="182" y="436"/>
      <point x="164" y="436" type="curve" smooth="yes"/>
      <point x="137" y="436"/>
      <point x="125" y="450"/>
      <point x="125" y="470" type="curve" smooth="yes"/>
      <point x="125" y="507"/>
      <point x="169" y="517"/>
      <point x="229" y="518" type="curve"/>
      <point x="247" y="518"/>
      <point x="260" y="518"/>
      <point x="278" y="518" type="curve" smooth="yes"/>
      <point x="360" y="518"/>
      <point x="409" y="506"/>
      <point x="409" y="464" type="curve" smooth="yes"/>
      <point x="409" y="434"/>
      <point x="396" y="423"/>
      <point x="338" y="409" type="curve" smooth="yes"/>
      <point x="310" y="402" type="line" smooth="yes"/>
      <point x="248" y="387"/>
      <point x="169" y="351"/>
      <point x="135" y="315" type="curve" smooth="yes"/>
      <point x="104" y="283"/>
      <point x="85" y="244"/>
      <point x="85" y="189" type="curve" smooth="yes"/>
      <point x="85" y="58"/>
      <point x="167" y="-11"/>
      <point x="291" y="-11" type="curve" smooth="yes"/>
      <point x="386" y="-11"/>
      <point x="431" y="19"/>
      <point x="474" y="72" type="curve"/>
      <point x="514" y="21"/>
      <point x="558" y="-11"/>
    </contour>
  </outline>
</glyph>
<glyph name="nngasinh" format="2">
  <advance width="1108"/>
  <unicode hex="0D9F"/>
  <outline>
    <contour>
      <point x="796" y="-2" type="curve" smooth="yes"/>
      <point x="960" y="-2"/>
      <point x="1075" y="107"/>
      <point x="1075" y="299" type="curve" smooth="yes"/>
      <point x="1075" y="482"/>
      <point x="991" y="612"/>
      <point x="814" y="612" type="curve" smooth="yes"/>
      <point x="710" y="612"/>
      <point x="568" y="566"/>
      <point x="510" y="294" type="curve"/>
      <point x="605" y="264" type="line"/>
      <point x="615" y="271"/>
      <point x="627" y="276"/>
      <point x="638" y="276" type="curve" smooth="yes"/>
      <point x="659" y="276"/>
      <point x="677" y="262"/>
      <point x="677" y="232" type="curve" smooth="yes"/>
      <point x="677" y="167"/>
      <point x="621" y="125"/>
      <point x="521" y="125" type="curve" smooth="yes"/>
      <point x="377" y="125"/>
      <point x="330" y="204"/>
      <point x="330" y="289" type="curve" smooth="yes"/>
      <point x="330" y="396"/>
      <point x="412" y="457"/>
      <point x="522" y="462" type="curve"/>
      <point x="564" y="566" type="line"/>
      <point x="430" y="537" type="line"/>
      <point x="293" y="509"/>
      <point x="217" y="421"/>
      <point x="217" y="281" type="curve" smooth="yes"/>
      <point x="217" y="112"/>
      <point x="308" y="-11"/>
      <point x="520" y="-11" type="curve" smooth="yes"/>
      <point x="692" y="-11"/>
      <point x="787" y="90"/>
      <point x="787" y="233" type="curve" smooth="yes"/>
      <point x="787" y="330"/>
      <point x="736" y="373"/>
      <point x="666" y="373" type="curve" smooth="yes"/>
      <point x="647" y="373"/>
      <point x="620" y="369"/>
      <point x="608" y="364" type="curve"/>
      <point x="636" y="355" type="line"/>
      <point x="664" y="438"/>
      <point x="720" y="483"/>
      <point x="793" y="483" type="curve" smooth="yes"/>
      <point x="906" y="483"/>
      <point x="963" y="401"/>
      <point x="963" y="291" type="curve" smooth="yes"/>
      <point x="963" y="177"/>
      <point x="903" y="103"/>
      <point x="782" y="103" type="curve" smooth="yes"/>
      <point x="773" y="103"/>
      <point x="767" y="103"/>
      <point x="759" y="104" type="curve"/>
      <point x="754" y="0" type="line"/>
      <point x="766" y="-1"/>
      <point x="779" y="-2"/>
    </contour>
    <contour>
      <point x="33" y="312" type="curve" smooth="yes"/>
      <point x="33" y="214"/>
      <point x="62" y="135"/>
      <point x="93" y="83" type="curve"/>
      <point x="188" y="130" type="line"/>
      <point x="160" y="176"/>
      <point x="143" y="234"/>
      <point x="143" y="297" type="curve" smooth="yes"/>
      <point x="143" y="444"/>
      <point x="237" y="517"/>
      <point x="371" y="517" type="curve" smooth="yes"/>
      <point x="428" y="517"/>
      <point x="473" y="506"/>
      <point x="515" y="484" type="curve"/>
      <point x="564" y="566" type="line"/>
      <point x="514" y="592"/>
      <point x="437" y="612"/>
      <point x="359" y="612" type="curve" smooth="yes"/>
      <point x="161" y="612"/>
      <point x="33" y="506"/>
    </contour>
  </outline>
</glyph>
<glyph name="casinh" format="2">
  <advance width="862"/>
  <unicode hex="0DA0"/>
  <outline>
    <contour>
      <point x="392" y="-11" type="curve" smooth="yes"/>
      <point x="716" y="-11"/>
      <point x="829" y="183"/>
      <point x="829" y="412" type="curve" smooth="yes"/>
      <point x="829" y="716"/>
      <point x="633" y="836"/>
      <point x="409" y="836" type="curve" smooth="yes"/>
      <point x="278" y="836"/>
      <point x="174" y="811"/>
      <point x="63" y="749" type="curve"/>
      <point x="110" y="649" type="line"/>
      <point x="193" y="699"/>
      <point x="290" y="728"/>
      <point x="392" y="728" type="curve" smooth="yes"/>
      <point x="558" y="728"/>
      <point x="715" y="651"/>
      <point x="715" y="412" type="curve" smooth="yes"/>
      <point x="715" y="255"/>
      <point x="625" y="125"/>
      <point x="387" y="125" type="curve" smooth="yes"/>
      <point x="239" y="125"/>
      <point x="173" y="175"/>
      <point x="173" y="245" type="curve" smooth="yes"/>
      <point x="173" y="283"/>
      <point x="184" y="313"/>
      <point x="214" y="332" type="curve" smooth="yes"/>
      <point x="243" y="350"/>
      <point x="276" y="357"/>
      <point x="371" y="357" type="curve" smooth="yes"/>
      <point x="482" y="357" type="line"/>
      <point x="482" y="390" type="line" smooth="yes"/>
      <point x="482" y="529"/>
      <point x="427" y="612"/>
      <point x="297" y="612" type="curve" smooth="yes"/>
      <point x="201" y="612"/>
      <point x="143" y="574"/>
      <point x="143" y="498" type="curve" smooth="yes"/>
      <point x="143" y="491"/>
      <point x="144" y="479"/>
      <point x="145" y="472" type="curve"/>
      <point x="256" y="475" type="line"/>
      <point x="256" y="477"/>
      <point x="256" y="478"/>
      <point x="256" y="480" type="curve" smooth="yes"/>
      <point x="256" y="502"/>
      <point x="271" y="514"/>
      <point x="305" y="514" type="curve" smooth="yes"/>
      <point x="350" y="514"/>
      <point x="366" y="487"/>
      <point x="369" y="455" type="curve"/>
      <point x="28" y="455" type="line"/>
      <point x="28" y="357" type="line"/>
      <point x="49" y="357" type="line" smooth="yes"/>
      <point x="87" y="357"/>
      <point x="136" y="358"/>
      <point x="178" y="368" type="curve"/>
      <point x="179" y="402" type="line"/>
      <point x="111" y="367"/>
      <point x="62" y="323"/>
      <point x="62" y="232" type="curve" smooth="yes"/>
      <point x="62" y="82"/>
      <point x="175" y="-11"/>
    </contour>
  </outline>
</glyph>
<glyph name="chasinh" format="2">
  <advance width="832"/>
  <unicode hex="0DA1"/>
  <outline>
    <contour>
      <point x="410" y="-11" type="curve" smooth="yes"/>
      <point x="688" y="-11"/>
      <point x="799" y="87"/>
      <point x="799" y="245" type="curve" smooth="yes"/>
      <point x="799" y="385"/>
      <point x="712" y="455"/>
      <point x="527" y="455" type="curve" smooth="yes"/>
      <point x="520" y="455" type="line"/>
      <point x="530" y="453" type="line"/>
      <point x="535" y="496"/>
      <point x="560" y="518"/>
      <point x="595" y="518" type="curve" smooth="yes"/>
      <point x="634" y="518"/>
      <point x="653" y="488"/>
      <point x="653" y="435" type="curve" smooth="yes"/>
      <point x="653" y="319"/>
      <point x="618" y="303"/>
      <point x="580" y="303" type="curve" smooth="yes"/>
      <point x="536" y="303"/>
      <point x="522" y="342"/>
      <point x="522" y="396" type="curve"/>
      <point x="495" y="440" type="line"/>
      <point x="576" y="580" type="line"/>
      <point x="634" y="652"/>
      <point x="734" y="695"/>
      <point x="812" y="718" type="curve"/>
      <point x="769" y="811" type="line"/>
      <point x="596" y="748"/>
      <point x="424" y="624"/>
      <point x="424" y="396" type="curve" smooth="yes"/>
      <point x="424" y="268"/>
      <point x="482" y="208"/>
      <point x="569" y="208" type="curve" smooth="yes"/>
      <point x="631" y="208"/>
      <point x="677" y="231"/>
      <point x="710" y="289" type="curve"/>
      <point x="727" y="312" type="line"/>
      <point x="746" y="347"/>
      <point x="759" y="376"/>
      <point x="759" y="442" type="curve" smooth="yes"/>
      <point x="759" y="564"/>
      <point x="704" y="612"/>
      <point x="625" y="612" type="curve" smooth="yes"/>
      <point x="507" y="612"/>
      <point x="461" y="489"/>
      <point x="461" y="391" type="curve" smooth="yes"/>
      <point x="461" y="360" type="line"/>
      <point x="500" y="360" type="line" smooth="yes"/>
      <point x="577" y="360"/>
      <point x="609" y="356"/>
      <point x="650" y="336" type="curve"/>
      <point x="673" y="316" type="line"/>
      <point x="683" y="301"/>
      <point x="689" y="281"/>
      <point x="689" y="257" type="curve" smooth="yes"/>
      <point x="689" y="179"/>
      <point x="612" y="125"/>
      <point x="410" y="125" type="curve" smooth="yes"/>
      <point x="213" y="125"/>
      <point x="143" y="180"/>
      <point x="143" y="256" type="curve" smooth="yes"/>
      <point x="143" y="293"/>
      <point x="156" y="318"/>
      <point x="183" y="334" type="curve" smooth="yes"/>
      <point x="212" y="351"/>
      <point x="256" y="357"/>
      <point x="332" y="357" type="curve" smooth="yes"/>
      <point x="396" y="357" type="line"/>
      <point x="396" y="396" type="line" smooth="yes"/>
      <point x="396" y="526"/>
      <point x="340" y="612"/>
      <point x="211" y="612" type="curve" smooth="yes"/>
      <point x="115" y="612"/>
      <point x="58" y="572"/>
      <point x="58" y="494" type="curve" smooth="yes"/>
      <point x="58" y="483"/>
      <point x="59" y="465"/>
      <point x="62" y="449" type="curve"/>
      <point x="171" y="459" type="line"/>
      <point x="170" y="464"/>
      <point x="170" y="470"/>
      <point x="170" y="475" type="curve" smooth="yes"/>
      <point x="170" y="500"/>
      <point x="186" y="514"/>
      <point x="221" y="514" type="curve" smooth="yes"/>
      <point x="264" y="514"/>
      <point x="282" y="487"/>
      <point x="284" y="452" type="curve"/>
      <point x="297" y="455" type="line"/>
      <point x="292" y="455" type="line"/>
      <point x="115" y="455"/>
      <point x="33" y="383"/>
      <point x="33" y="247" type="curve" smooth="yes"/>
      <point x="33" y="91"/>
      <point x="143" y="-11"/>
    </contour>
  </outline>
</glyph>
<glyph name="jhasinh" format="2">
  <advance width="1481"/>
  <unicode hex="0DA3"/>
  <outline>
    <contour>
      <point x="585" y="-11" type="curve" smooth="yes"/>
      <point x="702" y="-11"/>
      <point x="744" y="95"/>
      <point x="744" y="223" type="curve" smooth="yes"/>
      <point x="744" y="384"/>
      <point x="636" y="447"/>
      <point x="483" y="447" type="curve" smooth="yes"/>
      <point x="394" y="447"/>
      <point x="322" y="405"/>
      <point x="295" y="388" type="curve"/>
      <point x="194" y="308" type="line"/>
      <point x="269" y="333"/>
      <point x="329" y="352"/>
      <point x="452" y="352" type="curve" smooth="yes"/>
      <point x="585" y="352"/>
      <point x="650" y="297"/>
      <point x="650" y="212" type="curve" smooth="yes"/>
      <point x="650" y="152"/>
      <point x="625" y="121"/>
      <point x="576" y="121" type="curve" smooth="yes"/>
      <point x="505" y="121"/>
      <point x="487" y="164"/>
      <point x="487" y="233" type="curve" smooth="yes"/>
      <point x="487" y="241" type="line"/>
      <point x="388" y="241" type="line"/>
      <point x="388" y="230" type="line" smooth="yes"/>
      <point x="388" y="152"/>
      <point x="356" y="121"/>
      <point x="307" y="121" type="curve" smooth="yes"/>
      <point x="269" y="121"/>
      <point x="234" y="141"/>
      <point x="234" y="225" type="curve" smooth="yes"/>
      <point x="234" y="228"/>
      <point x="235" y="234"/>
      <point x="236" y="242" type="curve"/>
      <point x="149" y="242" type="line"/>
      <point x="142" y="220"/>
      <point x="137" y="172"/>
      <point x="137" y="150" type="curve" smooth="yes"/>
      <point x="137" y="68"/>
      <point x="189" y="-11"/>
      <point x="295" y="-11" type="curve" smooth="yes"/>
      <point x="363" y="-11"/>
      <point x="410" y="21"/>
      <point x="439" y="65" type="curve"/>
      <point x="475" y="14"/>
      <point x="521" y="-11"/>
    </contour>
    <contour>
      <point x="639" y="506" type="curve" smooth="yes"/>
      <point x="744" y="506"/>
      <point x="809" y="471"/>
      <point x="872" y="427" type="curve"/>
      <point x="970" y="486" type="line"/>
      <point x="889" y="556"/>
      <point x="784" y="612"/>
      <point x="653" y="612" type="curve" smooth="yes"/>
      <point x="512" y="612"/>
      <point x="410" y="577"/>
      <point x="295" y="483" type="curve"/>
      <point x="276" y="470" type="line"/>
      <point x="205" y="406"/>
      <point x="115" y="307"/>
      <point x="22" y="187" type="curve"/>
      <point x="118" y="130" type="line"/>
      <point x="138" y="163" type="line"/>
      <point x="155" y="181" type="line"/>
      <point x="206" y="252"/>
      <point x="270" y="328"/>
      <point x="324" y="378" type="curve"/>
      <point x="354" y="416" type="line"/>
      <point x="440" y="471"/>
      <point x="506" y="506"/>
    </contour>
    <contour>
      <point x="178" y="593" type="curve" smooth="yes"/>
      <point x="78" y="593"/>
      <point x="23" y="542"/>
      <point x="23" y="460" type="curve" smooth="yes"/>
      <point x="23" y="429"/>
      <point x="27" y="405"/>
      <point x="35" y="379" type="curve"/>
      <point x="146" y="401" type="line"/>
      <point x="142" y="415"/>
      <point x="139" y="433"/>
      <point x="139" y="447" type="curve" smooth="yes"/>
      <point x="139" y="473"/>
      <point x="148" y="495"/>
      <point x="180" y="495" type="curve" smooth="yes"/>
      <point x="213" y="495"/>
      <point x="238" y="465"/>
      <point x="244" y="409" type="curve"/>
      <point x="350" y="440" type="line"/>
      <point x="329" y="532"/>
      <point x="279" y="593"/>
    </contour>
    <contour>
      <point x="1206" y="-11" type="curve" smooth="yes"/>
      <point x="1339" y="-11"/>
      <point x="1443" y="84"/>
      <point x="1443" y="351" type="curve" smooth="yes"/>
      <point x="1443" y="673"/>
      <point x="1281" y="836"/>
      <point x="1012" y="836" type="curve" smooth="yes"/>
      <point x="872" y="836"/>
      <point x="761" y="801"/>
      <point x="665" y="749" type="curve"/>
      <point x="712" y="648" type="line"/>
      <point x="783" y="692"/>
      <point x="880" y="728"/>
      <point x="1014" y="728" type="curve" smooth="yes"/>
      <point x="1222" y="728"/>
      <point x="1329" y="584"/>
      <point x="1329" y="352" type="curve" smooth="yes"/>
      <point x="1329" y="187"/>
      <point x="1278" y="121"/>
      <point x="1190" y="121" type="curve" smooth="yes"/>
      <point x="1114" y="121"/>
      <point x="1080" y="166"/>
      <point x="1080" y="233" type="curve" smooth="yes"/>
      <point x="1080" y="241" type="line"/>
      <point x="975" y="241" type="line"/>
      <point x="975" y="233" type="line" smooth="yes"/>
      <point x="975" y="157"/>
      <point x="932" y="121"/>
      <point x="859" y="121" type="curve" smooth="yes"/>
      <point x="796" y="121"/>
      <point x="761" y="163"/>
      <point x="761" y="235" type="curve" smooth="yes"/>
      <point x="761" y="334"/>
      <point x="836" y="369"/>
      <point x="938" y="377" type="curve"/>
      <point x="970" y="486" type="line"/>
      <point x="897" y="480" type="line"/>
      <point x="741" y="458"/>
      <point x="662" y="380"/>
      <point x="662" y="234" type="curve" smooth="yes"/>
      <point x="662" y="71"/>
      <point x="739" y="-11"/>
      <point x="854" y="-11" type="curve" smooth="yes"/>
      <point x="943" y="-11"/>
      <point x="987" y="21"/>
      <point x="1028" y="72" type="curve"/>
      <point x="1068" y="21"/>
      <point x="1113" y="-11"/>
    </contour>
  </outline>
</glyph>
<glyph name="jnyasinh" format="2">
  <advance width="1233"/>
  <unicode hex="0DA5"/>
  <outline>
    <contour>
      <point x="520" y="-11" type="curve" smooth="yes"/>
      <point x="683" y="-11"/>
      <point x="779" y="87"/>
      <point x="779" y="220" type="curve" smooth="yes"/>
      <point x="779" y="320"/>
      <point x="741" y="373"/>
      <point x="666" y="373" type="curve" smooth="yes"/>
      <point x="646" y="373"/>
      <point x="620" y="368"/>
      <point x="607" y="364" type="curve"/>
      <point x="637" y="355" type="line"/>
      <point x="677" y="461"/>
      <point x="766" y="511"/>
      <point x="864" y="511" type="curve" smooth="yes"/>
      <point x="877" y="511"/>
      <point x="890" y="509"/>
      <point x="903" y="506" type="curve"/>
      <point x="997" y="597" type="line"/>
      <point x="957" y="611"/>
      <point x="902" y="612"/>
      <point x="872" y="612" type="curve" smooth="yes"/>
      <point x="709" y="612"/>
      <point x="570" y="547"/>
      <point x="510" y="294" type="curve"/>
      <point x="606" y="264" type="line"/>
      <point x="615" y="271"/>
      <point x="627" y="276"/>
      <point x="638" y="276" type="curve" smooth="yes"/>
      <point x="659" y="276"/>
      <point x="677" y="262"/>
      <point x="677" y="232" type="curve" smooth="yes"/>
      <point x="677" y="167"/>
      <point x="619" y="125"/>
      <point x="521" y="125" type="curve" smooth="yes"/>
      <point x="377" y="125"/>
      <point x="330" y="204"/>
      <point x="330" y="289" type="curve" smooth="yes"/>
      <point x="330" y="396"/>
      <point x="412" y="457"/>
      <point x="522" y="462" type="curve"/>
      <point x="564" y="566" type="line"/>
      <point x="430" y="537" type="line"/>
      <point x="293" y="509"/>
      <point x="217" y="421"/>
      <point x="217" y="281" type="curve" smooth="yes"/>
      <point x="217" y="112"/>
      <point x="308" y="-11"/>
    </contour>
    <contour>
      <point x="33" y="312" type="curve" smooth="yes"/>
      <point x="33" y="214"/>
      <point x="62" y="135"/>
      <point x="93" y="83" type="curve"/>
      <point x="188" y="130" type="line"/>
      <point x="160" y="176"/>
      <point x="143" y="234"/>
      <point x="143" y="297" type="curve" smooth="yes"/>
      <point x="143" y="444"/>
      <point x="237" y="517"/>
      <point x="371" y="517" type="curve" smooth="yes"/>
      <point x="428" y="517"/>
      <point x="473" y="506"/>
      <point x="515" y="484" type="curve"/>
      <point x="564" y="566" type="line"/>
      <point x="514" y="592"/>
      <point x="437" y="612"/>
      <point x="359" y="612" type="curve" smooth="yes"/>
      <point x="161" y="612"/>
      <point x="33" y="506"/>
    </contour>
    <contour>
      <point x="985" y="-11" type="curve" smooth="yes"/>
      <point x="1080" y="-11"/>
      <point x="1157" y="0"/>
      <point x="1225" y="34" type="curve"/>
      <point x="1199" y="136" type="line"/>
      <point x="1158" y="113"/>
      <point x="1077" y="98"/>
      <point x="1010" y="98" type="curve" smooth="yes"/>
      <point x="871" y="98"/>
      <point x="812" y="148"/>
      <point x="812" y="230" type="curve" smooth="yes"/>
      <point x="812" y="273"/>
      <point x="830" y="308"/>
      <point x="869" y="329" type="curve" smooth="yes"/>
      <point x="901" y="346"/>
      <point x="939" y="357"/>
      <point x="1047" y="357" type="curve" smooth="yes"/>
      <point x="1205" y="357" type="line"/>
      <point x="1205" y="390" type="line" smooth="yes"/>
      <point x="1205" y="531"/>
      <point x="1151" y="612"/>
      <point x="1020" y="612" type="curve" smooth="yes"/>
      <point x="917" y="612"/>
      <point x="867" y="557"/>
      <point x="867" y="494" type="curve" smooth="yes"/>
      <point x="867" y="486"/>
      <point x="868" y="469"/>
      <point x="869" y="461" type="curve"/>
      <point x="979" y="470" type="line"/>
      <point x="979" y="472"/>
      <point x="979" y="473"/>
      <point x="979" y="475" type="curve"/>
      <point x="979" y="500"/>
      <point x="995" y="514"/>
      <point x="1031" y="514" type="curve" smooth="yes"/>
      <point x="1073" y="514"/>
      <point x="1090" y="487"/>
      <point x="1093" y="455" type="curve"/>
      <point x="1026" y="455" type="line" smooth="yes"/>
      <point x="915" y="455"/>
      <point x="848" y="444"/>
      <point x="791" y="414" type="curve" smooth="yes"/>
      <point x="725" y="380"/>
      <point x="684" y="321"/>
      <point x="684" y="228" type="curve" smooth="yes"/>
      <point x="684" y="72"/>
      <point x="792" y="-11"/>
    </contour>
    <contour>
      <point x="1125" y="-271" type="curve" smooth="yes"/>
      <point x="1176" y="-271"/>
      <point x="1206" y="-266"/>
      <point x="1249" y="-250" type="curve"/>
      <point x="1222" y="-154" type="line"/>
      <point x="1193" y="-167"/>
      <point x="1175" y="-170"/>
      <point x="1148" y="-170" type="curve" smooth="yes"/>
      <point x="1109" y="-170"/>
      <point x="1075" y="-156"/>
      <point x="1075" y="-104" type="curve" smooth="yes"/>
      <point x="1075" y="-63"/>
      <point x="1104" y="-2"/>
      <point x="1184" y="48" type="curve"/>
      <point x="1177" y="92" type="line"/>
      <point x="1117" y="77" type="line"/>
      <point x="1002" y="26"/>
      <point x="956" y="-43"/>
      <point x="956" y="-125" type="curve" smooth="yes"/>
      <point x="956" y="-217"/>
      <point x="1011" y="-271"/>
    </contour>
  </outline>
</glyph>
<glyph name="ttasinh" format="2">
  <advance width="826"/>
  <unicode hex="0DA7"/>
  <outline>
    <contour>
      <point x="358" y="-11" type="curve" smooth="yes"/>
      <point x="681" y="-11"/>
      <point x="793" y="183"/>
      <point x="793" y="412" type="curve" smooth="yes"/>
      <point x="793" y="716"/>
      <point x="601" y="836"/>
      <point x="383" y="836" type="curve" smooth="yes"/>
      <point x="262" y="836"/>
      <point x="156" y="811"/>
      <point x="45" y="749" type="curve"/>
      <point x="92" y="649" type="line"/>
      <point x="175" y="699"/>
      <point x="272" y="728"/>
      <point x="367" y="728" type="curve" smooth="yes"/>
      <point x="524" y="728"/>
      <point x="679" y="651"/>
      <point x="679" y="409" type="curve" smooth="yes"/>
      <point x="679" y="281"/>
      <point x="612" y="125"/>
      <point x="359" y="125" type="curve" smooth="yes"/>
      <point x="204" y="125"/>
      <point x="144" y="180"/>
      <point x="144" y="254" type="curve" smooth="yes"/>
      <point x="144" y="350"/>
      <point x="223" y="379"/>
      <point x="351" y="379" type="curve" smooth="yes"/>
      <point x="384" y="379"/>
      <point x="411" y="377"/>
      <point x="436" y="374" type="curve"/>
      <point x="442" y="480" type="line"/>
      <point x="421" y="483"/>
      <point x="388" y="486"/>
      <point x="346" y="486" type="curve" smooth="yes"/>
      <point x="177" y="486"/>
      <point x="33" y="422"/>
      <point x="33" y="246" type="curve" smooth="yes"/>
      <point x="33" y="93"/>
      <point x="147" y="-11"/>
    </contour>
  </outline>
</glyph>
<glyph name="tthasinh" format="2">
  <advance width="885"/>
  <unicode hex="0DA8"/>
  <outline>
    <contour>
      <point x="603" y="-11" type="curve" smooth="yes"/>
      <point x="793" y="-11"/>
      <point x="847" y="151"/>
      <point x="847" y="323" type="curve" smooth="yes"/>
      <point x="847" y="664"/>
      <point x="618" y="788"/>
      <point x="430" y="854" type="curve"/>
      <point x="381" y="757" type="line"/>
      <point x="399" y="751"/>
      <point x="417" y="748"/>
      <point x="435" y="741" type="curve"/>
      <point x="586" y="680"/>
      <point x="733" y="583"/>
      <point x="733" y="322" type="curve" smooth="yes"/>
      <point x="733" y="224"/>
      <point x="702" y="121"/>
      <point x="593" y="121" type="curve" smooth="yes"/>
      <point x="511" y="121"/>
      <point x="474" y="161"/>
      <point x="474" y="234" type="curve" smooth="yes"/>
      <point x="474" y="241" type="line"/>
      <point x="369" y="241" type="line"/>
      <point x="369" y="233" type="line" smooth="yes"/>
      <point x="369" y="157"/>
      <point x="322" y="121"/>
      <point x="247" y="121" type="curve" smooth="yes"/>
      <point x="181" y="121"/>
      <point x="144" y="162"/>
      <point x="144" y="235" type="curve" smooth="yes"/>
      <point x="144" y="327"/>
      <point x="210" y="378"/>
      <point x="359" y="378" type="curve" smooth="yes"/>
      <point x="385" y="378"/>
      <point x="416" y="376"/>
      <point x="436" y="373" type="curve"/>
      <point x="444" y="480" type="line"/>
      <point x="422" y="483"/>
      <point x="378" y="486"/>
      <point x="350" y="486" type="curve" smooth="yes"/>
      <point x="131" y="486"/>
      <point x="33" y="372"/>
      <point x="33" y="230" type="curve" smooth="yes"/>
      <point x="33" y="66"/>
      <point x="124" y="-11"/>
      <point x="243" y="-11" type="curve" smooth="yes"/>
      <point x="334" y="-11"/>
      <point x="379" y="18"/>
      <point x="422" y="72" type="curve"/>
      <point x="462" y="21"/>
      <point x="507" y="-11"/>
    </contour>
    <contour>
      <point x="538" y="505" type="curve" smooth="yes"/>
      <point x="616" y="505"/>
      <point x="663" y="542"/>
      <point x="708" y="600" type="curve"/>
      <point x="626" y="660" type="line"/>
      <point x="609" y="625"/>
      <point x="590" y="604"/>
      <point x="558" y="604" type="curve" smooth="yes"/>
      <point x="530" y="604"/>
      <point x="512" y="615"/>
      <point x="510" y="664" type="curve" smooth="yes"/>
      <point x="507" y="707"/>
      <point x="491" y="750"/>
      <point x="441" y="762" type="curve"/>
      <point x="381" y="757" type="line"/>
      <point x="400" y="750"/>
      <point x="405" y="729"/>
      <point x="405" y="669" type="curve" smooth="yes"/>
      <point x="405" y="557"/>
      <point x="448" y="505"/>
    </contour>
  </outline>
</glyph>
<glyph name="ddasinh" format="2">
  <advance width="907"/>
  <unicode hex="0DA9"/>
  <outline>
    <contour>
      <point x="626" y="-11" type="curve" smooth="yes"/>
      <point x="763" y="-11"/>
      <point x="869" y="84"/>
      <point x="869" y="350" type="curve" smooth="yes"/>
      <point x="869" y="666"/>
      <point x="702" y="836"/>
      <point x="429" y="836" type="curve" smooth="yes"/>
      <point x="277" y="836"/>
      <point x="158" y="801"/>
      <point x="56" y="749" type="curve"/>
      <point x="104" y="648" type="line"/>
      <point x="188" y="696"/>
      <point x="283" y="728"/>
      <point x="417" y="728" type="curve" smooth="yes"/>
      <point x="645" y="728"/>
      <point x="755" y="586"/>
      <point x="755" y="352" type="curve" smooth="yes"/>
      <point x="755" y="187"/>
      <point x="702" y="121"/>
      <point x="611" y="121" type="curve" smooth="yes"/>
      <point x="533" y="121"/>
      <point x="496" y="163"/>
      <point x="496" y="233" type="curve" smooth="yes"/>
      <point x="496" y="241" type="line"/>
      <point x="391" y="241" type="line"/>
      <point x="391" y="233" type="line" smooth="yes"/>
      <point x="391" y="161"/>
      <point x="344" y="121"/>
      <point x="271" y="121" type="curve" smooth="yes"/>
      <point x="196" y="121"/>
      <point x="156" y="156"/>
      <point x="156" y="226" type="curve" smooth="yes"/>
      <point x="156" y="264"/>
      <point x="172" y="298"/>
      <point x="205" y="320" type="curve" smooth="yes"/>
      <point x="243" y="346"/>
      <point x="288" y="357"/>
      <point x="391" y="357" type="curve" smooth="yes"/>
      <point x="447" y="357" type="line"/>
      <point x="447" y="396" type="line" smooth="yes"/>
      <point x="447" y="526"/>
      <point x="391" y="612"/>
      <point x="262" y="612" type="curve" smooth="yes"/>
      <point x="166" y="612"/>
      <point x="108" y="574"/>
      <point x="108" y="498" type="curve" smooth="yes"/>
      <point x="108" y="491"/>
      <point x="109" y="479"/>
      <point x="110" y="472" type="curve"/>
      <point x="221" y="475" type="line"/>
      <point x="221" y="476"/>
      <point x="221" y="477"/>
      <point x="221" y="478" type="curve"/>
      <point x="221" y="502"/>
      <point x="238" y="514"/>
      <point x="272" y="514" type="curve" smooth="yes"/>
      <point x="314" y="514"/>
      <point x="332" y="487"/>
      <point x="335" y="455" type="curve"/>
      <point x="28" y="455" type="line"/>
      <point x="28" y="357" type="line"/>
      <point x="51" y="357" type="line" smooth="yes"/>
      <point x="97" y="357"/>
      <point x="152" y="364"/>
      <point x="185" y="369" type="curve"/>
      <point x="150" y="380" type="line"/>
      <point x="79" y="345"/>
      <point x="46" y="276"/>
      <point x="46" y="201" type="curve" smooth="yes"/>
      <point x="46" y="67"/>
      <point x="130" y="-11"/>
      <point x="263" y="-11" type="curve" smooth="yes"/>
      <point x="356" y="-11"/>
      <point x="401" y="19"/>
      <point x="444" y="72" type="curve"/>
      <point x="484" y="21"/>
      <point x="528" y="-11"/>
    </contour>
  </outline>
</glyph>
<glyph name="nnddasinh" format="2">
  <advance width="1065"/>
  <unicode hex="0DAC"/>
  <outline>
    <contour>
      <point x="785" y="-11" type="curve" smooth="yes"/>
      <point x="921" y="-11"/>
      <point x="1027" y="84"/>
      <point x="1027" y="351" type="curve" smooth="yes"/>
      <point x="1027" y="666"/>
      <point x="860" y="836"/>
      <point x="584" y="836" type="curve" smooth="yes"/>
      <point x="435" y="836"/>
      <point x="316" y="801"/>
      <point x="214" y="749" type="curve"/>
      <point x="262" y="648" type="line"/>
      <point x="347" y="697"/>
      <point x="439" y="728"/>
      <point x="575" y="728" type="curve" smooth="yes"/>
      <point x="803" y="728"/>
      <point x="913" y="586"/>
      <point x="913" y="352" type="curve" smooth="yes"/>
      <point x="913" y="187"/>
      <point x="860" y="121"/>
      <point x="769" y="121" type="curve" smooth="yes"/>
      <point x="691" y="121"/>
      <point x="654" y="163"/>
      <point x="654" y="233" type="curve" smooth="yes"/>
      <point x="654" y="241" type="line"/>
      <point x="549" y="241" type="line"/>
      <point x="549" y="233" type="line" smooth="yes"/>
      <point x="549" y="164"/>
      <point x="503" y="121"/>
      <point x="432" y="121" type="curve" smooth="yes"/>
      <point x="359" y="121"/>
      <point x="318" y="156"/>
      <point x="318" y="226" type="curve" smooth="yes"/>
      <point x="318" y="264"/>
      <point x="334" y="298"/>
      <point x="367" y="320" type="curve" smooth="yes"/>
      <point x="405" y="346"/>
      <point x="450" y="357"/>
      <point x="553" y="357" type="curve" smooth="yes"/>
      <point x="620" y="357" type="line"/>
      <point x="620" y="396" type="line" smooth="yes"/>
      <point x="620" y="526"/>
      <point x="565" y="612"/>
      <point x="435" y="612" type="curve" smooth="yes"/>
      <point x="339" y="612"/>
      <point x="281" y="574"/>
      <point x="281" y="498" type="curve" smooth="yes"/>
      <point x="281" y="491"/>
      <point x="283" y="479"/>
      <point x="284" y="472" type="curve"/>
      <point x="394" y="475" type="line"/>
      <point x="394" y="477"/>
      <point x="394" y="477"/>
      <point x="394" y="478" type="curve" smooth="yes"/>
      <point x="394" y="502"/>
      <point x="411" y="514"/>
      <point x="445" y="514" type="curve" smooth="yes"/>
      <point x="487" y="514"/>
      <point x="505" y="487"/>
      <point x="508" y="455" type="curve"/>
      <point x="194" y="455" type="line"/>
      <point x="194" y="357" type="line"/>
      <point x="216" y="357" type="line" smooth="yes"/>
      <point x="235" y="357"/>
      <point x="299" y="361"/>
      <point x="338" y="368" type="curve"/>
      <point x="312" y="382" type="line"/>
      <point x="240" y="345"/>
      <point x="208" y="276"/>
      <point x="208" y="207" type="curve" smooth="yes"/>
      <point x="208" y="67"/>
      <point x="292" y="-11"/>
      <point x="423" y="-11" type="curve" smooth="yes"/>
      <point x="515" y="-11"/>
      <point x="559" y="19"/>
      <point x="602" y="72" type="curve"/>
      <point x="643" y="21"/>
      <point x="686" y="-11"/>
    </contour>
    <contour>
      <point x="33" y="315" type="curve" smooth="yes"/>
      <point x="33" y="221"/>
      <point x="62" y="140"/>
      <point x="98" y="83" type="curve"/>
      <point x="191" y="129" type="line"/>
      <point x="161" y="177"/>
      <point x="143" y="230"/>
      <point x="143" y="296" type="curve" smooth="yes"/>
      <point x="143" y="456"/>
      <point x="234" y="518"/>
      <point x="352" y="518" type="curve" smooth="yes"/>
      <point x="391" y="518"/>
      <point x="402" y="518"/>
      <point x="410" y="517" type="curve"/>
      <point x="490" y="585" type="line"/>
      <point x="445" y="606"/>
      <point x="408" y="612"/>
      <point x="376" y="612" type="curve" smooth="yes"/>
      <point x="165" y="612"/>
      <point x="33" y="513"/>
    </contour>
  </outline>
</glyph>
<glyph name="tasinh" format="2">
  <advance width="988"/>
  <unicode hex="0DAD"/>
  <outline>
    <contour>
      <point x="402" y="-11" type="curve" smooth="yes"/>
      <point x="631" y="-11"/>
      <point x="676" y="125"/>
      <point x="676" y="229" type="curve" smooth="yes"/>
      <point x="676" y="346"/>
      <point x="613" y="447"/>
      <point x="440" y="447" type="curve" smooth="yes"/>
      <point x="395" y="447"/>
      <point x="336" y="430"/>
      <point x="319" y="421" type="curve"/>
      <point x="233" y="322" type="line"/>
      <point x="289" y="344"/>
      <point x="346" y="352"/>
      <point x="405" y="352" type="curve" smooth="yes"/>
      <point x="521" y="352"/>
      <point x="566" y="306"/>
      <point x="566" y="237" type="curve" smooth="yes"/>
      <point x="566" y="158"/>
      <point x="511" y="122"/>
      <point x="399" y="122" type="curve" smooth="yes"/>
      <point x="289" y="122"/>
      <point x="248" y="160"/>
      <point x="248" y="226" type="curve" smooth="yes"/>
      <point x="248" y="232"/>
      <point x="249" y="247"/>
      <point x="251" y="259" type="curve"/>
      <point x="156" y="265" type="line"/>
      <point x="149" y="236"/>
      <point x="147" y="224"/>
      <point x="147" y="199" type="curve" smooth="yes"/>
      <point x="147" y="66"/>
      <point x="238" y="-11"/>
    </contour>
    <contour>
      <point x="683" y="-2" type="curve" smooth="yes"/>
      <point x="840" y="-2"/>
      <point x="955" y="102"/>
      <point x="955" y="284" type="curve" smooth="yes"/>
      <point x="955" y="479"/>
      <point x="840" y="612"/>
      <point x="618" y="612" type="curve" smooth="yes"/>
      <point x="493" y="612"/>
      <point x="390" y="572"/>
      <point x="288" y="486" type="curve"/>
      <point x="262" y="465" type="line"/>
      <point x="190" y="401"/>
      <point x="112" y="307"/>
      <point x="22" y="187" type="curve"/>
      <point x="118" y="130" type="line"/>
      <point x="158" y="195" type="line"/>
      <point x="177" y="215" type="line"/>
      <point x="220" y="275"/>
      <point x="274" y="336"/>
      <point x="317" y="378" type="curve"/>
      <point x="346" y="414" type="line"/>
      <point x="417" y="462"/>
      <point x="478" y="493"/>
      <point x="613" y="493" type="curve" smooth="yes"/>
      <point x="766" y="493"/>
      <point x="843" y="413"/>
      <point x="843" y="278" type="curve" smooth="yes"/>
      <point x="843" y="181"/>
      <point x="797" y="103"/>
      <point x="670" y="103" type="curve" smooth="yes"/>
      <point x="663" y="103"/>
      <point x="657" y="103"/>
      <point x="649" y="104" type="curve"/>
      <point x="646" y="0" type="line"/>
      <point x="655" y="-2"/>
      <point x="672" y="-2"/>
    </contour>
    <contour>
      <point x="178" y="593" type="curve" smooth="yes"/>
      <point x="78" y="593"/>
      <point x="23" y="542"/>
      <point x="23" y="460" type="curve" smooth="yes"/>
      <point x="23" y="429"/>
      <point x="27" y="405"/>
      <point x="35" y="379" type="curve"/>
      <point x="146" y="401" type="line"/>
      <point x="142" y="415"/>
      <point x="139" y="433"/>
      <point x="139" y="447" type="curve" smooth="yes"/>
      <point x="139" y="473"/>
      <point x="148" y="495"/>
      <point x="180" y="495" type="curve" smooth="yes"/>
      <point x="213" y="495"/>
      <point x="238" y="465"/>
      <point x="244" y="409" type="curve"/>
      <point x="350" y="440" type="line"/>
      <point x="329" y="532"/>
      <point x="279" y="593"/>
    </contour>
  </outline>
</glyph>
<glyph name="thasinh" format="2">
  <advance width="826"/>
  <unicode hex="0DAE"/>
  <outline>
    <contour>
      <point x="359" y="-11" type="curve" smooth="yes"/>
      <point x="681" y="-11"/>
      <point x="793" y="183"/>
      <point x="793" y="408" type="curve" smooth="yes"/>
      <point x="793" y="660"/>
      <point x="621" y="786"/>
      <point x="430" y="854" type="curve"/>
      <point x="382" y="757" type="line"/>
      <point x="401" y="751"/>
      <point x="418" y="748"/>
      <point x="436" y="741" type="curve"/>
      <point x="580" y="682"/>
      <point x="679" y="587"/>
      <point x="679" y="406" type="curve" smooth="yes"/>
      <point x="679" y="255"/>
      <point x="591" y="125"/>
      <point x="357" y="125" type="curve" smooth="yes"/>
      <point x="204" y="125"/>
      <point x="144" y="180"/>
      <point x="144" y="254" type="curve" smooth="yes"/>
      <point x="144" y="350"/>
      <point x="223" y="379"/>
      <point x="351" y="379" type="curve" smooth="yes"/>
      <point x="384" y="379"/>
      <point x="411" y="377"/>
      <point x="436" y="374" type="curve"/>
      <point x="442" y="480" type="line"/>
      <point x="421" y="483"/>
      <point x="388" y="486"/>
      <point x="346" y="486" type="curve" smooth="yes"/>
      <point x="177" y="486"/>
      <point x="33" y="422"/>
      <point x="33" y="246" type="curve" smooth="yes"/>
      <point x="33" y="93"/>
      <point x="148" y="-11"/>
    </contour>
    <contour>
      <point x="539" y="505" type="curve" smooth="yes"/>
      <point x="617" y="505"/>
      <point x="664" y="542"/>
      <point x="709" y="600" type="curve"/>
      <point x="627" y="660" type="line"/>
      <point x="610" y="625"/>
      <point x="592" y="604"/>
      <point x="559" y="604" type="curve" smooth="yes"/>
      <point x="531" y="604"/>
      <point x="513" y="615"/>
      <point x="511" y="664" type="curve" smooth="yes"/>
      <point x="508" y="707"/>
      <point x="492" y="750"/>
      <point x="443" y="762" type="curve"/>
      <point x="382" y="757" type="line"/>
      <point x="401" y="750"/>
      <point x="406" y="729"/>
      <point x="406" y="669" type="curve" smooth="yes"/>
      <point x="406" y="557"/>
      <point x="449" y="505"/>
    </contour>
  </outline>
</glyph>
<glyph name="dasinh" format="2">
  <advance width="611"/>
  <unicode hex="0DAF"/>
  <outline>
    <contour>
      <point x="355" y="-11" type="curve" smooth="yes"/>
      <point x="453" y="-11"/>
      <point x="534" y="0"/>
      <point x="603" y="34" type="curve"/>
      <point x="577" y="136" type="line"/>
      <point x="534" y="114"/>
      <point x="449" y="98"/>
      <point x="378" y="98" type="curve" smooth="yes"/>
      <point x="231" y="98"/>
      <point x="169" y="148"/>
      <point x="169" y="230" type="curve" smooth="yes"/>
      <point x="169" y="273"/>
      <point x="188" y="308"/>
      <point x="229" y="329" type="curve" smooth="yes"/>
      <point x="263" y="346"/>
      <point x="304" y="357"/>
      <point x="417" y="357" type="curve" smooth="yes"/>
      <point x="583" y="357" type="line"/>
      <point x="583" y="390" type="line" smooth="yes"/>
      <point x="583" y="531"/>
      <point x="529" y="612"/>
      <point x="398" y="612" type="curve" smooth="yes"/>
      <point x="303" y="612"/>
      <point x="245" y="572"/>
      <point x="245" y="494" type="curve" smooth="yes"/>
      <point x="245" y="486"/>
      <point x="246" y="469"/>
      <point x="247" y="461" type="curve"/>
      <point x="357" y="470" type="line"/>
      <point x="357" y="472"/>
      <point x="357" y="473"/>
      <point x="357" y="475" type="curve" smooth="yes"/>
      <point x="357" y="500"/>
      <point x="373" y="514"/>
      <point x="409" y="514" type="curve" smooth="yes"/>
      <point x="451" y="514"/>
      <point x="468" y="487"/>
      <point x="471" y="455" type="curve"/>
      <point x="401" y="455" type="line" smooth="yes"/>
      <point x="282" y="455"/>
      <point x="209" y="444"/>
      <point x="148" y="414" type="curve" smooth="yes"/>
      <point x="77" y="380"/>
      <point x="33" y="321"/>
      <point x="33" y="228" type="curve" smooth="yes"/>
      <point x="33" y="72"/>
      <point x="149" y="-11"/>
    </contour>
    <contour>
      <point x="502" y="-271" type="curve" smooth="yes"/>
      <point x="554" y="-271"/>
      <point x="584" y="-266"/>
      <point x="627" y="-250" type="curve"/>
      <point x="600" y="-154" type="line"/>
      <point x="572" y="-167"/>
      <point x="553" y="-170"/>
      <point x="526" y="-170" type="curve" smooth="yes"/>
      <point x="487" y="-170"/>
      <point x="453" y="-156"/>
      <point x="453" y="-104" type="curve" smooth="yes"/>
      <point x="453" y="-63"/>
      <point x="481" y="-2"/>
      <point x="562" y="48" type="curve"/>
      <point x="555" y="92" type="line"/>
      <point x="495" y="77" type="line"/>
      <point x="381" y="26"/>
      <point x="334" y="-43"/>
      <point x="334" y="-125" type="curve" smooth="yes"/>
      <point x="334" y="-217"/>
      <point x="388" y="-271"/>
    </contour>
  </outline>
</glyph>
<glyph name="dhasinh" format="2">
  <advance width="885"/>
  <unicode hex="0DB0"/>
  <outline>
    <contour>
      <point x="605" y="-11" type="curve" smooth="yes"/>
      <point x="740" y="-11"/>
      <point x="847" y="84"/>
      <point x="847" y="350" type="curve" smooth="yes"/>
      <point x="847" y="672"/>
      <point x="680" y="836"/>
      <point x="414" y="836" type="curve" smooth="yes"/>
      <point x="261" y="836"/>
      <point x="147" y="801"/>
      <point x="48" y="749" type="curve"/>
      <point x="96" y="648" type="line"/>
      <point x="177" y="697"/>
      <point x="270" y="728"/>
      <point x="401" y="728" type="curve" smooth="yes"/>
      <point x="624" y="728"/>
      <point x="733" y="586"/>
      <point x="733" y="352" type="curve" smooth="yes"/>
      <point x="733" y="187"/>
      <point x="680" y="121"/>
      <point x="588" y="121" type="curve" smooth="yes"/>
      <point x="510" y="121"/>
      <point x="474" y="163"/>
      <point x="474" y="233" type="curve" smooth="yes"/>
      <point x="474" y="241" type="line"/>
      <point x="369" y="241" type="line"/>
      <point x="369" y="233" type="line" smooth="yes"/>
      <point x="369" y="157"/>
      <point x="322" y="121"/>
      <point x="247" y="121" type="curve" smooth="yes"/>
      <point x="181" y="121"/>
      <point x="144" y="162"/>
      <point x="144" y="235" type="curve" smooth="yes"/>
      <point x="144" y="327"/>
      <point x="210" y="378"/>
      <point x="359" y="378" type="curve" smooth="yes"/>
      <point x="385" y="378"/>
      <point x="416" y="376"/>
      <point x="436" y="373" type="curve"/>
      <point x="444" y="480" type="line"/>
      <point x="422" y="483"/>
      <point x="378" y="486"/>
      <point x="350" y="486" type="curve" smooth="yes"/>
      <point x="131" y="486"/>
      <point x="33" y="372"/>
      <point x="33" y="230" type="curve" smooth="yes"/>
      <point x="33" y="66"/>
      <point x="124" y="-11"/>
      <point x="243" y="-11" type="curve" smooth="yes"/>
      <point x="334" y="-11"/>
      <point x="379" y="17"/>
      <point x="422" y="72" type="curve"/>
      <point x="460" y="21"/>
      <point x="506" y="-11"/>
    </contour>
  </outline>
</glyph>
<glyph name="nasinh" format="2">
  <advance width="976"/>
  <unicode hex="0DB1"/>
  <outline>
    <contour>
      <point x="377" y="-11" type="curve" smooth="yes"/>
      <point x="616" y="-11"/>
      <point x="670" y="125"/>
      <point x="670" y="230" type="curve" smooth="yes"/>
      <point x="670" y="360"/>
      <point x="601" y="447"/>
      <point x="445" y="447" type="curve" smooth="yes"/>
      <point x="384" y="447"/>
      <point x="332" y="428"/>
      <point x="298" y="403" type="curve"/>
      <point x="261" y="321" type="line"/>
      <point x="327" y="343"/>
      <point x="372" y="352"/>
      <point x="414" y="352" type="curve" smooth="yes"/>
      <point x="532" y="352"/>
      <point x="560" y="300"/>
      <point x="560" y="245" type="curve" smooth="yes"/>
      <point x="560" y="167"/>
      <point x="497" y="122"/>
      <point x="378" y="122" type="curve" smooth="yes"/>
      <point x="263" y="122"/>
      <point x="163" y="164"/>
      <point x="125" y="317" type="curve"/>
      <point x="22" y="298" type="line"/>
      <point x="66" y="85"/>
      <point x="184" y="-11"/>
    </contour>
    <contour>
      <point x="694" y="-2" type="curve" smooth="yes"/>
      <point x="839" y="-2"/>
      <point x="943" y="94"/>
      <point x="943" y="287" type="curve" smooth="yes"/>
      <point x="943" y="477"/>
      <point x="824" y="612"/>
      <point x="607" y="612" type="curve" smooth="yes"/>
      <point x="469" y="612"/>
      <point x="377" y="543"/>
      <point x="317" y="463" type="curve"/>
      <point x="300" y="443" type="line"/>
      <point x="265" y="314"/>
      <point x="201" y="282"/>
      <point x="131" y="282" type="curve" smooth="yes"/>
      <point x="109" y="282"/>
      <point x="87" y="283"/>
      <point x="67" y="288" type="curve"/>
      <point x="65" y="195" type="line"/>
      <point x="79" y="191"/>
      <point x="98" y="187"/>
      <point x="133" y="187" type="curve" smooth="yes"/>
      <point x="261" y="187"/>
      <point x="351" y="235"/>
      <point x="385" y="363" type="curve"/>
      <point x="396" y="404" type="line"/>
      <point x="437" y="456"/>
      <point x="496" y="493"/>
      <point x="596" y="493" type="curve" smooth="yes"/>
      <point x="737" y="493"/>
      <point x="831" y="410"/>
      <point x="831" y="276" type="curve" smooth="yes"/>
      <point x="831" y="175"/>
      <point x="795" y="103"/>
      <point x="677" y="103" type="curve" smooth="yes"/>
      <point x="667" y="103"/>
      <point x="652" y="104"/>
      <point x="644" y="104" type="curve"/>
      <point x="640" y="0" type="line"/>
      <point x="657" y="-2"/>
      <point x="671" y="-2"/>
    </contour>
    <contour>
      <point x="226" y="593" type="curve" smooth="yes"/>
      <point x="125" y="593"/>
      <point x="70" y="542"/>
      <point x="70" y="460" type="curve" smooth="yes"/>
      <point x="70" y="429"/>
      <point x="75" y="405"/>
      <point x="83" y="379" type="curve"/>
      <point x="194" y="401" type="line"/>
      <point x="190" y="415"/>
      <point x="186" y="433"/>
      <point x="186" y="447" type="curve" smooth="yes"/>
      <point x="186" y="473"/>
      <point x="195" y="495"/>
      <point x="228" y="495" type="curve" smooth="yes"/>
      <point x="261" y="495"/>
      <point x="286" y="465"/>
      <point x="292" y="409" type="curve"/>
      <point x="387" y="441" type="line"/>
      <point x="367" y="538"/>
      <point x="327" y="593"/>
    </contour>
  </outline>
</glyph>
<glyph name="ndasinh" format="2">
  <advance width="757"/>
  <unicode hex="0DB3"/>
  <outline>
    <contour>
      <point x="509" y="-11" type="curve" smooth="yes"/>
      <point x="604" y="-11"/>
      <point x="680" y="0"/>
      <point x="749" y="34" type="curve"/>
      <point x="723" y="136" type="line"/>
      <point x="682" y="113"/>
      <point x="601" y="98"/>
      <point x="533" y="98" type="curve" smooth="yes"/>
      <point x="393" y="98"/>
      <point x="333" y="148"/>
      <point x="333" y="230" type="curve" smooth="yes"/>
      <point x="333" y="273"/>
      <point x="352" y="308"/>
      <point x="391" y="329" type="curve" smooth="yes"/>
      <point x="423" y="346"/>
      <point x="461" y="357"/>
      <point x="571" y="357" type="curve" smooth="yes"/>
      <point x="729" y="357" type="line"/>
      <point x="729" y="390" type="line" smooth="yes"/>
      <point x="729" y="531"/>
      <point x="675" y="612"/>
      <point x="544" y="612" type="curve" smooth="yes"/>
      <point x="457" y="612"/>
      <point x="391" y="557"/>
      <point x="391" y="494" type="curve" smooth="yes"/>
      <point x="391" y="486"/>
      <point x="392" y="469"/>
      <point x="393" y="461" type="curve"/>
      <point x="503" y="470" type="line"/>
      <point x="503" y="472"/>
      <point x="503" y="473"/>
      <point x="503" y="475" type="curve" smooth="yes"/>
      <point x="503" y="500"/>
      <point x="519" y="514"/>
      <point x="555" y="514" type="curve" smooth="yes"/>
      <point x="597" y="514"/>
      <point x="614" y="487"/>
      <point x="617" y="455" type="curve"/>
      <point x="549" y="455" type="line" smooth="yes"/>
      <point x="436" y="455"/>
      <point x="366" y="444"/>
      <point x="307" y="414" type="curve" smooth="yes"/>
      <point x="240" y="380"/>
      <point x="197" y="321"/>
      <point x="197" y="228" type="curve" smooth="yes"/>
      <point x="197" y="72"/>
      <point x="309" y="-11"/>
    </contour>
    <contour>
      <point x="647" y="-271" type="curve" smooth="yes"/>
      <point x="700" y="-271"/>
      <point x="730" y="-266"/>
      <point x="773" y="-250" type="curve"/>
      <point x="746" y="-154" type="line"/>
      <point x="718" y="-167"/>
      <point x="698" y="-170"/>
      <point x="672" y="-170" type="curve" smooth="yes"/>
      <point x="633" y="-170"/>
      <point x="599" y="-156"/>
      <point x="599" y="-104" type="curve" smooth="yes"/>
      <point x="599" y="-63"/>
      <point x="627" y="-2"/>
      <point x="708" y="48" type="curve"/>
      <point x="700" y="92" type="line"/>
      <point x="641" y="77" type="line"/>
      <point x="527" y="26"/>
      <point x="480" y="-43"/>
      <point x="480" y="-125" type="curve" smooth="yes"/>
      <point x="480" y="-217"/>
      <point x="534" y="-271"/>
    </contour>
    <contour>
      <point x="33" y="309" type="curve" smooth="yes"/>
      <point x="33" y="218"/>
      <point x="59" y="144"/>
      <point x="92" y="82" type="curve"/>
      <point x="188" y="127" type="line"/>
      <point x="158" y="185"/>
      <point x="143" y="235"/>
      <point x="143" y="303" type="curve" smooth="yes"/>
      <point x="143" y="434"/>
      <point x="226" y="519"/>
      <point x="385" y="519" type="curve" smooth="yes"/>
      <point x="396" y="519"/>
      <point x="424" y="517"/>
      <point x="433" y="517" type="curve"/>
      <point x="496" y="604" type="line"/>
      <point x="458" y="611"/>
      <point x="419" y="612"/>
      <point x="364" y="612" type="curve" smooth="yes"/>
      <point x="161" y="612"/>
      <point x="33" y="509"/>
    </contour>
  </outline>
</glyph>
<glyph name="pasinh" format="2">
  <advance width="822"/>
  <unicode hex="0DB4"/>
  <outline>
    <contour>
      <point x="410" y="-11" type="curve" smooth="yes"/>
      <point x="677" y="-11"/>
      <point x="789" y="87"/>
      <point x="789" y="247" type="curve" smooth="yes"/>
      <point x="789" y="384"/>
      <point x="705" y="455"/>
      <point x="534" y="455" type="curve"/>
      <point x="531" y="455" type="line"/>
      <point x="538" y="452" type="line"/>
      <point x="541" y="487"/>
      <point x="560" y="514"/>
      <point x="603" y="514" type="curve" smooth="yes"/>
      <point x="637" y="514"/>
      <point x="652" y="500"/>
      <point x="652" y="475" type="curve" smooth="yes"/>
      <point x="652" y="470"/>
      <point x="652" y="464"/>
      <point x="651" y="459" type="curve"/>
      <point x="759" y="449" type="line"/>
      <point x="762" y="466"/>
      <point x="764" y="484"/>
      <point x="764" y="494" type="curve" smooth="yes"/>
      <point x="764" y="575"/>
      <point x="707" y="612"/>
      <point x="612" y="612" type="curve" smooth="yes"/>
      <point x="482" y="612"/>
      <point x="426" y="526"/>
      <point x="426" y="397" type="curve" smooth="yes"/>
      <point x="426" y="357" type="line"/>
      <point x="494" y="357" type="line" smooth="yes"/>
      <point x="564" y="357"/>
      <point x="605" y="352"/>
      <point x="633" y="337" type="curve" smooth="yes"/>
      <point x="664" y="321"/>
      <point x="679" y="295"/>
      <point x="679" y="256" type="curve" smooth="yes"/>
      <point x="679" y="179"/>
      <point x="604" y="125"/>
      <point x="410" y="125" type="curve" smooth="yes"/>
      <point x="213" y="125"/>
      <point x="143" y="180"/>
      <point x="143" y="256" type="curve" smooth="yes"/>
      <point x="143" y="293"/>
      <point x="156" y="318"/>
      <point x="183" y="334" type="curve" smooth="yes"/>
      <point x="212" y="351"/>
      <point x="256" y="357"/>
      <point x="332" y="357" type="curve" smooth="yes"/>
      <point x="396" y="357" type="line"/>
      <point x="396" y="396" type="line" smooth="yes"/>
      <point x="396" y="526"/>
      <point x="340" y="612"/>
      <point x="211" y="612" type="curve" smooth="yes"/>
      <point x="115" y="612"/>
      <point x="58" y="573"/>
      <point x="58" y="494" type="curve" smooth="yes"/>
      <point x="58" y="484"/>
      <point x="59" y="465"/>
      <point x="62" y="449" type="curve"/>
      <point x="171" y="459" type="line"/>
      <point x="170" y="464"/>
      <point x="170" y="470"/>
      <point x="170" y="475" type="curve" smooth="yes"/>
      <point x="170" y="500"/>
      <point x="186" y="514"/>
      <point x="221" y="514" type="curve" smooth="yes"/>
      <point x="264" y="514"/>
      <point x="282" y="487"/>
      <point x="284" y="452" type="curve"/>
      <point x="297" y="455" type="line"/>
      <point x="292" y="455" type="line"/>
      <point x="115" y="455"/>
      <point x="33" y="383"/>
      <point x="33" y="247" type="curve" smooth="yes"/>
      <point x="33" y="91"/>
      <point x="143" y="-11"/>
    </contour>
  </outline>
</glyph>
<glyph name="phasinh" format="2">
  <advance width="844"/>
  <unicode hex="0DB5"/>
  <outline>
    <contour>
      <point x="374" y="-11" type="curve" smooth="yes"/>
      <point x="698" y="-11"/>
      <point x="811" y="183"/>
      <point x="811" y="408" type="curve" smooth="yes"/>
      <point x="811" y="660"/>
      <point x="639" y="786"/>
      <point x="448" y="854" type="curve"/>
      <point x="400" y="757" type="line"/>
      <point x="418" y="751"/>
      <point x="436" y="748"/>
      <point x="454" y="741" type="curve"/>
      <point x="598" y="682"/>
      <point x="697" y="587"/>
      <point x="697" y="406" type="curve" smooth="yes"/>
      <point x="697" y="255"/>
      <point x="607" y="125"/>
      <point x="369" y="125" type="curve" smooth="yes"/>
      <point x="212" y="125"/>
      <point x="143" y="176"/>
      <point x="143" y="248" type="curve" smooth="yes"/>
      <point x="143" y="285"/>
      <point x="154" y="313"/>
      <point x="186" y="332" type="curve" smooth="yes"/>
      <point x="215" y="349"/>
      <point x="249" y="357"/>
      <point x="353" y="357" type="curve" smooth="yes"/>
      <point x="464" y="357" type="line"/>
      <point x="464" y="391" type="line" smooth="yes"/>
      <point x="464" y="532"/>
      <point x="407" y="612"/>
      <point x="279" y="612" type="curve" smooth="yes"/>
      <point x="183" y="612"/>
      <point x="126" y="573"/>
      <point x="126" y="494" type="curve" smooth="yes"/>
      <point x="126" y="484"/>
      <point x="127" y="466"/>
      <point x="129" y="452" type="curve"/>
      <point x="239" y="461" type="line"/>
      <point x="238" y="467"/>
      <point x="238" y="470"/>
      <point x="238" y="475" type="curve" smooth="yes"/>
      <point x="238" y="500"/>
      <point x="253" y="514"/>
      <point x="290" y="514" type="curve" smooth="yes"/>
      <point x="332" y="514"/>
      <point x="349" y="487"/>
      <point x="352" y="455" type="curve"/>
      <point x="342" y="455" type="line" smooth="yes"/>
      <point x="232" y="455"/>
      <point x="168" y="441"/>
      <point x="123" y="415" type="curve" smooth="yes"/>
      <point x="62" y="380"/>
      <point x="33" y="324"/>
      <point x="33" y="250" type="curve" smooth="yes"/>
      <point x="33" y="88"/>
      <point x="157" y="-11"/>
    </contour>
    <contour>
      <point x="557" y="505" type="curve" smooth="yes"/>
      <point x="635" y="505"/>
      <point x="682" y="542"/>
      <point x="727" y="600" type="curve"/>
      <point x="646" y="660" type="line"/>
      <point x="628" y="625"/>
      <point x="609" y="604"/>
      <point x="577" y="604" type="curve" smooth="yes"/>
      <point x="549" y="604"/>
      <point x="532" y="615"/>
      <point x="529" y="664" type="curve" smooth="yes"/>
      <point x="526" y="707"/>
      <point x="510" y="750"/>
      <point x="460" y="762" type="curve"/>
      <point x="400" y="757" type="line"/>
      <point x="419" y="750"/>
      <point x="424" y="729"/>
      <point x="424" y="669" type="curve" smooth="yes"/>
      <point x="424" y="557"/>
      <point x="467" y="505"/>
    </contour>
  </outline>
</glyph>
<glyph name="basinh" format="2">
  <advance width="910"/>
  <unicode hex="0DB6"/>
  <outline>
    <contour>
      <point x="598" y="-11" type="curve" smooth="yes"/>
      <point x="784" y="-11"/>
      <point x="872" y="149"/>
      <point x="872" y="382" type="curve" smooth="yes"/>
      <point x="872" y="650"/>
      <point x="738" y="836"/>
      <point x="422" y="836" type="curve" smooth="yes"/>
      <point x="305" y="836"/>
      <point x="179" y="812"/>
      <point x="57" y="749" type="curve"/>
      <point x="104" y="648" type="line"/>
      <point x="197" y="700"/>
      <point x="294" y="728"/>
      <point x="416" y="728" type="curve" smooth="yes"/>
      <point x="669" y="728"/>
      <point x="758" y="578"/>
      <point x="758" y="373" type="curve" smooth="yes"/>
      <point x="758" y="224"/>
      <point x="700" y="116"/>
      <point x="617" y="116" type="curve" smooth="yes"/>
      <point x="589" y="116"/>
      <point x="563" y="128"/>
      <point x="563" y="160" type="curve" smooth="yes"/>
      <point x="563" y="180"/>
      <point x="568" y="195"/>
      <point x="581" y="232" type="curve" smooth="yes"/>
      <point x="596" y="274"/>
      <point x="608" y="314"/>
      <point x="608" y="356" type="curve" smooth="yes"/>
      <point x="608" y="488"/>
      <point x="505" y="567"/>
      <point x="353" y="567" type="curve" smooth="yes"/>
      <point x="138" y="567"/>
      <point x="33" y="421"/>
      <point x="33" y="249" type="curve" smooth="yes"/>
      <point x="33" y="86"/>
      <point x="118" y="-11"/>
      <point x="264" y="-11" type="curve" smooth="yes"/>
      <point x="372" y="-11"/>
      <point x="422" y="40"/>
      <point x="422" y="122" type="curve" smooth="yes"/>
      <point x="422" y="195"/>
      <point x="382" y="256"/>
      <point x="280" y="256" type="curve" smooth="yes"/>
      <point x="216" y="256"/>
      <point x="162" y="226"/>
      <point x="123" y="185" type="curve"/>
      <point x="159" y="109" type="line"/>
      <point x="190" y="142"/>
      <point x="223" y="162"/>
      <point x="263" y="162" type="curve" smooth="yes"/>
      <point x="296" y="162"/>
      <point x="312" y="146"/>
      <point x="312" y="124" type="curve" smooth="yes"/>
      <point x="312" y="96"/>
      <point x="291" y="85"/>
      <point x="260" y="85" type="curve" smooth="yes"/>
      <point x="215" y="85"/>
      <point x="177" y="104"/>
      <point x="155" y="157" type="curve" smooth="yes"/>
      <point x="145" y="181"/>
      <point x="139" y="209"/>
      <point x="139" y="229" type="curve" smooth="yes"/>
      <point x="139" y="355"/>
      <point x="211" y="441"/>
      <point x="340" y="441" type="curve" smooth="yes"/>
      <point x="433" y="441"/>
      <point x="480" y="393"/>
      <point x="480" y="328" type="curve" smooth="yes"/>
      <point x="480" y="293"/>
      <point x="471" y="264"/>
      <point x="459" y="229" type="curve" smooth="yes"/>
      <point x="448" y="198"/>
      <point x="436" y="160"/>
      <point x="436" y="126" type="curve" smooth="yes"/>
      <point x="436" y="39"/>
      <point x="497" y="-11"/>
    </contour>
  </outline>
</glyph>
<glyph name="masinh" format="2">
  <advance width="879"/>
  <unicode hex="0DB8"/>
  <outline>
    <contour>
      <point x="417" y="-11" type="curve" smooth="yes"/>
      <point x="729" y="-11"/>
      <point x="847" y="174"/>
      <point x="847" y="420" type="curve" smooth="yes"/>
      <point x="847" y="710"/>
      <point x="653" y="836"/>
      <point x="421" y="836" type="curve" smooth="yes"/>
      <point x="269" y="836"/>
      <point x="156" y="801"/>
      <point x="56" y="749" type="curve"/>
      <point x="104" y="648" type="line"/>
      <point x="184" y="696"/>
      <point x="289" y="728"/>
      <point x="412" y="728" type="curve" smooth="yes"/>
      <point x="575" y="728"/>
      <point x="733" y="646"/>
      <point x="733" y="419" type="curve" smooth="yes"/>
      <point x="733" y="249"/>
      <point x="640" y="118"/>
      <point x="419" y="118" type="curve" smooth="yes"/>
      <point x="240" y="118"/>
      <point x="140" y="193"/>
      <point x="140" y="347" type="curve" smooth="yes"/>
      <point x="140" y="419"/>
      <point x="166" y="473"/>
      <point x="203" y="473" type="curve" smooth="yes"/>
      <point x="221" y="473"/>
      <point x="227" y="465"/>
      <point x="227" y="444" type="curve" smooth="yes"/>
      <point x="227" y="421"/>
      <point x="215" y="389"/>
      <point x="215" y="353" type="curve" smooth="yes"/>
      <point x="215" y="275"/>
      <point x="262" y="191"/>
      <point x="423" y="191" type="curve" smooth="yes"/>
      <point x="547" y="191"/>
      <point x="639" y="256"/>
      <point x="639" y="393" type="curve" smooth="yes"/>
      <point x="639" y="508"/>
      <point x="574" y="576"/>
      <point x="479" y="576" type="curve" smooth="yes"/>
      <point x="389" y="576"/>
      <point x="336" y="523"/>
      <point x="336" y="450" type="curve" smooth="yes"/>
      <point x="336" y="378"/>
      <point x="377" y="328"/>
      <point x="461" y="328" type="curve" smooth="yes"/>
      <point x="512" y="328"/>
      <point x="542" y="345"/>
      <point x="573" y="375" type="curve"/>
      <point x="542" y="436" type="line"/>
      <point x="512" y="420"/>
      <point x="496" y="416"/>
      <point x="476" y="416" type="curve" smooth="yes"/>
      <point x="449" y="416"/>
      <point x="435" y="428"/>
      <point x="435" y="451" type="curve" smooth="yes"/>
      <point x="435" y="469"/>
      <point x="450" y="483"/>
      <point x="475" y="483" type="curve" smooth="yes"/>
      <point x="515" y="483"/>
      <point x="534" y="447"/>
      <point x="534" y="384" type="curve" smooth="yes"/>
      <point x="534" y="322"/>
      <point x="497" y="287"/>
      <point x="418" y="287" type="curve" smooth="yes"/>
      <point x="352" y="287"/>
      <point x="320" y="319"/>
      <point x="320" y="370" type="curve" smooth="yes"/>
      <point x="320" y="402"/>
      <point x="332" y="442"/>
      <point x="332" y="480" type="curve" smooth="yes"/>
      <point x="332" y="519"/>
      <point x="310" y="576"/>
      <point x="221" y="576" type="curve" smooth="yes"/>
      <point x="112" y="576"/>
      <point x="32" y="491"/>
      <point x="32" y="333" type="curve" smooth="yes"/>
      <point x="32" y="117"/>
      <point x="175" y="-11"/>
    </contour>
  </outline>
</glyph>
<glyph name="mbasinh" format="2">
  <advance width="917"/>
  <unicode hex="0DB9"/>
  <outline>
    <contour>
      <point x="336" y="-7" type="curve" smooth="yes"/>
      <point x="350" y="-7"/>
      <point x="370" y="-5"/>
      <point x="390" y="-1" type="curve"/>
      <point x="359" y="117" type="line"/>
      <point x="346" y="114"/>
      <point x="337" y="114"/>
      <point x="317" y="114" type="curve" smooth="yes"/>
      <point x="210" y="114"/>
      <point x="145" y="190"/>
      <point x="145" y="320" type="curve" smooth="yes"/>
      <point x="145" y="400"/>
      <point x="177" y="473"/>
      <point x="225" y="473" type="curve" smooth="yes"/>
      <point x="242" y="473"/>
      <point x="249" y="462"/>
      <point x="249" y="443" type="curve" smooth="yes"/>
      <point x="249" y="420"/>
      <point x="237" y="391"/>
      <point x="237" y="353" type="curve" smooth="yes"/>
      <point x="237" y="278"/>
      <point x="282" y="198"/>
      <point x="444" y="198" type="curve" smooth="yes"/>
      <point x="568" y="198"/>
      <point x="660" y="254"/>
      <point x="660" y="393" type="curve" smooth="yes"/>
      <point x="660" y="508"/>
      <point x="596" y="576"/>
      <point x="500" y="576" type="curve" smooth="yes"/>
      <point x="410" y="576"/>
      <point x="357" y="523"/>
      <point x="357" y="450" type="curve" smooth="yes"/>
      <point x="357" y="378"/>
      <point x="398" y="328"/>
      <point x="482" y="328" type="curve" smooth="yes"/>
      <point x="533" y="328"/>
      <point x="563" y="345"/>
      <point x="594" y="375" type="curve"/>
      <point x="563" y="436" type="line"/>
      <point x="534" y="420"/>
      <point x="518" y="416"/>
      <point x="497" y="416" type="curve" smooth="yes"/>
      <point x="470" y="416"/>
      <point x="456" y="428"/>
      <point x="456" y="451" type="curve" smooth="yes"/>
      <point x="456" y="469"/>
      <point x="471" y="483"/>
      <point x="497" y="483" type="curve" smooth="yes"/>
      <point x="536" y="483"/>
      <point x="555" y="447"/>
      <point x="555" y="384" type="curve" smooth="yes"/>
      <point x="555" y="322"/>
      <point x="518" y="287"/>
      <point x="438" y="287" type="curve" smooth="yes"/>
      <point x="371" y="287"/>
      <point x="341" y="319"/>
      <point x="341" y="370" type="curve" smooth="yes"/>
      <point x="341" y="402"/>
      <point x="353" y="442"/>
      <point x="353" y="480" type="curve" smooth="yes"/>
      <point x="353" y="519"/>
      <point x="332" y="576"/>
      <point x="240" y="576" type="curve" smooth="yes"/>
      <point x="118" y="576"/>
      <point x="37" y="474"/>
      <point x="37" y="309" type="curve" smooth="yes"/>
      <point x="37" y="121"/>
      <point x="136" y="-7"/>
    </contour>
    <contour>
      <point x="547" y="-7" type="curve" smooth="yes"/>
      <point x="811" y="-7"/>
      <point x="880" y="178"/>
      <point x="880" y="368" type="curve" smooth="yes"/>
      <point x="880" y="694"/>
      <point x="700" y="836"/>
      <point x="442" y="836" type="curve" smooth="yes"/>
      <point x="287" y="836"/>
      <point x="174" y="802"/>
      <point x="63" y="746" type="curve"/>
      <point x="111" y="646" type="line"/>
      <point x="202" y="698"/>
      <point x="302" y="728"/>
      <point x="433" y="728" type="curve" smooth="yes"/>
      <point x="623" y="728"/>
      <point x="766" y="631"/>
      <point x="766" y="376" type="curve" smooth="yes"/>
      <point x="766" y="254"/>
      <point x="720" y="114"/>
      <point x="562" y="114" type="curve" smooth="yes"/>
      <point x="546" y="114"/>
      <point x="526" y="115"/>
      <point x="508" y="119" type="curve"/>
      <point x="475" y="-2" type="line"/>
      <point x="495" y="-4"/>
      <point x="521" y="-7"/>
    </contour>
    <contour>
      <point x="435" y="161" type="curve" smooth="yes"/>
      <point x="470" y="161"/>
      <point x="495" y="153"/>
      <point x="495" y="132" type="curve" smooth="yes"/>
      <point x="495" y="119"/>
      <point x="488" y="110"/>
      <point x="462" y="105" type="curve"/>
      <point x="475" y="-2" type="line"/>
      <point x="530" y="70" type="line"/>
      <point x="575" y="87"/>
      <point x="600" y="119"/>
      <point x="600" y="155" type="curve" smooth="yes"/>
      <point x="600" y="219"/>
      <point x="523" y="242"/>
      <point x="444" y="242" type="curve" smooth="yes"/>
      <point x="423" y="242" type="line" smooth="yes"/>
      <point x="339" y="242"/>
      <point x="265" y="222"/>
      <point x="265" y="157" type="curve" smooth="yes"/>
      <point x="265" y="118"/>
      <point x="290" y="87"/>
      <point x="334" y="70" type="curve"/>
      <point x="390" y="-1" type="line"/>
      <point x="402" y="105" type="line"/>
      <point x="376" y="109"/>
      <point x="370" y="120"/>
      <point x="370" y="132" type="curve" smooth="yes"/>
      <point x="370" y="153"/>
      <point x="395" y="161"/>
    </contour>
  </outline>
</glyph>
<glyph name="yasinh" format="2">
  <advance width="853"/>
  <unicode hex="0DBA"/>
  <outline>
    <contour>
      <point x="607" y="-11" type="curve" smooth="yes"/>
      <point x="726" y="-11"/>
      <point x="820" y="62"/>
      <point x="820" y="226" type="curve" smooth="yes"/>
      <point x="820" y="414"/>
      <point x="666" y="455"/>
      <point x="542" y="455" type="curve"/>
      <point x="539" y="455" type="line"/>
      <point x="547" y="452" type="line"/>
      <point x="550" y="487"/>
      <point x="569" y="514"/>
      <point x="612" y="514" type="curve" smooth="yes"/>
      <point x="646" y="514"/>
      <point x="661" y="500"/>
      <point x="661" y="475" type="curve" smooth="yes"/>
      <point x="661" y="470"/>
      <point x="661" y="465"/>
      <point x="660" y="459" type="curve"/>
      <point x="768" y="449" type="line"/>
      <point x="771" y="466"/>
      <point x="773" y="484"/>
      <point x="773" y="494" type="curve" smooth="yes"/>
      <point x="773" y="575"/>
      <point x="715" y="612"/>
      <point x="621" y="612" type="curve" smooth="yes"/>
      <point x="491" y="612"/>
      <point x="435" y="526"/>
      <point x="435" y="397" type="curve" smooth="yes"/>
      <point x="435" y="357" type="line"/>
      <point x="489" y="357" type="line" smooth="yes"/>
      <point x="556" y="357"/>
      <point x="606" y="352"/>
      <point x="640" y="338" type="curve" smooth="yes"/>
      <point x="692" y="316"/>
      <point x="710" y="278"/>
      <point x="710" y="226" type="curve" smooth="yes"/>
      <point x="710" y="158"/>
      <point x="668" y="121"/>
      <point x="601" y="121" type="curve" smooth="yes"/>
      <point x="519" y="121"/>
      <point x="478" y="161"/>
      <point x="478" y="234" type="curve" smooth="yes"/>
      <point x="478" y="241" type="line"/>
      <point x="373" y="241" type="line"/>
      <point x="373" y="233" type="line" smooth="yes"/>
      <point x="373" y="158"/>
      <point x="326" y="121"/>
      <point x="252" y="121" type="curve" smooth="yes"/>
      <point x="183" y="121"/>
      <point x="144" y="162"/>
      <point x="144" y="235" type="curve" smooth="yes"/>
      <point x="144" y="327"/>
      <point x="214" y="379"/>
      <point x="344" y="379" type="curve" smooth="yes"/>
      <point x="361" y="379"/>
      <point x="371" y="378"/>
      <point x="380" y="377" type="curve"/>
      <point x="385" y="483" type="line"/>
      <point x="374" y="485"/>
      <point x="354" y="486"/>
      <point x="334" y="486" type="curve" smooth="yes"/>
      <point x="133" y="486"/>
      <point x="33" y="372"/>
      <point x="33" y="231" type="curve" smooth="yes"/>
      <point x="33" y="66"/>
      <point x="126" y="-11"/>
      <point x="246" y="-11" type="curve" smooth="yes"/>
      <point x="338" y="-11"/>
      <point x="384" y="18"/>
      <point x="427" y="72" type="curve"/>
      <point x="467" y="21"/>
      <point x="511" y="-11"/>
    </contour>
  </outline>
</glyph>
<glyph name="rasinh" format="2">
  <advance width="724"/>
  <unicode hex="0DBB"/>
  <outline>
    <contour>
      <point x="355" y="-11" type="curve" smooth="yes"/>
      <point x="571" y="-11"/>
      <point x="691" y="93"/>
      <point x="691" y="290" type="curve" smooth="yes"/>
      <point x="691" y="468"/>
      <point x="575" y="568"/>
      <point x="403" y="568" type="curve" smooth="yes"/>
      <point x="360" y="568"/>
      <point x="328" y="564"/>
      <point x="306" y="555" type="curve"/>
      <point x="210" y="453" type="line"/>
      <point x="258" y="471"/>
      <point x="299" y="478"/>
      <point x="361" y="478" type="curve" smooth="yes"/>
      <point x="500" y="478"/>
      <point x="581" y="412"/>
      <point x="581" y="300" type="curve" smooth="yes"/>
      <point x="581" y="194"/>
      <point x="506" y="125"/>
      <point x="355" y="125" type="curve" smooth="yes"/>
      <point x="214" y="125"/>
      <point x="144" y="194"/>
      <point x="144" y="293" type="curve" smooth="yes"/>
      <point x="144" y="392"/>
      <point x="194" y="458"/>
      <point x="340" y="511" type="curve"/>
      <point x="390" y="538" type="line"/>
      <point x="495" y="576"/>
      <point x="576" y="619"/>
      <point x="712" y="724" type="curve"/>
      <point x="636" y="810" type="line"/>
      <point x="520" y="720"/>
      <point x="405" y="646"/>
      <point x="289" y="587" type="curve"/>
      <point x="110" y="515"/>
      <point x="34" y="427"/>
      <point x="34" y="278" type="curve" smooth="yes"/>
      <point x="34" y="93"/>
      <point x="160" y="-11"/>
    </contour>
  </outline>
</glyph>
<glyph name="lasinh" format="2">
  <advance width="900"/>
  <unicode hex="0DBD"/>
  <outline>
    <contour>
      <point x="472" y="-227" type="curve" smooth="yes"/>
      <point x="702" y="-227"/>
      <point x="872" y="-110"/>
      <point x="872" y="118" type="curve" smooth="yes"/>
      <point x="872" y="132"/>
      <point x="871" y="146"/>
      <point x="869" y="161" type="curve"/>
      <point x="760" y="157" type="line"/>
      <point x="761" y="147"/>
      <point x="761" y="131"/>
      <point x="761" y="125" type="curve" smooth="yes"/>
      <point x="761" y="-29"/>
      <point x="648" y="-113"/>
      <point x="484" y="-113" type="curve" smooth="yes"/>
      <point x="263" y="-113"/>
      <point x="168" y="5"/>
      <point x="168" y="187" type="curve" smooth="yes"/>
      <point x="168" y="383"/>
      <point x="285" y="505"/>
      <point x="526" y="505" type="curve" smooth="yes"/>
      <point x="681" y="505"/>
      <point x="752" y="460"/>
      <point x="752" y="374" type="curve" smooth="yes"/>
      <point x="752" y="302"/>
      <point x="712" y="268"/>
      <point x="631" y="268" type="curve" smooth="yes"/>
      <point x="583" y="268"/>
      <point x="549" y="276"/>
      <point x="549" y="311" type="curve" smooth="yes"/>
      <point x="549" y="328"/>
      <point x="560" y="339"/>
      <point x="575" y="352" type="curve"/>
      <point x="533" y="328" type="line"/>
      <point x="688" y="328" type="line"/>
      <point x="688" y="434" type="line"/>
      <point x="332" y="434" type="line"/>
      <point x="332" y="328" type="line"/>
      <point x="452" y="328" type="line"/>
      <point x="494" y="333" type="line"/>
      <point x="468" y="384" type="line"/>
      <point x="452" y="366"/>
      <point x="439" y="332"/>
      <point x="439" y="303" type="curve" smooth="yes"/>
      <point x="439" y="210"/>
      <point x="500" y="161"/>
      <point x="628" y="161" type="curve" smooth="yes"/>
      <point x="790" y="161"/>
      <point x="863" y="248"/>
      <point x="863" y="373" type="curve" smooth="yes"/>
      <point x="863" y="505"/>
      <point x="773" y="612"/>
      <point x="521" y="612" type="curve" smooth="yes"/>
      <point x="194" y="612"/>
      <point x="35" y="409"/>
      <point x="35" y="182" type="curve" smooth="yes"/>
      <point x="35" y="-54"/>
      <point x="165" y="-227"/>
    </contour>
  </outline>
</glyph>
<glyph name="vasinh" format="2">
  <advance width="844"/>
  <unicode hex="0DC0"/>
  <outline>
    <contour>
      <point x="374" y="-11" type="curve" smooth="yes"/>
      <point x="698" y="-11"/>
      <point x="811" y="181"/>
      <point x="811" y="412" type="curve" smooth="yes"/>
      <point x="811" y="716"/>
      <point x="615" y="836"/>
      <point x="391" y="836" type="curve" smooth="yes"/>
      <point x="260" y="836"/>
      <point x="156" y="811"/>
      <point x="45" y="749" type="curve"/>
      <point x="92" y="649" type="line"/>
      <point x="174" y="698"/>
      <point x="272" y="728"/>
      <point x="374" y="728" type="curve" smooth="yes"/>
      <point x="540" y="728"/>
      <point x="697" y="651"/>
      <point x="697" y="412" type="curve" smooth="yes"/>
      <point x="697" y="255"/>
      <point x="607" y="125"/>
      <point x="369" y="125" type="curve" smooth="yes"/>
      <point x="212" y="125"/>
      <point x="143" y="176"/>
      <point x="143" y="248" type="curve" smooth="yes"/>
      <point x="143" y="285"/>
      <point x="154" y="313"/>
      <point x="186" y="332" type="curve" smooth="yes"/>
      <point x="215" y="349"/>
      <point x="249" y="357"/>
      <point x="353" y="357" type="curve" smooth="yes"/>
      <point x="464" y="357" type="line"/>
      <point x="464" y="391" type="line" smooth="yes"/>
      <point x="464" y="532"/>
      <point x="407" y="612"/>
      <point x="279" y="612" type="curve" smooth="yes"/>
      <point x="183" y="612"/>
      <point x="126" y="573"/>
      <point x="126" y="494" type="curve" smooth="yes"/>
      <point x="126" y="484"/>
      <point x="127" y="466"/>
      <point x="129" y="452" type="curve"/>
      <point x="239" y="461" type="line"/>
      <point x="238" y="467"/>
      <point x="238" y="470"/>
      <point x="238" y="475" type="curve" smooth="yes"/>
      <point x="238" y="500"/>
      <point x="253" y="514"/>
      <point x="290" y="514" type="curve" smooth="yes"/>
      <point x="332" y="514"/>
      <point x="349" y="487"/>
      <point x="352" y="455" type="curve"/>
      <point x="342" y="455" type="line" smooth="yes"/>
      <point x="232" y="455"/>
      <point x="168" y="441"/>
      <point x="123" y="415" type="curve" smooth="yes"/>
      <point x="62" y="380"/>
      <point x="33" y="324"/>
      <point x="33" y="250" type="curve" smooth="yes"/>
      <point x="33" y="88"/>
      <point x="157" y="-11"/>
    </contour>
  </outline>
</glyph>
<glyph name="ssasinh" format="2">
  <advance width="822"/>
  <unicode hex="0DC2"/>
  <outline>
    <contour>
      <point x="410" y="-11" type="curve" smooth="yes"/>
      <point x="677" y="-11"/>
      <point x="789" y="87"/>
      <point x="789" y="247" type="curve" smooth="yes"/>
      <point x="789" y="384"/>
      <point x="705" y="455"/>
      <point x="534" y="455" type="curve" smooth="yes"/>
      <point x="529" y="455" type="line"/>
      <point x="538" y="452" type="line"/>
      <point x="541" y="486"/>
      <point x="559" y="515"/>
      <point x="601" y="515" type="curve" smooth="yes"/>
      <point x="635" y="515"/>
      <point x="652" y="498"/>
      <point x="652" y="469" type="curve" smooth="yes"/>
      <point x="652" y="447"/>
      <point x="644" y="426"/>
      <point x="625" y="405" type="curve"/>
      <point x="625" y="388" type="line"/>
      <point x="579" y="338"/>
      <point x="543" y="333"/>
      <point x="459" y="333" type="curve" smooth="yes"/>
      <point x="373" y="333" type="line" smooth="yes"/>
      <point x="304" y="333"/>
      <point x="272" y="328"/>
      <point x="249" y="313" type="curve" smooth="yes"/>
      <point x="219" y="295"/>
      <point x="208" y="269"/>
      <point x="208" y="237" type="curve" smooth="yes"/>
      <point x="208" y="172"/>
      <point x="268" y="128"/>
      <point x="406" y="128" type="curve" smooth="yes"/>
      <point x="567" y="128"/>
      <point x="604" y="182"/>
      <point x="604" y="236" type="curve" smooth="yes"/>
      <point x="604" y="261"/>
      <point x="595" y="287"/>
      <point x="572" y="309" type="curve"/>
      <point x="468" y="285" type="line"/>
      <point x="486" y="270"/>
      <point x="499" y="257"/>
      <point x="499" y="242" type="curve" smooth="yes"/>
      <point x="499" y="223"/>
      <point x="492" y="208"/>
      <point x="408" y="208" type="curve" smooth="yes"/>
      <point x="334" y="208"/>
      <point x="314" y="214"/>
      <point x="314" y="232" type="curve" smooth="yes"/>
      <point x="314" y="252"/>
      <point x="333" y="253"/>
      <point x="367" y="253" type="curve" smooth="yes"/>
      <point x="467" y="253" type="line" smooth="yes"/>
      <point x="583" y="253"/>
      <point x="657" y="276"/>
      <point x="724" y="360" type="curve" smooth="yes"/>
      <point x="748" y="392"/>
      <point x="764" y="425"/>
      <point x="764" y="477" type="curve" smooth="yes"/>
      <point x="764" y="571"/>
      <point x="702" y="612"/>
      <point x="612" y="612" type="curve" smooth="yes"/>
      <point x="482" y="612"/>
      <point x="426" y="531"/>
      <point x="426" y="391" type="curve" smooth="yes"/>
      <point x="426" y="360" type="line"/>
      <point x="513" y="360" type="line" smooth="yes"/>
      <point x="575" y="360"/>
      <point x="604" y="354"/>
      <point x="632" y="340" type="curve" smooth="yes"/>
      <point x="663" y="323"/>
      <point x="679" y="298"/>
      <point x="679" y="254" type="curve" smooth="yes"/>
      <point x="679" y="170"/>
      <point x="604" y="97"/>
      <point x="410" y="97" type="curve" smooth="yes"/>
      <point x="213" y="97"/>
      <point x="144" y="168"/>
      <point x="144" y="253" type="curve" smooth="yes"/>
      <point x="144" y="295"/>
      <point x="157" y="321"/>
      <point x="184" y="337" type="curve" smooth="yes"/>
      <point x="213" y="354"/>
      <point x="257" y="360"/>
      <point x="333" y="360" type="curve" smooth="yes"/>
      <point x="396" y="360" type="line"/>
      <point x="396" y="391" type="line" smooth="yes"/>
      <point x="396" y="526"/>
      <point x="340" y="612"/>
      <point x="211" y="612" type="curve" smooth="yes"/>
      <point x="115" y="612"/>
      <point x="58" y="573"/>
      <point x="58" y="494" type="curve" smooth="yes"/>
      <point x="58" y="484"/>
      <point x="59" y="465"/>
      <point x="62" y="449" type="curve"/>
      <point x="171" y="459" type="line"/>
      <point x="170" y="464"/>
      <point x="170" y="470"/>
      <point x="170" y="475" type="curve" smooth="yes"/>
      <point x="170" y="500"/>
      <point x="186" y="514"/>
      <point x="221" y="514" type="curve" smooth="yes"/>
      <point x="264" y="514"/>
      <point x="282" y="487"/>
      <point x="284" y="452" type="curve"/>
      <point x="297" y="455" type="line"/>
      <point x="292" y="455" type="line" smooth="yes"/>
      <point x="115" y="455"/>
      <point x="33" y="383"/>
      <point x="33" y="247" type="curve" smooth="yes"/>
      <point x="33" y="91"/>
      <point x="143" y="-11"/>
    </contour>
  </outline>
</glyph>
<glyph name="sasinh" format="2">
  <advance width="871"/>
  <unicode hex="0DC3"/>
  <outline>
    <contour>
      <point x="625" y="-11" type="curve" smooth="yes"/>
      <point x="744" y="-11"/>
      <point x="838" y="62"/>
      <point x="838" y="226" type="curve" smooth="yes"/>
      <point x="838" y="414"/>
      <point x="684" y="455"/>
      <point x="560" y="455" type="curve"/>
      <point x="554" y="455" type="line"/>
      <point x="571" y="452" type="line"/>
      <point x="574" y="487"/>
      <point x="593" y="514"/>
      <point x="636" y="514" type="curve" smooth="yes"/>
      <point x="670" y="514"/>
      <point x="685" y="500"/>
      <point x="685" y="475" type="curve" smooth="yes"/>
      <point x="685" y="470"/>
      <point x="685" y="464"/>
      <point x="684" y="459" type="curve"/>
      <point x="792" y="449" type="line"/>
      <point x="795" y="466"/>
      <point x="797" y="484"/>
      <point x="797" y="494" type="curve" smooth="yes"/>
      <point x="797" y="575"/>
      <point x="739" y="612"/>
      <point x="645" y="612" type="curve" smooth="yes"/>
      <point x="515" y="612"/>
      <point x="459" y="526"/>
      <point x="459" y="397" type="curve" smooth="yes"/>
      <point x="459" y="357" type="line"/>
      <point x="507" y="357" type="line" smooth="yes"/>
      <point x="575" y="357"/>
      <point x="624" y="352"/>
      <point x="658" y="338" type="curve" smooth="yes"/>
      <point x="710" y="316"/>
      <point x="728" y="278"/>
      <point x="728" y="226" type="curve" smooth="yes"/>
      <point x="728" y="158"/>
      <point x="686" y="121"/>
      <point x="619" y="121" type="curve" smooth="yes"/>
      <point x="537" y="121"/>
      <point x="496" y="160"/>
      <point x="496" y="234" type="curve" smooth="yes"/>
      <point x="496" y="241" type="line"/>
      <point x="391" y="241" type="line"/>
      <point x="391" y="233" type="line" smooth="yes"/>
      <point x="391" y="161"/>
      <point x="344" y="121"/>
      <point x="271" y="121" type="curve" smooth="yes"/>
      <point x="196" y="121"/>
      <point x="156" y="156"/>
      <point x="156" y="226" type="curve" smooth="yes"/>
      <point x="156" y="264"/>
      <point x="172" y="298"/>
      <point x="205" y="320" type="curve" smooth="yes"/>
      <point x="243" y="346"/>
      <point x="288" y="357"/>
      <point x="391" y="357" type="curve" smooth="yes"/>
      <point x="429" y="357" type="line"/>
      <point x="429" y="396" type="line" smooth="yes"/>
      <point x="429" y="526"/>
      <point x="373" y="612"/>
      <point x="244" y="612" type="curve" smooth="yes"/>
      <point x="148" y="612"/>
      <point x="90" y="574"/>
      <point x="90" y="498" type="curve" smooth="yes"/>
      <point x="90" y="491"/>
      <point x="91" y="479"/>
      <point x="92" y="472" type="curve"/>
      <point x="203" y="475" type="line"/>
      <point x="203" y="476"/>
      <point x="203" y="477"/>
      <point x="203" y="478" type="curve"/>
      <point x="203" y="502"/>
      <point x="220" y="514"/>
      <point x="254" y="514" type="curve" smooth="yes"/>
      <point x="296" y="514"/>
      <point x="314" y="487"/>
      <point x="317" y="455" type="curve"/>
      <point x="28" y="455" type="line"/>
      <point x="28" y="357" type="line"/>
      <point x="51" y="357" type="line" smooth="yes"/>
      <point x="97" y="357"/>
      <point x="152" y="364"/>
      <point x="185" y="369" type="curve"/>
      <point x="150" y="380" type="line"/>
      <point x="79" y="345"/>
      <point x="46" y="276"/>
      <point x="46" y="201" type="curve" smooth="yes"/>
      <point x="46" y="67"/>
      <point x="130" y="-11"/>
      <point x="263" y="-11" type="curve" smooth="yes"/>
      <point x="355" y="-11"/>
      <point x="401" y="19"/>
      <point x="444" y="72" type="curve"/>
      <point x="484" y="21"/>
      <point x="529" y="-11"/>
    </contour>
  </outline>
</glyph>
<glyph name="hasinh" format="2">
  <advance width="980"/>
  <unicode hex="0DC4"/>
  <outline>
    <contour>
      <point x="343" y="-11" type="curve" smooth="yes"/>
      <point x="580" y="-11"/>
      <point x="660" y="107"/>
      <point x="660" y="223" type="curve" smooth="yes"/>
      <point x="660" y="330"/>
      <point x="608" y="373"/>
      <point x="538" y="373" type="curve" smooth="yes"/>
      <point x="518" y="373"/>
      <point x="492" y="368"/>
      <point x="479" y="364" type="curve"/>
      <point x="508" y="355" type="line"/>
      <point x="537" y="438"/>
      <point x="592" y="483"/>
      <point x="665" y="483" type="curve" smooth="yes"/>
      <point x="779" y="483"/>
      <point x="835" y="401"/>
      <point x="835" y="291" type="curve" smooth="yes"/>
      <point x="835" y="177"/>
      <point x="775" y="103"/>
      <point x="654" y="103" type="curve" smooth="yes"/>
      <point x="645" y="103"/>
      <point x="639" y="103"/>
      <point x="631" y="104" type="curve"/>
      <point x="626" y="0" type="line"/>
      <point x="638" y="-1"/>
      <point x="651" y="-2"/>
      <point x="668" y="-2" type="curve" smooth="yes"/>
      <point x="832" y="-2"/>
      <point x="947" y="107"/>
      <point x="947" y="299" type="curve" smooth="yes"/>
      <point x="947" y="482"/>
      <point x="863" y="612"/>
      <point x="686" y="612" type="curve" smooth="yes"/>
      <point x="582" y="612"/>
      <point x="440" y="566"/>
      <point x="382" y="294" type="curve"/>
      <point x="478" y="264" type="line"/>
      <point x="487" y="271"/>
      <point x="499" y="276"/>
      <point x="510" y="276" type="curve" smooth="yes"/>
      <point x="532" y="276"/>
      <point x="549" y="262"/>
      <point x="549" y="234" type="curve" smooth="yes"/>
      <point x="549" y="166"/>
      <point x="471" y="125"/>
      <point x="346" y="125" type="curve" smooth="yes"/>
      <point x="218" y="125"/>
      <point x="143" y="174"/>
      <point x="143" y="256" type="curve" smooth="yes"/>
      <point x="143" y="293"/>
      <point x="156" y="318"/>
      <point x="183" y="334" type="curve" smooth="yes"/>
      <point x="212" y="351"/>
      <point x="256" y="357"/>
      <point x="332" y="357" type="curve" smooth="yes"/>
      <point x="396" y="357" type="line"/>
      <point x="396" y="396" type="line" smooth="yes"/>
      <point x="396" y="526"/>
      <point x="340" y="612"/>
      <point x="211" y="612" type="curve" smooth="yes"/>
      <point x="115" y="612"/>
      <point x="58" y="573"/>
      <point x="58" y="494" type="curve" smooth="yes"/>
      <point x="58" y="484"/>
      <point x="59" y="465"/>
      <point x="62" y="449" type="curve"/>
      <point x="171" y="459" type="line"/>
      <point x="170" y="464"/>
      <point x="170" y="470"/>
      <point x="170" y="475" type="curve" smooth="yes"/>
      <point x="170" y="500"/>
      <point x="186" y="514"/>
      <point x="221" y="514" type="curve" smooth="yes"/>
      <point x="264" y="514"/>
      <point x="282" y="487"/>
      <point x="284" y="452" type="curve"/>
      <point x="297" y="455" type="line"/>
      <point x="292" y="455" type="line"/>
      <point x="115" y="455"/>
      <point x="33" y="383"/>
      <point x="33" y="251" type="curve" smooth="yes"/>
      <point x="33" y="84"/>
      <point x="149" y="-11"/>
    </contour>
  </outline>
</glyph>
<glyph name="llasinh" format="2">
  <advance width="806"/>
  <unicode hex="0DC5"/>
  <outline>
    <contour>
      <point x="425" y="-231" type="curve" smooth="yes"/>
      <point x="650" y="-231"/>
      <point x="792" y="-138"/>
      <point x="792" y="43" type="curve" smooth="yes"/>
      <point x="792" y="54"/>
      <point x="792" y="67"/>
      <point x="788" y="81" type="curve"/>
      <point x="680" y="77" type="line"/>
      <point x="682" y="68"/>
      <point x="682" y="58"/>
      <point x="682" y="53" type="curve" smooth="yes"/>
      <point x="682" y="-66"/>
      <point x="567" y="-117"/>
      <point x="430" y="-117" type="curve" smooth="yes"/>
      <point x="237" y="-117"/>
      <point x="153" y="-28"/>
      <point x="153" y="113" type="curve" smooth="yes"/>
      <point x="153" y="181"/>
      <point x="171" y="234"/>
      <point x="212" y="269" type="curve"/>
      <point x="237" y="285" type="line"/>
      <point x="302" y="337"/>
      <point x="403" y="357"/>
      <point x="618" y="357" type="curve" smooth="yes"/>
      <point x="759" y="357" type="line"/>
      <point x="759" y="395" type="line" smooth="yes"/>
      <point x="759" y="528"/>
      <point x="705" y="612"/>
      <point x="578" y="612" type="curve" smooth="yes"/>
      <point x="529" y="612"/>
      <point x="491" y="592"/>
      <point x="465" y="563" type="curve"/>
      <point x="445" y="586"/>
      <point x="412" y="612"/>
      <point x="351" y="612" type="curve" smooth="yes"/>
      <point x="244" y="612"/>
      <point x="168" y="538"/>
      <point x="168" y="401" type="curve" smooth="yes"/>
      <point x="168" y="372"/>
      <point x="171" y="344"/>
      <point x="175" y="317" type="curve" smooth="yes"/>
      <point x="193" y="178"/>
      <point x="282" y="71"/>
      <point x="467" y="71" type="curve" smooth="yes"/>
      <point x="652" y="71"/>
      <point x="743" y="158"/>
      <point x="754" y="296" type="curve"/>
      <point x="646" y="313" type="line"/>
      <point x="639" y="220"/>
      <point x="575" y="182"/>
      <point x="466" y="182" type="curve" smooth="yes"/>
      <point x="350" y="182"/>
      <point x="278" y="242"/>
      <point x="278" y="392" type="curve" smooth="yes"/>
      <point x="278" y="478"/>
      <point x="303" y="514"/>
      <point x="353" y="514" type="curve" smooth="yes"/>
      <point x="394" y="514"/>
      <point x="409" y="485"/>
      <point x="413" y="466" type="curve"/>
      <point x="518" y="466" type="line"/>
      <point x="522" y="491"/>
      <point x="539" y="514"/>
      <point x="580" y="514" type="curve" smooth="yes"/>
      <point x="627" y="514"/>
      <point x="643" y="487"/>
      <point x="646" y="455" type="curve"/>
      <point x="571" y="455" type="line" smooth="yes"/>
      <point x="405" y="455"/>
      <point x="302" y="440"/>
      <point x="220" y="398" type="curve"/>
      <point x="171" y="376" type="line"/>
      <point x="74" y="312"/>
      <point x="25" y="224"/>
      <point x="25" y="101" type="curve" smooth="yes"/>
      <point x="25" y="-83"/>
      <point x="132" y="-231"/>
    </contour>
  </outline>
</glyph>
<glyph name="fasinh" format="2">
  <advance width="876"/>
  <unicode hex="0DC6"/>
  <outline>
    <contour>
      <point x="568" y="-11" type="curve" smooth="yes"/>
      <point x="753" y="-11"/>
      <point x="841" y="103"/>
      <point x="841" y="306" type="curve" smooth="yes"/>
      <point x="841" y="509"/>
      <point x="744" y="612"/>
      <point x="607" y="612" type="curve" smooth="yes"/>
      <point x="526" y="612"/>
      <point x="475" y="577"/>
      <point x="438" y="522" type="curve"/>
      <point x="405" y="574"/>
      <point x="357" y="612"/>
      <point x="274" y="612" type="curve" smooth="yes"/>
      <point x="133" y="612"/>
      <point x="36" y="505"/>
      <point x="36" y="309" type="curve" smooth="yes"/>
      <point x="36" y="105"/>
      <point x="123" y="-11"/>
      <point x="308" y="-11" type="curve" smooth="yes"/>
      <point x="327" y="-11"/>
      <point x="342" y="-10"/>
      <point x="358" y="-7" type="curve"/>
      <point x="354" y="100" type="line"/>
      <point x="344" y="99"/>
      <point x="331" y="98"/>
      <point x="323" y="98" type="curve" smooth="yes"/>
      <point x="186" y="98"/>
      <point x="148" y="175"/>
      <point x="148" y="297" type="curve" smooth="yes"/>
      <point x="148" y="406"/>
      <point x="194" y="477"/>
      <point x="283" y="477" type="curve" smooth="yes"/>
      <point x="317" y="477"/>
      <point x="340" y="466"/>
      <point x="357" y="446" type="curve" smooth="yes"/>
      <point x="376" y="423"/>
      <point x="385" y="391"/>
      <point x="385" y="334" type="curve" smooth="yes"/>
      <point x="385" y="321" type="line"/>
      <point x="491" y="321" type="line"/>
      <point x="491" y="331" type="line" smooth="yes"/>
      <point x="491" y="392"/>
      <point x="500" y="422"/>
      <point x="521" y="445" type="curve" smooth="yes"/>
      <point x="539" y="465"/>
      <point x="563" y="477"/>
      <point x="599" y="477" type="curve" smooth="yes"/>
      <point x="686" y="477"/>
      <point x="729" y="400"/>
      <point x="729" y="300" type="curve" smooth="yes"/>
      <point x="729" y="174"/>
      <point x="690" y="98"/>
      <point x="553" y="98" type="curve" smooth="yes"/>
      <point x="542" y="98"/>
      <point x="532" y="98"/>
      <point x="521" y="99" type="curve"/>
      <point x="518" y="-8" type="line"/>
      <point x="536" y="-10"/>
      <point x="550" y="-11"/>
    </contour>
  </outline>
</glyph>
<glyph name="viramasinh" format="2">
  <unicode hex="0DCA"/>
  <outline>
    <contour>
      <point x="-243" y="520" type="line"/>
      <point x="-145" y="520" type="line"/>
      <point x="-145" y="847" type="line"/>
      <point x="-177" y="902" type="line"/>
      <point x="-185" y="946"/>
      <point x="-208" y="968"/>
      <point x="-257" y="979" type="curve"/>
      <point x="-295" y="894" type="line"/>
      <point x="-277" y="887"/>
      <point x="-260" y="876"/>
      <point x="-252" y="864" type="curve" smooth="yes"/>
      <point x="-246" y="854"/>
      <point x="-243" y="842"/>
      <point x="-243" y="816" type="curve" smooth="yes"/>
    </contour>
    <contour>
      <point x="-118" y="773" type="curve" smooth="yes"/>
      <point x="-47" y="773"/>
      <point x="0" y="799"/>
      <point x="0" y="877" type="curve" smooth="yes"/>
      <point x="0" y="940"/>
      <point x="-37" y="979"/>
      <point x="-96" y="979" type="curve" smooth="yes"/>
      <point x="-154" y="979"/>
      <point x="-187" y="944"/>
      <point x="-199" y="891" type="curve"/>
      <point x="-145" y="834" type="line"/>
      <point x="-145" y="857" type="line" smooth="yes"/>
      <point x="-145" y="886"/>
      <point x="-136" y="903"/>
      <point x="-108" y="903" type="curve" smooth="yes"/>
      <point x="-96" y="903"/>
      <point x="-79" y="897"/>
      <point x="-79" y="878" type="curve" smooth="yes"/>
      <point x="-79" y="856"/>
      <point x="-93" y="849"/>
      <point x="-123" y="849" type="curve" smooth="yes"/>
      <point x="-150" y="849"/>
      <point x="-172" y="858"/>
      <point x="-197" y="869" type="curve"/>
      <point x="-216" y="796" type="line"/>
      <point x="-184" y="783"/>
      <point x="-153" y="773"/>
    </contour>
  </outline>
</glyph>
<glyph name="aavowelsignsinh" format="2">
  <advance width="379"/>
  <unicode hex="0DCF"/>
  <outline>
    <contour>
      <point x="114" y="-11" type="curve" smooth="yes"/>
      <point x="262" y="-11"/>
      <point x="344" y="82"/>
      <point x="344" y="272" type="curve" smooth="yes"/>
      <point x="344" y="464"/>
      <point x="257" y="555"/>
      <point x="120" y="555" type="curve" smooth="yes"/>
      <point x="70" y="555"/>
      <point x="40" y="548"/>
      <point x="11" y="540" type="curve"/>
      <point x="31" y="440" type="line"/>
      <point x="56" y="449"/>
      <point x="80" y="451"/>
      <point x="100" y="451" type="curve" smooth="yes"/>
      <point x="187" y="451"/>
      <point x="213" y="388"/>
      <point x="213" y="275" type="curve" smooth="yes"/>
      <point x="213" y="161"/>
      <point x="191" y="93"/>
      <point x="97" y="93" type="curve" smooth="yes"/>
      <point x="76" y="93"/>
      <point x="53" y="96"/>
      <point x="32" y="103" type="curve"/>
      <point x="11" y="4" type="line"/>
      <point x="40" y="-7"/>
      <point x="83" y="-11"/>
    </contour>
  </outline>
</glyph>
<glyph name="aevowelsignsinh" format="2">
  <advance width="335"/>
  <unicode hex="0DD0"/>
  <outline>
    <contour>
      <point x="200" y="-171" type="curve" smooth="yes"/>
      <point x="263" y="-171"/>
      <point x="301" y="-166"/>
      <point x="346" y="-146" type="curve"/>
      <point x="316" y="-49" type="line"/>
      <point x="289" y="-62"/>
      <point x="261" y="-68"/>
      <point x="237" y="-68" type="curve" smooth="yes"/>
      <point x="183" y="-68"/>
      <point x="148" y="-45"/>
      <point x="148" y="22" type="curve" smooth="yes"/>
      <point x="148" y="95"/>
      <point x="177" y="161"/>
      <point x="324" y="324" type="curve"/>
      <point x="286" y="402" type="line"/>
      <point x="16" y="402" type="line"/>
      <point x="16" y="299" type="line"/>
      <point x="141" y="299" type="line" smooth="yes"/>
      <point x="160" y="299"/>
      <point x="201" y="301"/>
      <point x="222" y="304" type="curve"/>
      <point x="207" y="334" type="line"/>
      <point x="48" y="179"/>
      <point x="23" y="88"/>
      <point x="23" y="5" type="curve" smooth="yes"/>
      <point x="23" y="-119"/>
      <point x="101" y="-171"/>
    </contour>
  </outline>
</glyph>
<glyph name="aaevowelsignsinh" format="2">
  <advance width="340"/>
  <unicode hex="0DD1"/>
  <outline>
    <contour>
      <point x="200" y="-171" type="curve" smooth="yes"/>
      <point x="266" y="-171"/>
      <point x="303" y="-164"/>
      <point x="346" y="-146" type="curve"/>
      <point x="316" y="-49" type="line"/>
      <point x="290" y="-61"/>
      <point x="268" y="-68"/>
      <point x="237" y="-68" type="curve" smooth="yes"/>
      <point x="184" y="-68"/>
      <point x="148" y="-43"/>
      <point x="148" y="11" type="curve" smooth="yes"/>
      <point x="148" y="66"/>
      <point x="192" y="108"/>
      <point x="312" y="162" type="curve"/>
      <point x="283" y="242" type="line"/>
      <point x="258" y="241" type="line" smooth="yes"/>
      <point x="206" y="239"/>
      <point x="130" y="231"/>
      <point x="93" y="223" type="curve"/>
      <point x="94" y="207" type="line"/>
      <point x="173" y="236"/>
      <point x="275" y="292"/>
      <point x="316" y="319" type="curve"/>
      <point x="281" y="402" type="line"/>
      <point x="16" y="402" type="line"/>
      <point x="16" y="299" type="line"/>
      <point x="89" y="299" type="line" smooth="yes"/>
      <point x="117" y="299"/>
      <point x="150" y="300"/>
      <point x="177" y="304" type="curve"/>
      <point x="245" y="355" type="line"/>
      <point x="179" y="317"/>
      <point x="92" y="280"/>
      <point x="28" y="236" type="curve"/>
      <point x="61" y="156" type="line"/>
      <point x="76" y="156" type="line" smooth="yes"/>
      <point x="124" y="157"/>
      <point x="194" y="163"/>
      <point x="231" y="168" type="curve"/>
      <point x="220" y="200" type="line"/>
      <point x="103" y="144"/>
      <point x="23" y="92"/>
      <point x="23" y="-14" type="curve" smooth="yes"/>
      <point x="23" y="-102"/>
      <point x="79" y="-171"/>
    </contour>
  </outline>
</glyph>
<glyph name="ivowelsignsinh" format="2">
  <unicode hex="0DD2"/>
  <outline>
    <contour>
      <point x="-314" y="880" type="curve" smooth="yes"/>
      <point x="-555" y="880"/>
      <point x="-607" y="772"/>
      <point x="-607" y="690" type="curve" smooth="yes"/>
      <point x="-607" y="672"/>
      <point x="-604" y="641"/>
      <point x="-597" y="620" type="curve"/>
      <point x="-493" y="638" type="line"/>
      <point x="-495" y="646"/>
      <point x="-497" y="655"/>
      <point x="-497" y="667" type="curve" smooth="yes"/>
      <point x="-497" y="716"/>
      <point x="-467" y="762"/>
      <point x="-313" y="762" type="curve" smooth="yes"/>
      <point x="-160" y="762"/>
      <point x="-130" y="717"/>
      <point x="-130" y="667" type="curve" smooth="yes"/>
      <point x="-130" y="658"/>
      <point x="-132" y="646"/>
      <point x="-134" y="638" type="curve"/>
      <point x="-30" y="620" type="line"/>
      <point x="-24" y="641"/>
      <point x="-20" y="665"/>
      <point x="-20" y="690" type="curve" smooth="yes"/>
      <point x="-20" y="772"/>
      <point x="-71" y="880"/>
    </contour>
  </outline>
</glyph>
<glyph name="iivowelsignsinh" format="2">
  <unicode hex="0DD3"/>
  <outline>
    <contour>
      <point x="-314" y="880" type="curve" smooth="yes"/>
      <point x="-555" y="880"/>
      <point x="-607" y="772"/>
      <point x="-607" y="690" type="curve" smooth="yes"/>
      <point x="-607" y="672"/>
      <point x="-603" y="641"/>
      <point x="-597" y="620" type="curve"/>
      <point x="-493" y="638" type="line"/>
      <point x="-495" y="646"/>
      <point x="-497" y="655"/>
      <point x="-497" y="667" type="curve" smooth="yes"/>
      <point x="-497" y="716"/>
      <point x="-467" y="762"/>
      <point x="-313" y="762" type="curve" smooth="yes"/>
      <point x="-271" y="762"/>
      <point x="-232" y="760"/>
      <point x="-204" y="756" type="curve" smooth="yes"/>
      <point x="-136" y="745"/>
      <point x="-113" y="719"/>
      <point x="-113" y="685" type="curve" smooth="yes"/>
      <point x="-113" y="657"/>
      <point x="-131" y="646"/>
      <point x="-155" y="646" type="curve" smooth="yes"/>
      <point x="-187" y="646"/>
      <point x="-205" y="662"/>
      <point x="-205" y="692" type="curve" smooth="yes"/>
      <point x="-205" y="735"/>
      <point x="-176" y="757"/>
      <point x="-130" y="791" type="curve"/>
      <point x="-234" y="810" type="line"/>
      <point x="-276" y="776"/>
      <point x="-303" y="739"/>
      <point x="-303" y="686" type="curve" smooth="yes"/>
      <point x="-303" y="602"/>
      <point x="-250" y="563"/>
      <point x="-155" y="563" type="curve" smooth="yes"/>
      <point x="-67" y="563"/>
      <point x="-11" y="606"/>
      <point x="-11" y="697" type="curve" smooth="yes"/>
      <point x="-11" y="777"/>
      <point x="-70" y="880"/>
    </contour>
  </outline>
</glyph>
<glyph name="uvowelsignsinh" format="2">
  <unicode hex="0DD4"/>
  <outline>
    <contour>
      <point x="-650" y="-137" type="curve" smooth="yes"/>
      <point x="-650" y="-178"/>
      <point x="-636" y="-208"/>
      <point x="-609" y="-229" type="curve" smooth="yes"/>
      <point x="-578" y="-253"/>
      <point x="-534" y="-269"/>
      <point x="-421" y="-269" type="curve" smooth="yes"/>
      <point x="-24" y="-269" type="line"/>
      <point x="-24" y="72" type="line"/>
      <point x="-134" y="72" type="line"/>
      <point x="-134" y="-164" type="line"/>
      <point x="-411" y="-164" type="line" smooth="yes"/>
      <point x="-477" y="-164"/>
      <point x="-503" y="-161"/>
      <point x="-517" y="-151" type="curve" smooth="yes"/>
      <point x="-528" y="-144"/>
      <point x="-534" y="-134"/>
      <point x="-534" y="-122" type="curve" smooth="yes"/>
      <point x="-534" y="-103"/>
      <point x="-528" y="-93"/>
      <point x="-504" y="-72" type="curve"/>
      <point x="-587" y="-12" type="line"/>
      <point x="-638" y="-60"/>
      <point x="-650" y="-96"/>
    </contour>
  </outline>
</glyph>
<glyph name="uuvowelsignsinh" format="2">
  <unicode hex="0DD6"/>
  <outline>
    <contour>
      <point x="-650" y="-143" type="curve" smooth="yes"/>
      <point x="-650" y="-236"/>
      <point x="-577" y="-269"/>
      <point x="-512" y="-269" type="curve" smooth="yes"/>
      <point x="-450" y="-269"/>
      <point x="-404" y="-250"/>
      <point x="-351" y="-224" type="curve" smooth="yes"/>
      <point x="-300" y="-198"/>
      <point x="-276" y="-190"/>
      <point x="-243" y="-190" type="curve" smooth="yes"/>
      <point x="-196" y="-190"/>
      <point x="-164" y="-217"/>
      <point x="-114" y="-269" type="curve"/>
      <point x="-24" y="-269" type="line"/>
      <point x="-24" y="72" type="line"/>
      <point x="-134" y="72" type="line"/>
      <point x="-134" y="-73" type="line" smooth="yes"/>
      <point x="-134" y="-107"/>
      <point x="-133" y="-136"/>
      <point x="-131" y="-158" type="curve"/>
      <point x="-95" y="-170" type="line"/>
      <point x="-157" y="-108"/>
      <point x="-199" y="-82"/>
      <point x="-257" y="-82" type="curve" smooth="yes"/>
      <point x="-307" y="-82"/>
      <point x="-337" y="-96"/>
      <point x="-397" y="-129" type="curve" smooth="yes"/>
      <point x="-442" y="-154"/>
      <point x="-466" y="-164"/>
      <point x="-493" y="-164" type="curve" smooth="yes"/>
      <point x="-521" y="-164"/>
      <point x="-534" y="-148"/>
      <point x="-534" y="-128" type="curve" smooth="yes"/>
      <point x="-534" y="-108"/>
      <point x="-527" y="-94"/>
      <point x="-504" y="-72" type="curve"/>
      <point x="-587" y="-12" type="line"/>
      <point x="-633" y="-57"/>
      <point x="-650" y="-97"/>
    </contour>
  </outline>
</glyph>
<glyph name="rvocalicvowelsignsinh" format="2">
  <advance width="483"/>
  <unicode hex="0DD8"/>
  <outline>
    <contour>
      <point x="196" y="-11" type="curve" smooth="yes"/>
      <point x="227" y="-11"/>
      <point x="262" y="-7"/>
      <point x="294" y="16" type="curve"/>
      <point x="318" y="0" type="line"/>
      <point x="369" y="48" type="line"/>
      <point x="295" y="106" type="line"/>
      <point x="259" y="106" type="line"/>
      <point x="243" y="98"/>
      <point x="226" y="91"/>
      <point x="200" y="91" type="curve" smooth="yes"/>
      <point x="162" y="91"/>
      <point x="134" y="110"/>
      <point x="134" y="163" type="curve" smooth="yes"/>
      <point x="134" y="188"/>
      <point x="144" y="212"/>
      <point x="172" y="227" type="curve" smooth="yes"/>
      <point x="194" y="239"/>
      <point x="220" y="247"/>
      <point x="293" y="247" type="curve" smooth="yes"/>
      <point x="356" y="247" type="line"/>
      <point x="356" y="346" type="line"/>
      <point x="307" y="346" type="line" smooth="yes"/>
      <point x="193" y="346"/>
      <point x="138" y="331"/>
      <point x="95" y="303" type="curve" smooth="yes"/>
      <point x="47" y="271"/>
      <point x="20" y="224"/>
      <point x="20" y="160" type="curve" smooth="yes"/>
      <point x="20" y="47"/>
      <point x="88" y="-11"/>
    </contour>
    <contour>
      <point x="318" y="0" type="line"/>
      <point x="435" y="0" type="line"/>
      <point x="435" y="264" type="line" smooth="yes"/>
      <point x="435" y="399"/>
      <point x="415" y="459"/>
      <point x="360" y="506" type="curve" smooth="yes"/>
      <point x="323" y="538"/>
      <point x="271" y="555"/>
      <point x="196" y="555" type="curve" smooth="yes"/>
      <point x="138" y="555"/>
      <point x="80" y="544"/>
      <point x="34" y="526" type="curve"/>
      <point x="63" y="433" type="line"/>
      <point x="92" y="444"/>
      <point x="127" y="453"/>
      <point x="177" y="453" type="curve" smooth="yes"/>
      <point x="215" y="453"/>
      <point x="243" y="445"/>
      <point x="264" y="432" type="curve" smooth="yes"/>
      <point x="297" y="411"/>
      <point x="306" y="373"/>
      <point x="306" y="324" type="curve" smooth="yes"/>
      <point x="306" y="31" type="line"/>
    </contour>
  </outline>
</glyph>
<glyph name="evowelsignsinh" format="2">
  <advance width="674"/>
  <unicode hex="0DD9"/>
  <outline>
    <contour>
      <point x="360" y="-11" type="curve" smooth="yes"/>
      <point x="562" y="-11"/>
      <point x="645" y="86"/>
      <point x="645" y="208" type="curve" smooth="yes"/>
      <point x="645" y="320"/>
      <point x="572" y="412"/>
      <point x="394" y="412" type="curve" smooth="yes"/>
      <point x="285" y="412"/>
      <point x="214" y="359"/>
      <point x="214" y="278" type="curve" smooth="yes"/>
      <point x="214" y="196"/>
      <point x="277" y="154"/>
      <point x="357" y="154" type="curve" smooth="yes"/>
      <point x="440" y="154"/>
      <point x="495" y="187"/>
      <point x="495" y="261" type="curve" smooth="yes"/>
      <point x="495" y="289"/>
      <point x="484" y="309"/>
      <point x="470" y="329" type="curve"/>
      <point x="376" y="335" type="line"/>
      <point x="391" y="316"/>
      <point x="397" y="301"/>
      <point x="397" y="285" type="curve" smooth="yes"/>
      <point x="397" y="261"/>
      <point x="384" y="247"/>
      <point x="357" y="247" type="curve" smooth="yes"/>
      <point x="329" y="247"/>
      <point x="318" y="264"/>
      <point x="318" y="281" type="curve" smooth="yes"/>
      <point x="318" y="306"/>
      <point x="335" y="322"/>
      <point x="392" y="322" type="curve" smooth="yes"/>
      <point x="400" y="322"/>
      <point x="408" y="322"/>
      <point x="415" y="321" type="curve"/>
      <point x="514" y="317"/>
      <point x="541" y="278"/>
      <point x="541" y="227" type="curve" smooth="yes"/>
      <point x="541" y="154"/>
      <point x="486" y="103"/>
      <point x="359" y="103" type="curve" smooth="yes"/>
      <point x="208" y="103"/>
      <point x="138" y="168"/>
      <point x="138" y="276" type="curve" smooth="yes"/>
      <point x="138" y="400"/>
      <point x="238" y="457"/>
      <point x="382" y="457" type="curve" smooth="yes"/>
      <point x="456" y="457"/>
      <point x="525" y="448"/>
      <point x="594" y="423" type="curve"/>
      <point x="626" y="519" type="line"/>
      <point x="551" y="543"/>
      <point x="476" y="555"/>
      <point x="375" y="555" type="curve" smooth="yes"/>
      <point x="167" y="555"/>
      <point x="33" y="445"/>
      <point x="33" y="270" type="curve" smooth="yes"/>
      <point x="33" y="132"/>
      <point x="108" y="-11"/>
    </contour>
  </outline>
</glyph>
<glyph name="lvocalicvowelsignsinh" format="2">
  <advance width="577"/>
  <unicode hex="0DDF"/>
  <outline>
    <contour>
      <point x="312" y="-11" type="curve" smooth="yes"/>
      <point x="459" y="-11"/>
      <point x="542" y="82"/>
      <point x="542" y="278" type="curve" smooth="yes"/>
      <point x="542" y="469"/>
      <point x="453" y="555"/>
      <point x="338" y="555" type="curve" smooth="yes"/>
      <point x="281" y="555"/>
      <point x="225" y="535"/>
      <point x="170" y="468" type="curve"/>
      <point x="227" y="416" type="line"/>
      <point x="261" y="451" type="line"/>
      <point x="278" y="455"/>
      <point x="295" y="459"/>
      <point x="321" y="459" type="curve" smooth="yes"/>
      <point x="392" y="459"/>
      <point x="420" y="376"/>
      <point x="420" y="279" type="curve" smooth="yes"/>
      <point x="420" y="159"/>
      <point x="391" y="93"/>
      <point x="294" y="93" type="curve" smooth="yes"/>
      <point x="263" y="93"/>
      <point x="233" y="98"/>
      <point x="213" y="105" type="curve"/>
      <point x="192" y="8" type="line"/>
      <point x="221" y="-4"/>
      <point x="264" y="-11"/>
    </contour>
    <contour>
      <point x="202" y="247" type="curve" smooth="yes"/>
      <point x="325" y="247"/>
      <point x="361" y="317"/>
      <point x="361" y="378" type="curve" smooth="yes"/>
      <point x="361" y="438"/>
      <point x="325" y="470"/>
      <point x="260" y="470" type="curve" smooth="yes"/>
      <point x="253" y="470"/>
      <point x="244" y="468"/>
      <point x="235" y="466" type="curve"/>
      <point x="227" y="416" type="line"/>
      <point x="231" y="417"/>
      <point x="237" y="418"/>
      <point x="240" y="418" type="curve" smooth="yes"/>
      <point x="256" y="418"/>
      <point x="265" y="408"/>
      <point x="265" y="387" type="curve" smooth="yes"/>
      <point x="265" y="357"/>
      <point x="239" y="341"/>
      <point x="206" y="341" type="curve" smooth="yes"/>
      <point x="146" y="341"/>
      <point x="132" y="378"/>
      <point x="132" y="420" type="curve" smooth="yes"/>
      <point x="132" y="455"/>
      <point x="142" y="487"/>
      <point x="161" y="520" type="curve"/>
      <point x="58" y="555" type="line"/>
      <point x="41" y="524"/>
      <point x="22" y="474"/>
      <point x="22" y="415" type="curve" smooth="yes"/>
      <point x="22" y="333"/>
      <point x="65" y="247"/>
    </contour>
  </outline>
</glyph>
<glyph name="uni0DE6" format="2">
  <advance width="383"/>
  <unicode hex="0DE6"/>
  <outline>
    <contour>
      <point x="82" y="0" type="line"/>
      <point x="195" y="0" type="line"/>
      <point x="195" y="460" type="line"/>
      <point x="158" y="524" type="line"/>
      <point x="149" y="575"/>
      <point x="122" y="600"/>
      <point x="65" y="613" type="curve"/>
      <point x="21" y="514" type="line"/>
      <point x="42" y="506"/>
      <point x="62" y="493"/>
      <point x="71" y="480" type="curve" smooth="yes"/>
      <point x="78" y="468"/>
      <point x="82" y="454"/>
      <point x="82" y="424" type="curve" smooth="yes"/>
    </contour>
    <contour>
      <point x="227" y="374" type="curve" smooth="yes"/>
      <point x="309" y="374"/>
      <point x="364" y="404"/>
      <point x="364" y="495" type="curve" smooth="yes"/>
      <point x="364" y="568"/>
      <point x="321" y="613"/>
      <point x="252" y="613" type="curve" smooth="yes"/>
      <point x="185" y="613"/>
      <point x="147" y="572"/>
      <point x="133" y="511" type="curve"/>
      <point x="195" y="445" type="line"/>
      <point x="195" y="471" type="line" smooth="yes"/>
      <point x="195" y="505"/>
      <point x="206" y="525"/>
      <point x="238" y="525" type="curve" smooth="yes"/>
      <point x="252" y="525"/>
      <point x="272" y="518"/>
      <point x="272" y="496" type="curve" smooth="yes"/>
      <point x="272" y="470"/>
      <point x="256" y="462"/>
      <point x="221" y="462" type="curve" smooth="yes"/>
      <point x="190" y="462"/>
      <point x="164" y="473"/>
      <point x="135" y="485" type="curve"/>
      <point x="113" y="401" type="line"/>
      <point x="150" y="386"/>
      <point x="186" y="374"/>
    </contour>
  </outline>
</glyph>
<glyph name="uni0DE7" format="2">
  <advance width="883"/>
  <unicode hex="0DE7"/>
  <outline>
    <contour>
      <point x="354" y="-11" type="curve" smooth="yes"/>
      <point x="561" y="-11"/>
      <point x="640" y="95"/>
      <point x="640" y="225" type="curve" smooth="yes"/>
      <point x="640" y="345"/>
      <point x="560" y="444"/>
      <point x="379" y="444" type="curve" smooth="yes"/>
      <point x="266" y="444"/>
      <point x="202" y="391"/>
      <point x="202" y="310" type="curve" smooth="yes"/>
      <point x="202" y="228"/>
      <point x="265" y="186"/>
      <point x="345" y="186" type="curve" smooth="yes"/>
      <point x="428" y="186"/>
      <point x="483" y="219"/>
      <point x="483" y="293" type="curve" smooth="yes"/>
      <point x="483" y="321"/>
      <point x="472" y="341"/>
      <point x="458" y="361" type="curve"/>
      <point x="364" y="367" type="line"/>
      <point x="379" y="348"/>
      <point x="385" y="333"/>
      <point x="385" y="317" type="curve" smooth="yes"/>
      <point x="385" y="293"/>
      <point x="372" y="279"/>
      <point x="345" y="279" type="curve" smooth="yes"/>
      <point x="317" y="279"/>
      <point x="306" y="296"/>
      <point x="306" y="313" type="curve" smooth="yes"/>
      <point x="306" y="338"/>
      <point x="323" y="354"/>
      <point x="383" y="354" type="curve" smooth="yes"/>
      <point x="388" y="354"/>
      <point x="398" y="354"/>
      <point x="405" y="353" type="curve"/>
      <point x="504" y="348"/>
      <point x="532" y="302"/>
      <point x="532" y="245" type="curve" smooth="yes"/>
      <point x="532" y="159"/>
      <point x="468" y="119"/>
      <point x="352" y="119" type="curve" smooth="yes"/>
      <point x="230" y="119"/>
      <point x="145" y="176"/>
      <point x="145" y="304" type="curve" smooth="yes"/>
      <point x="145" y="443"/>
      <point x="240" y="505"/>
      <point x="373" y="505" type="curve" smooth="yes"/>
      <point x="615" y="505"/>
      <point x="730" y="341"/>
      <point x="742" y="-1" type="curve"/>
      <point x="857" y="1" type="line"/>
      <point x="853" y="408"/>
      <point x="672" y="612"/>
      <point x="374" y="612" type="curve" smooth="yes"/>
      <point x="169" y="612"/>
      <point x="34" y="492"/>
      <point x="34" y="293" type="curve" smooth="yes"/>
      <point x="34" y="140"/>
      <point x="116" y="-11"/>
    </contour>
  </outline>
</glyph>
